<svg width="42" height="50" xmlns="http://www.w3.org/2000/svg" xmlns:xlink="http://www.w3.org/1999/xlink"> <defs> <path id="@" d="M0 0h40.966v50H0z"/> </defs> <g fill="none" fill-rule="evenodd"> <path d="M15.095 7.667h1.667v1.666h-1.667V7.667zm0 3.333h1.667c.919 0 1.667-.748 1.667-1.667V7.667c0-.92-.748-1.667-1.667-1.667h-1.667c-.919 0-1.666.748-1.666 1.667v1.666c0 .92.747 1.667 1.666 1.667zM22.095 7.667h1.667v1.666h-1.667V7.667zm0 3.333h1.667c.919 0 1.667-.748 1.667-1.667V7.667c0-.92-.748-1.667-1.667-1.667h-1.667c-.919 0-1.666.748-1.666 1.667v1.666c0 .92.747 1.667 1.666 1.667zM8.095 7.667h1.667v1.666H8.096V7.667zm0 3.333h1.667c.919 0 1.667-.748 1.667-1.667V7.667c0-.92-.748-1.667-1.667-1.667H8.095c-.919 0-1.666.748-1.666 1.667v1.666c0 .92.747 1.667 1.666 1.667zM15.095 14.667h1.667v1.666h-1.667v-1.666zm0 3.333h1.667c.919 0 1.667-.748 1.667-1.667v-1.666c0-.92-.748-1.667-1.667-1.667h-1.667c-.919 0-1.666.748-1.666 1.667v1.666c0 .92.747 1.667 1.666 1.667zM22.095 14.667h1.667v1.666h-1.667v-1.666zm0 3.333h1.667c.919 0 1.667-.748 1.667-1.667v-1.666c0-.92-.748-1.667-1.667-1.667h-1.667c-.919 0-1.666.748-1.666 1.667v1.666c0 .92.747 1.667 1.666 1.667zM8.095 14.667h1.667v1.666H8.096v-1.666zm0 3.333h1.667c.919 0 1.667-.748 1.667-1.667v-1.666c0-.92-.748-1.667-1.667-1.667H8.095c-.919 0-1.666.748-1.666 1.667v1.666c0 .92.747 1.667 1.666 1.667zM15.095 21.667h1.667v1.666h-1.667v-1.666zm0 3.333h1.667c.919 0 1.667-.748 1.667-1.667v-1.666c0-.92-.748-1.667-1.667-1.667h-1.667c-.919 0-1.666.748-1.666 1.667v1.666c0 .92.747 1.667 1.666 1.667zM22.095 21.667h1.667v1.666h-1.667v-1.666zm0 3.333h1.667c.919 0 1.667-.748 1.667-1.667v-1.666c0-.92-.748-1.667-1.667-1.667h-1.667c-.919 0-1.666.748-1.666 1.667v1.666c0 .92.747 1.667 1.666 1.667zM8.095 21.667h1.667v1.666H8.096v-1.666zm0 3.333h1.667c.919 0 1.667-.748 1.667-1.667v-1.666c0-.92-.748-1.667-1.667-1.667H8.095c-.919 0-1.666.748-1.666 1.667v1.666c0 .92.747 1.667 1.666 1.667z" fill="#272728"/> <g transform="translate(.429)"> <mask id="b1" fill="#fff"> <use xlink:href="#@"/> </mask> <path d="M39.034 39.127l-1.71.208v-2.243l1.72.21c.035.005.097.047.101.005l.014 1.742a.216.216 0 01-.125.078m-22.648 9.06h-1.82c-7.029 0-12.746-5.694-12.746-12.693V4.534c0-1.5 1.226-2.72 2.732-2.72H26.4a2.729 2.729 0 012.731 2.72v29.77c-3.047-.34-5.777-.624-6.492-.624a5.11 5.11 0 00-2.251.495 6.373 6.373 0 00-4.912-2.308c-3.513 0-6.373 2.847-6.373 6.347 0 3.5 2.86 6.346 6.373 6.346 1.975 0 3.742-.9 4.912-2.308.539.26 1.283.495 2.251.495.552 0 2.303-.169 4.475-.403a12.76 12.76 0 01-10.728 5.843m4.956-12.451a3.39 3.39 0 011.297-.242c1.078 0 7.943.791 12.865 1.378v2.682c-4.916.587-11.787 1.38-12.865 1.38a3.39 3.39 0 01-1.297-.242 6.307 6.307 0 000-4.956m-1.314 2.478c0 2.5-2.042 4.533-4.552 4.533s-4.552-2.034-4.552-4.533c0-2.5 2.042-4.534 4.552-4.534s4.552 2.034 4.552 4.534M39.256 35.5c-.314-.038-4.296-.527-8.304-.988V4.533C30.952 2.033 28.91 0 26.4 0H4.552C2.042 0 0 2.034 0 4.533v30.96C0 43.493 6.534 50 14.566 50h1.82a14.572 14.572 0 0012.966-7.903c4.477-.505 9.543-1.126 9.892-1.169.829-.09 1.722-.808 1.722-1.808v-1.813c0-1-.893-1.717-1.71-1.807" fill="#272728" mask="url(#b1)"/> </g> </g></svg>