<svg width="40" height="54" xmlns="http://www.w3.org/2000/svg"> <g fill="#272728" fill-rule="evenodd"> <path d="M21.977 8.988h2.602V6.823h-2.602v2.165zm3.934 34.02v2.62H2.489c.174-3.294.55-6.442 1.121-9.365h19.982c1.32 1.936 2.319 3.69 2.319 6.744zM11.517 18.835h5.058c.159 7.086 2.199 10.208 4.173 13.229l.05.078c.167.254.334.51.499.767.375.586.738 1.117 1.082 1.613H3.976c.777-3.404 1.82-6.478 3.104-9.14 1.894-3.932 3.796-5.938 4.437-6.547zM5.543 5.74h14.704v4.48h-2.821l-.075.014-.072-.002-.035.008c-.044.01-.076.027-.074.029a.857.857 0 00-.5.416.86.86 0 00-.095.305l-.015 6.106h-4.51V15.43c0-3.303-2.722-5.898-6.507-6.244V5.74zm20.368 41.628v2.8a2.102 2.102 0 01-2.106 2.092H4.477c-1.18 0-2.104-.992-2.104-2.258 0-.815.014-1.658.046-2.634H25.91zm-3.159-15.4c-.185-.288-.37-.573-.557-.858-2.008-3.072-3.904-5.973-3.904-13.144v-3.338c1.15 1.406 3.087 2.829 6.221 2.829.477 0 .866-.39.866-.87s-.389-.87-.866-.87c-3.616 0-5.21-2.215-5.88-3.756h2.48a.87.87 0 00.865-.87v-.363h3.467c.477 0 .866-.39.866-.87V5.953c0-.48-.389-.87-.866-.87h-3.467V4.87c0-.48-.388-.87-.865-.87H4.678a.869.869 0 00-.866.87v5.148c0 .48.389.87.866.87 3.216 0 5.641 1.953 5.641 4.542v2.144C8.517 19.259.642 27.897.642 50.002.642 52.244 2.327 54 4.477 54h19.328a3.84 3.84 0 003.837-3.832v-7.16c0-4.005-1.493-6.132-3.383-8.824a62.66 62.66 0 01-1.507-2.216zM39.017 7h-8.75c-.345 0-.625.224-.625.5s.28.5.625.5h8.75c.345 0 .625-.224.625-.5s-.28-.5-.625-.5M37.289 13.8l-7.774-3.74a.606.606 0 00-.815.303.638.638 0 00.295.837l7.773 3.74a.6.6 0 00.26.06c.23 0 .452-.134.556-.363a.638.638 0 00-.295-.837M29.256 5c.087 0 .175-.02.26-.06l7.773-3.74a.637.637 0 00.295-.837.606.606 0 00-.816-.303L28.995 3.8a.637.637 0 00-.295.837.612.612 0 00.556.363"/> </g></svg>