<svg width="60" height="36" xmlns="http://www.w3.org/2000/svg"> <g fill="#272728" fill-rule="evenodd"> <path d="M5.083 8.148c.097-.034.214-.044.319-.072.231-.059.472-.106.739-.118.211-.01.44.012.671.042.125.017.242.02.374.047a4.85 4.85 0 011.216.45l.513.274v7.26c0 .853.084 1.716.249 2.568l-4.832-2.486c-1.82-.94-2.256-2.345-2.301-3.359-.072-1.64.824-3.334 2.229-4.217a4.26 4.26 0 01.823-.389m43.474.888v6.993c0 1.485-.292 2.977-.863 4.427l-.751 1.612c-.879 1.613-2.106 3.187-3.643 4.675l-1.614 1.425c-.175.144-.344.278-.508.404-4.234 3.267-8.956 4.98-11.431 4.98-2.475 0-7.195-1.71-11.429-4.98-.176-.138-.363-.285-.547-.436l-1.607-1.428c-1.535-1.485-2.754-3.054-3.625-4.668l-.749-1.608a12.063 12.063 0 01-.85-4.398v-7c6.48-1.047 9.72-3.064 12.329-4.696 2.157-1.346 3.72-2.322 6.44-2.322h.08c2.72 0 4.282.976 6.448 2.325 2.603 1.629 5.84 3.646 12.32 4.695m2.025 6.996V8.77l.51-.268c1.833-.974 3.264-.513 4.142.037 1.403.882 2.299 2.576 2.229 4.217-.045 1.014-.478 2.422-2.301 3.359l-4.829 2.486c.166-.858.249-1.723.249-2.57m5.737-9.2c-1.884-1.187-4.078-1.227-6.175-.114l-.756.401c-6.424-.961-9.556-2.915-12.076-4.486C35.051 1.22 33.095 0 29.792 0h-.08c-3.308 0-5.264 1.22-7.523 2.633-2.523 1.571-5.66 3.527-12.083 4.484l-.754-.399c-2.1-1.113-4.29-1.07-6.175.112C1.181 8.086-.096 10.5.006 12.84a5.661 5.661 0 001.677 3.835 6.91 6.91 0 001.716 1.232l6.555 3.376c.928 2.323 2.444 4.544 4.508 6.602.794.788 1.672 1.559 2.612 2.283 4.12 3.183 9.33 5.406 12.67 5.406 3.341 0 8.554-2.22 12.673-5.404 3.38-2.61 5.841-5.684 7.12-8.89l6.555-3.373c2.095-1.078 3.301-2.878 3.393-5.067.108-2.34-1.169-4.757-3.166-6.009"/> <path d="M26.319 14.792L16.17 11.235a.99.99 0 10-.659 1.869L25.66 16.66a12.436 12.436 0 008.182 0l10.146-3.557a.992.992 0 00.609-1.265.995.995 0 00-1.268-.604l-10.145 3.557a10.638 10.638 0 01-6.864 0"/> <path d="M40.332 17.68l-7.152 2.508c-2.18.762-4.68.762-6.861 0l-7.155-2.508a.992.992 0 10-.66 1.869l7.158 2.508a12.429 12.429 0 008.182 0L41 19.55a.992.992 0 00.61-1.264 1 1 0 00-1.277-.605M37.16 24.19l-3.982 1.393c-2.18.768-4.68.766-6.86 0l-4.007-1.403a.99.99 0 10-.66 1.87l4.008 1.402c1.319.466 2.705.694 4.093.694 1.386 0 2.77-.23 4.09-.694l3.983-1.393a.99.99 0 00.609-1.265.997.997 0 00-1.274-.604"/> </g></svg>