<svg width="46" height="16" xmlns="http://www.w3.org/2000/svg" xmlns:xlink="http://www.w3.org/1999/xlink"> <defs> <path id="a2" d="M0 .113h46v15H0z"/> </defs> <g fill="none" fill-rule="evenodd"> <mask id="b2" fill="#fff"> <use xlink:href="#a2"/> </mask> <path d="M38.973.375a.875.875 0 00-1.25 0 .905.905 0 000 1.267l4.895 4.963H3.603l4.894-4.963a.905.905 0 000-1.267.875.875 0 00-1.249 0L.863 6.849a1.661 1.661 0 00-.04.04L0 7.725l7.027 7.125a.873.873 0 001.25 0 .905.905 0 000-1.266L3.16 8.397h39.457l-5.115 5.187a.905.905 0 000 1.266.873.873 0 001.249 0L46 7.5 38.973.376z" fill="#272728" mask="url(#b2)"/> </g></svg>