<svg width="34" height="50" xmlns="http://www.w3.org/2000/svg" xmlns:xlink="http://www.w3.org/1999/xlink"> <defs> <path id="a4" d="M0 .036h32.633v14.273H0z"/> </defs> <g fill="none" fill-rule="evenodd"> <g transform="translate(.737 34.58)"> <mask id="b4" fill="#fff"> <use xlink:href="#a4"/> </mask> <path d="M8.373 6.19L2.023 4.48 2.6 2.27l10.133 2.699-4.36 1.222zM32.6 9.334a.977.977 0 00-.089-.717.907.907 0 00-.549-.443L27.83 7.075l4.123-1.153a.909.909 0 00.549-.448.957.957 0 00.08-.705L31.5.747a.987.987 0 00-.028-.087c-.165-.466-.635-.719-1.095-.592l-14.073 3.91L2.179.2a.865.865 0 00-.268-.028.911.911 0 00-.831.699L.03 4.904c-.13.503.157 1.023.638 1.159l4.114 1.121L.68 8.316a.91.91 0 00-.548.448.954.954 0 00-.08.705l1.082 4.021c.081.536.542.885 1.046.808a.902.902 0 00.6-.379.954.954 0 00.112-.885L2.047 9.89 29.99 2.141l.596 2.207-24.618 6.82a.922.922 0 00-.557.457.968.968 0 00-.08.716c.14.507.653.801 1.145.658l17.806-4.958.068.036 6.259 1.679-.576 2.212-6.278-1.675a.867.867 0 00-.685.104.939.939 0 00-.414.581c-.123.506.171 1.022.656 1.15l7.14 1.91c.475.127.971-.173 1.1-.671L32.6 9.334z" fill="#272728" mask="url(#b4)"/> </g> <path d="M1.91 21.913c.03 6.609 4.667 11.577 11.814 12.657a.94.94 0 001.07-.778.932.932 0 00-.785-1.06c-6.476-.978-10.205-4.924-10.231-10.827-.01-2.377.772-4.692 2.263-6.696l.242-.324.114.386c.033.11.06.215.088.321.047.183.092.355.161.544.595 1.61 1.354 2.797 2.32 3.63a.95.95 0 00.67.29.96.96 0 00.664-.262.919.919 0 00-.101-1.408c-.68-.586-1.327-1.63-1.788-2.877-.422-1.142-.593-2.288-.592-2.648a.931.931 0 00-.923-.937h-.044a.941.941 0 00-.61.263c-2.811 2.62-4.35 6.074-4.333 9.726" fill="#272728"/> <path d="M11.296 14.146a.9.9 0 001.783.23c.516-4.002 2.459-7.326 6.494-11.113l.323-.303.004.443c.015 1.727.105 4.057.674 6.765 1.049 4.986 3.079 8.272 6.033 9.766a.89.89 0 00.686.053.89.89 0 00.575-.578c.33-1.003.193-2.195-.005-3.335l-.113-.65.447.486c1.977 2.15 2.39 4.07 2.399 6.294.017 3.75-1.94 7.2-5.369 9.466l-.341.226.041-.408c.247-2.424-.27-4.647-1.535-6.605-1.254-1.941-3.016-3.454-4.57-4.788a94.216 94.216 0 01-.897-.776.88.88 0 00-.652-.216.891.891 0 00-.614.308.892.892 0 00-.202.757c.207 1.026-.031 1.634-.482 2.281-.341.49-.852.968-1.392 1.475-.18.17-.366.344-.551.524-.715.694-1.496 1.533-1.724 2.72-.23 1.194.207 2.54 1.297 4.003a.9.9 0 001.615-.385.893.893 0 00-.16-.668c-.82-1.1-1.118-1.897-.982-2.606.098-.508.46-1.034 1.208-1.763.143-.139.296-.281.453-.428.554-.515 1.181-1.1 1.697-1.84.286-.41.48-.947.6-1.316l.091-.28.222.195c1.222 1.075 2.605 2.343 3.531 3.777 1.477 2.285 1.736 4.617.841 7.561a.895.895 0 001.211 1.09c5.163-2.21 8.483-7.043 8.46-12.312-.018-3.93-1.677-6.898-5.55-9.92a.9.9 0 00-1.26.159.894.894 0 00-.166.745c.324 1.387.567 2.684.702 3.75l.07.557-.4-.395c-1.995-1.977-2.975-5.06-3.446-7.298-.766-3.647-.753-7.363-.64-8.82A.9.9 0 0020.677.01a.895.895 0 00-.447.212c-4.166 3.55-8.13 7.69-8.933 13.924" fill="#272728"/> </g></svg>