<svg id="Layer_1" data-name="Layer 1" xmlns="http://www.w3.org/2000/svg" viewBox="0 0 160 160">
    <defs>
        <style>
            .cls-1{fill:#d1442a}.cls-2{fill:#9bb6c4}.cls-3{fill:#f6f4f2}.cls-4{fill:none}
        </style>
    </defs>
    <path class="cls-1" d="M33.61 9.64l8 141.85c0 .87 1.4.87 1.35 0L35 9.64c-.05-.87-1.4-.87-1.35 0zM49.34 10.5A1033.27 1033.27 0 0 0 57 153.67c.1.85 1.45.86 1.35 0A1034.82 1034.82 0 0 1 50.69 10.5a.68.68 0 0 0-1.35 0zM63.77 21.26L69.6 146c.05.92 1.48.92 1.44 0L65.2 21.26c0-.92-1.47-.92-1.43 0zM84.53 125.12v13.52a.72.72 0 0 0 1.44 0l.03-13.52a.72.72 0 0 0-1.43 0zM83.5 6.89l-.33 109a.72.72 0 0 0 1.43 0l.34-109a.72.72 0 0 0-1.44 0zM101 25.34l-1.56 125.71a.72.72 0 0 0 1.43 0l1.6-125.71a.72.72 0 0 0-1.44 0zM117.24 22.81L121.18 150c0 .92 1.46.92 1.43 0l-3.94-127.19c0-.92-1.46-.93-1.43 0z"/>
    <path class="cls-2" d="M77 65.72a4.11 4.11 0 0 0-1.78 2.77 1.68 1.68 0 0 0 0 .45.44.44 0 0 0 .61-.22c.3-.55.6-1.09.92-1.63a6.24 6.24 0 0 0 .62-1.51 3.3 3.3 0 0 0-.37.14zM88.21 72.09a6.45 6.45 0 0 0 1.35-2.23c-1.01.49-1.62 1.5-1.35 2.23zM71.26 66.3c.14-.25.11-.28-.2-.47a1.89 1.89 0 0 0-1.26 1.54 1.28 1.28 0 0 0 1-.34 4.05 4.05 0 0 0 .46-.73z"/>
    <path class="cls-3" d="M29.23 119.49l-1.55-1.56c-.78.65-1.31 1.46-2.08 2.06l.06.51h2.5a9.11 9.11 0 0 0 1.07-1.01zM57.26 88a4.44 4.44 0 0 0-1.85 0c-.17 0-.37 0-.52.17a21.34 21.34 0 0 0 .23 3.63 1.68 1.68 0 0 0 .29 0l1.81-.14a.65.65 0 0 0 .5-.36 3.06 3.06 0 0 0 .46-2.39 1.1 1.1 0 0 0-.92-.91zM27.41 117.71a12.3 12.3 0 0 0-1.95-1.95V117c0 .4 0 .82.05 1.23a5.41 5.41 0 0 0 .09 1.24zM29.53 119.2a5.64 5.64 0 0 0 1.4-1.31l-1.59-1.63a16.81 16.81 0 0 0-1.41 1.38 8.4 8.4 0 0 0 1.6 1.56zM31.06 118.17l-1.37 1.32.76.75a8.07 8.07 0 0 0 2.56-.16 11.48 11.48 0 0 0-1.95-1.91z"/>
    <path class="cls-2" d="M86.55 65.25a3.33 3.33 0 0 0-.49.29 4.53 4.53 0 0 0-1.26 1.62 5.34 5.34 0 0 0-.27 1.08.46.46 0 0 0 .2.5.78.78 0 0 0 .57-.37 7.55 7.55 0 0 0 1.37-2.54.5.5 0 0 0-.12-.58z"/>
    <path class="cls-3" d="M134.55 108.69c-.11-3.43-.21-6.86-.32-10.28l-.33-9.35q-.27-7-.55-13.91c-.1-2.66-.18-5.31-.15-8 0-2.12-.06-4.24-.11-6.35 0-1.61-.1-3.22-.15-4.82l-.21-7.14v-.61h-.59l-12.79.42-20.22.68c-2.18.07-4.36.1-6.54.16h-.34a7.37 7.37 0 0 1-.82.13c-.65 0-1.31.05-2 .07l-21.64.7-19.87.68-10.24.33-10.42.35c-1.27 0-2.53 0-3.79.07a1.07 1.07 0 0 0-.21 0Q23.8 67 24.35 82l.71.56 2.05 1.61a.56.56 0 0 1 .28.41l-3-2.27.17 5.17.45.46-.43-.19v1.39l.65.55 2.23 1.93c.13.11.28.21.3.41a6.86 6.86 0 0 1-.76-.53l-2.1-1.78a3.4 3.4 0 0 0-.31-.2c0 .71.05 1.36.07 2l.44.38 3.4 3.14a3.88 3.88 0 0 1 .26.31l-.08.07-.86-.71L25 92.25c-.09-.08-.19-.14-.34-.25 0 .61 0 1.14.06 1.7l.28.3a27.76 27.76 0 0 1 2.84 2.36 3.32 3.32 0 0 1 .61.72.59.59 0 0 1-.14-.06l-3.26-2.85a.52.52 0 0 1-.1-.11h-.23c0 1.2.08 2.36.12 3.55.36.29.73.58 1.1.89 1.05.89 2.1 1.78 3.14 2.68a.63.63 0 0 1 .3.45c-.39-.31-.72-.56-1-.82l-3.11-2.58c-.11-.09-.23-.16-.4-.28v.94c3.83 3.46 7.51 7.1 11.16 10.76a2.9 2.9 0 0 1-.69-.44q-.6-.51-1.17-1l-8.9-8.57c-.1-.09-.18-.24-.37-.23 0 .51 0 1 .05 1.56l.25.17c3.16 2.59 6.15 5.38 9.06 8.25l2.31 2.28a.63.63 0 0 1 .29.5c-.36-.29-.66-.51-.94-.77-1.53-1.44-3-2.9-4.58-4.32-1.94-1.79-3.92-3.54-5.88-5.3-.14-.12-.25-.31-.49-.3l.09 2.48.36.35c1.11 1 2.21 2.05 3.33 3.06s2.09 1.85 3.13 2.78a1 1 0 0 1 .36.42.47.47 0 0 1-.17-.07c-.32-.23-.64-.46-1-.71-2-1.58-3.83-3.29-5.65-5-.12-.1-.24-.2-.4-.35v.94a2.89 2.89 0 0 1 .28.21c1 .9 2.06 1.78 3.06 2.71 1.36 1.28 2.69 2.59 4 3.89a1.15 1.15 0 0 1 .14.19 10.42 10.42 0 0 1-1.3-1.07l-3.58-3.37c-.75-.69-1.52-1.35-2.29-2-.08-.07-.16-.21-.32-.13 0 .49 0 1 .05 1.49l1.34 1.3 1.32 1.25 1.5 1.15 1.35 1.29 1.32 1.25a16.07 16.07 0 0 1 1.3 1.31.67.67 0 0 1-.47-.22c-.26-.22-.52-.45-.77-.69q-3.16-3-6.31-6.08c-.12-.11-.22-.28-.43-.33 0 .55 0 1.07.05 1.62l1 1c2.26 2.15 4.51 4.3 6.64 6.57.32.34.62.68.92 1a.63.63 0 0 1 .18.28.75.75 0 0 1-.35-.2l-.81-.79-7.21-7.12a2.88 2.88 0 0 0-.34-.27c0 .71 0 1.34.07 2 1.36 1.38 2.73 2.78 4.11 4.17l.41-.21-.26.39 1.61 1.64.39-.16-.2.37 2.25 2.31 1.4-.05c.4-.46.77-.92 1.17-1.35s.8-.87 1.22-1.29a7.51 7.51 0 0 1 1.28-1.17 3.56 3.56 0 0 1-.45.56l-2.45 2.7a1.07 1.07 0 0 0-.34.54l2.18-.07 2-2.38.07.06c-.53.76-1.16 1.46-1.74 2.31h1.9l3.18-3.22h.05l.06.06-.91 1c-.32.36-.65.7-1 1.06a6.9 6.9 0 0 0-.91 1.06l3.1-.1a21.88 21.88 0 0 1 2.47-2.71 1.41 1.41 0 0 1-.27.44c-.49.6-1 1.19-1.48 1.78a.86.86 0 0 0-.26.48l1.71-.06c.64-.74 1.26-1.46 1.9-2.17s1.27-1.41 1.92-2.11 1.22-1.44 1.92-2.08a1.57 1.57 0 0 1-.36.61c-.67.79-1.33 1.58-2 2.36-.85 1-1.71 1.95-2.57 2.92a.91.91 0 0 0-.28.45l2.13-.07a19.6 19.6 0 0 1 3.69-4.17 1.19 1.19 0 0 1-.22.38c-.35.41-.71.81-1.05 1.23-.6.72-1.18 1.45-1.77 2.18-.08.1-.22.2-.15.37h.11l6.25-.2a.68.68 0 0 0 .52-.23 15.54 15.54 0 0 0 1.08-1.21c.65-.86 1.26-1.76 1.89-2.64l1.16-1.53a1.45 1.45 0 0 1 .23-.19 2.88 2.88 0 0 1-.57 1c-.22.33-.45.65-.68 1l-.68 1-.72 1c-.24.31-.49.61-.73.93a7.26 7.26 0 0 0-.79.86l2.32-.07 1.19-1.45c.14-.16.3-.29.45-.44l.16-.27h.06l-.21.24a3.5 3.5 0 0 1-.24.42c-.26.38-.54.74-.81 1.11-.06.09-.11.19-.19.33h.93c1.11-1.36 2.1-2.82 3.3-4.11a1.55 1.55 0 0 1-.24.46c-.8 1.09-1.6 2.17-2.39 3.26-.08.1-.24.19-.18.37l3.18-.11 2.27-3.61h.09l-.2.42-1.59 2.72c-.07.12-.12.25-.2.41l2.06-.07c.16-.2.33-.38.47-.58.55-.79 1.11-1.58 1.63-2.4s.84-1.4 1.26-2.11a2.05 2.05 0 0 1 .2-.23 27.18 27.18 0 0 1-3.12 5.33h1.77c1.55-2.44 2.75-5 4.44-7.38a11.48 11.48 0 0 1-.6 1.22c-.23.42-.47.83-.7 1.24s-.45.8-.67 1.21l-.66 1.21c-.23.41-.48.82-.7 1.24a7.79 7.79 0 0 0-.66 1.21 2.76 2.76 0 0 0 .38 0c.46 0 .92-.08 1.38-.1 2-.1 4-.22 6-.3 2.35-.1 4.69-.17 7-.24h2a.84.84 0 0 1 .39.06 1.42 1.42 0 0 0 .81.12c2-.09 4.1-.18 6.14-.25l30.05-1 4-.17c2.57-.1 5.15-.18 7.72-.27h.61v-.66c-.06-2.56-.15-5.05-.23-7.54zm-108.87-23l-.74-.66L25 85l.39.32c.13.1.27.18.41.28zm21.44 11.65a2 2 0 0 1-.23.09 5.85 5.85 0 0 1-.59 0h-1.75a.94.94 0 0 1-.25-.69 15.81 15.81 0 0 1-.13-2.74c.08-1.13.06-2.26.08-3.39v-.34c-.19-1.19-.1-2.39-.21-3.58a2.11 2.11 0 0 1 .07-.54l2.55-.15c0 .22.05.39.05.56v1.58a1.21 1.21 0 0 0 0 .19c.1 1.24.19 2.48.28 3.72v1.47c.07 1.1.14 2.19.2 3.29a4 4 0 0 1-.07.53zM51.65 119a1 1 0 0 1 .06-.29 5.08 5.08 0 0 1 .42-.61c1-1.19 2-2.37 3-3.55a1.67 1.67 0 0 1 .28-.25h.05a1.24 1.24 0 0 1-.1.2l-3.56 4.39s-.06.03-.15.11zm4.27-2.73c-.79 1-1.61 1.93-2.42 2.9a.86.86 0 0 1-.14.13H53.19v-.11l3.35-3.91c-.18.33-.38.66-.62.95zm3.94-21.61c.23.37.43.77.68 1.13.6.88.61.87.58 1.22a17.35 17.35 0 0 0-2.95.17c-.72-1-1.11-2.15-1.86-3.12a2.92 2.92 0 0 0-1.1.07 18.27 18.27 0 0 0-.06 3c-.07.06-.09.1-.12.1a13.86 13.86 0 0 1-2.14.22c-.27 0-.35-.07-.4-.33a4.32 4.32 0 0 1-.14-1.22 30 30 0 0 0 0-3.28c0-.67-.07-1.34-.1-2-.07-1.35-.12-2.69-.17-4a4.75 4.75 0 0 1 0-.56 4.58 4.58 0 0 1 1.73-.22 5.17 5.17 0 0 0 .68 0 5.77 5.77 0 0 1 .58-.08 24.28 24.28 0 0 1 2.7.06 2.82 2.82 0 0 1 2 .94c.16.19.34.36.5.54a3.65 3.65 0 0 1 .77 1.93 5.48 5.48 0 0 1-.04 1.89 2 2 0 0 1-.3.73 13.3 13.3 0 0 1-.92 1.21 3.48 3.48 0 0 1-.53.4 9 9 0 0 0 .61 1.16zm3.67-26.69a5 5 0 0 1 1-3 13.59 13.59 0 0 1 1-1.14 8.54 8.54 0 0 1 .88-.71 2 2 0 0 1 1.07-.31 1.47 1.47 0 0 1 1.37 1.54c-.1.41-.22.82-.34 1.23a.33.33 0 0 1-.33.25.47.47 0 0 1-.44-.34 1.53 1.53 0 0 1 0-1.15 1.1 1.1 0 0 0 .07-.89 1 1 0 0 0-.72.2c-.22.15-.43.3-.63.46A4.75 4.75 0 0 0 65 65.92a5.15 5.15 0 0 0-.48 2.15 1.7 1.7 0 0 0 .17.8c.88.46 1.67-.14 2-1h-1c-.35 0-.62-.25-.69-.69.11-.18.31-.14.48-.17a3.46 3.46 0 0 0 .67-.13 3.72 3.72 0 0 1 1.55-.22.63.63 0 0 1 .71.73c-.23.22-.54.15-.85.19v.46a1 1 0 0 1-.42.84c-.29.2-.57.43-.86.65a.91.91 0 0 1-.17.09 1.84 1.84 0 0 1-2.58-1.69zm10.93 17.7c-.26.85-.54 1.69-.81 2.53-.52 1.69-1.05 3.37-1.56 5.07-.3 1-.56 2-.83 3a3.32 3.32 0 0 0-.08.41l-2.7.09a2.94 2.94 0 0 1-.25-.41c-.34-.81-.68-1.63-1-2.45s-.62-1.59-.92-2.38l-2-5.43c0-.15-.09-.31-.14-.51a1.22 1.22 0 0 1 .33-.1 13.54 13.54 0 0 0 1.91-.05.84.84 0 0 1 .7.14 76.23 76.23 0 0 0 2.61 7.29c.26-.67.29-1.31.49-1.91s.28-1.28.44-1.91.33-1.24.51-1.85.36-1.21.54-1.84a17.27 17.27 0 0 0 2.77-.36c.17.24.04.45-.01.63zm4.67 10.7a4 4 0 0 1-.1-.54V94.7v-2.84c0-.72-.12-1.44-.16-2.16v-1.27-.2a18.57 18.57 0 0 0-.13-2.69 3.15 3.15 0 0 1 0-.53h2.6l.13.07v3.73c0 1.25.1 2.55.18 3.82s.15 2.51.23 3.75a5.18 5.18 0 0 1-2.75-.05zm3.8-28.42c-.14.18-.27.37-.4.56a2.09 2.09 0 0 1-1 .78.71.71 0 0 1-1-.43 1.71 1.71 0 0 1-.07-.21c-.19 0-.27.18-.38.29a1 1 0 0 1-1.54 0l-.32.23a1.5 1.5 0 0 1-.77.28.79.79 0 0 1-.82-.42c0-.08-.09-.17-.15-.29-.12.1-.22.17-.31.26a1.17 1.17 0 0 1-1.86 0c-.37.23-.69.56-1.18.52a1.18 1.18 0 0 1-1.05-.52c-.4.19-.78.38-1.16.55a2 2 0 0 1-1.49.08 1.12 1.12 0 0 1-.78-.81 2.15 2.15 0 0 1 0-1.35 4 4 0 0 1 1.56-2 1.16 1.16 0 0 1 1.34 0 1.3 1.3 0 0 1 .45 1.35 1.83 1.83 0 0 1-.79 1 .91.91 0 0 1-.7.13l-.89-.2a1.36 1.36 0 0 0 .17 1.28 5 5 0 0 0 .79 0 1.19 1.19 0 0 0 .93-.48 3.89 3.89 0 0 0 .8-1.5 6.55 6.55 0 0 1 .46-1.05c.12-.25.25-.49.37-.73-.19-.18-.49-.13-.57-.46.26-.13.57-.08.9-.22l.9-1.31c.47.12.48.18.28 1.12a1.58 1.58 0 0 1 .36.2 1.5 1.5 0 0 1 .24.31c-.31.36-.75.12-1.11.35a1.58 1.58 0 0 0-.14.2c-.34.71-.69 1.41-1 2.12a3.1 3.1 0 0 0-.19.66.89.89 0 0 0 .14.79.49.49 0 0 0 .63-.13 9.2 9.2 0 0 0 .67-.72.5.5 0 0 0 .11-.27 2.78 2.78 0 0 1 .64-1.43 3.71 3.71 0 0 1 1.54-1.34c.63-.25.78-.23 1.27.26l.48-.49a.8.8 0 0 1 .24 1 6 6 0 0 1-.41.89c-.2.39-.42.78-.62 1.17a1.7 1.7 0 0 0-.19 1c.43.14.54.11.77-.2a3.85 3.85 0 0 0 .7-1.29 8.11 8.11 0 0 1 1.3-2.48c.31 0 .39.05.41.27a1.49 1.49 0 0 1-.16 1.09c-.35.57-.66 1.17-1 1.76a1 1 0 0 0 0 .79.44.44 0 0 0 .54-.17 3.91 3.91 0 0 0 .48-.67c.4-.74.77-1.49 1.17-2.22a7 7 0 0 1 .52-.78 1.12 1.12 0 0 1 .22-.16.9.9 0 0 1 .23 1.18c-.27.47-.54.94-.79 1.42a6.61 6.61 0 0 0-.36.76.5.5 0 0 0 .11.6.75.75 0 0 0 .66-.34 3.25 3.25 0 0 0 .87-1.88 1.68 1.68 0 0 1 .25-.83c.16-.26.34-.52.52-.77a.51.51 0 0 1 .51-.25 1 1 0 0 1-.06.72 8.66 8.66 0 0 1-1.27 2.39zm2.92.66a3.4 3.4 0 0 1-.3.23 2.52 2.52 0 0 1-.56.3A1 1 0 0 1 83.63 68a2.42 2.42 0 0 1 .37-1.17 5.86 5.86 0 0 1 1.42-1.68 3.52 3.52 0 0 1 .46-.28c.55-.3.8-.25 1.27.2.19-.12.29-.41.61-.39a1 1 0 0 1 .12 1.08c-.28.52-.58 1-.86 1.55a5.92 5.92 0 0 0-.32.77 2.87 2.87 0 0 0-.07.5.62.62 0 0 0 .76-.08 1.18 1.18 0 0 0 .48-.72 6.85 6.85 0 0 1 1-2.3c.1-.13.16-.29.25-.42a2.66 2.66 0 0 1 .28-.38c.29 0 .42.2.41.44a1.83 1.83 0 0 1-.1.62c-.13.35-.31.68-.47 1s-.34.74-.48 1.13a.71.71 0 0 0 0 .74 1.25 1.25 0 0 0 .34-.12 4.54 4.54 0 0 0 .61-.63 9.37 9.37 0 0 0 1-1.82c.21-.46.47-.89.72-1.33a.91.91 0 0 1 .17-.17c.22.19.22.19.37.56a33.11 33.11 0 0 1-1.58 3.57 2.32 2.32 0 0 0 1.06-.67c.28-.3.54-.6.83-.92a.32.32 0 0 1 0 .51 8.5 8.5 0 0 1-.83 1 3.74 3.74 0 0 1-.94.62 1.11 1.11 0 0 0-.6.66c-.27.69-.56 1.36-.85 2a2.07 2.07 0 0 1-.85.93.54.54 0 0 1-.79-.1 1.49 1.49 0 0 1-.2-1.74 3.42 3.42 0 0 1 1.5-1.44l.65-.35c0-.16.09-.31.18-.6a1.16 1.16 0 0 1-1.7.16c-.91.57-1.36.56-2-.16zm7.88 27.34l-2.08-3.55c-.68-1.17-1.36-2.34-2.16-3.48a3.4 3.4 0 0 0-.07.46v1.22c0 .66.12 1.31.17 2s0 1 0 1.58 0 1.3.07 2a2.71 2.71 0 0 1-.55.12h-1.43a4.27 4.27 0 0 1-.54-.13 1.75 1.75 0 0 1-.14-.85c0-.48 0-1-.07-1.43v-2.11c0-.29-.07-.58-.09-.87a1.1 1.1 0 0 1 0-.44 4.84 4.84 0 0 0 .06-1.52V86.5c0-.53 0-1-.05-1.62a1.22 1.22 0 0 1 .37-.16c.72 0 1.44-.06 2.16-.09a.36.36 0 0 1 .15 0l.42.66.6.89c.06.08.09.18.15.26l1.17 1.87c.3.57.6 1.13.89 1.7.18.34.35.7.53 1a1.2 1.2 0 0 0 .19.21c0-.06.07-.08.07-.11V89c0-1 0-2-.08-3v-.79-.71a1.59 1.59 0 0 1 .42-.14h2a4.24 4.24 0 0 1 .15 1.41A7.82 7.82 0 0 0 96 87c0 .56.08 1.11.11 1.67 0 1 .07 2.09.11 3.13a22.54 22.54 0 0 0 .16 2.6c.07.5 0 1 .06 1.5a4.81 4.81 0 0 1-2.71.01zm20-4.77a2.87 2.87 0 0 1-1 .29c-.2.54-.37 1-.59 1.54a3.27 3.27 0 0 1-.56.86 4.94 4.94 0 0 1-1.92 1.32c-.4.14-.79.32-1.19.46a1.78 1.78 0 0 1-.52.11c-.57 0-1.14 0-1.72.06a3.44 3.44 0 0 1-2.5-.81c-.45-.39-.89-.79-1.35-1.16a2.54 2.54 0 0 1-.7-.93 6.52 6.52 0 0 1-.69-1.83 5.49 5.49 0 0 1 0-1.46 14.21 14.21 0 0 1 .19-1.46 7 7 0 0 1 1.19-2.46 3.26 3.26 0 0 1 1.32-1c.28-.14.52-.34.79-.49a7.75 7.75 0 0 1 .89-.39 5.17 5.17 0 0 1 .68-.16 4.59 4.59 0 0 1 2.69.22 12.23 12.23 0 0 0 1.16.4 2.83 2.83 0 0 1 1.88 1.54c.23.47.43 1 .67 1.48-.17.09-.26.18-.37.19a18.68 18.68 0 0 1-2.62.19c-.08-.17-.17-.33-.23-.49a1.6 1.6 0 0 0-1.28-1 2.54 2.54 0 0 0-.54.14l-.11-.34a1.17 1.17 0 0 0-.27 0 4.71 4.71 0 0 0-1.81.36 1.58 1.58 0 0 0-.8.83c-.16.45-.36.88-.49 1.34a5.11 5.11 0 0 0 .11 3 1.28 1.28 0 0 0 .31.48A5.4 5.4 0 0 0 106 93a3.19 3.19 0 0 0 2.17.15 2.34 2.34 0 0 0 1.4-1.15c.11-.2.2-.41.33-.67a12.6 12.6 0 0 0-2 0c-.31-.66 0-1.3 0-1.94a1.63 1.63 0 0 1 .22-.07 29 29 0 0 0 3.73-.15h1.38c.46 0 .44.1.52.45a9.41 9.41 0 0 1 .01 1.52z"/>
    <path class="cls-3" d="M25.57 88.45l-.27-.2v-.06l.27.2zM26.27 89l-.17-.14.17.11zM26.67 86.53l-.25-.21.25.21zM88.4 118.22v-.35.35zM27.31 117.09a3.79 3.79 0 0 1 .31.39l1.48-1.38a50.48 50.48 0 0 0-3.73-3.83 2.29 2.29 0 0 0 0 .25c0 .75.06 1.5.08 2.26a.86.86 0 0 0 .28.65c.52.57 1.05 1.1 1.58 1.66z"/>
    <path class="cls-2" d="M28.81 120.36a2.39 2.39 0 0 0 1.13-.14l-.47-.49a2.62 2.62 0 0 0-.66.63z"/>
    <path class="cls-1" d="M137 116.87h-1.08v-.85c-.05-1.87-.09-3.74-.15-5.61 0-1.15-.12-2.3-.15-3.44q-.33-10.19-.65-20.37c-.18-5.51-.34-11-.51-16.53v-.74c-.11-1.6-.25-3.2-.32-4.81-.23-5.37-.43-10.75-.64-16.13v-.49a.44.44 0 0 0-.45-.48 3.25 3.25 0 0 0-.54 0l-15.74.52-20.27.69c-1.31 0-2.62.13-3.93.2a.78.78 0 0 1-.34 0 1.93 1.93 0 0 0-.92-.1c-4.93.18-9.86.37-14.8.54L52.64 50l-23.27.78c-2.07.07-4.13.16-6.2.25-.65 0-.79.2-.78.85 0 1.72.08 3.45.13 5.17q.18 6.31.38 12.64c.11 3.58.23 7.15.35 10.73v.77a4.79 4.79 0 0 1 .08.5q.11 3 .2 6a2.56 2.56 0 0 1 0 .38 2.58 2.58 0 0 1 0 .29 1.24 1.24 0 0 1 0 .18 1 1 0 0 1 0 .24c0 .55 0 1.12.06 1.69a4.38 4.38 0 0 1 0 .51 2.64 2.64 0 0 1 0 .29v.21a1 1 0 0 1 0 .25c0 .51 0 1 .05 1.55 0 1 .07 2 .1 3a1.73 1.73 0 0 1-.05.31 2.62 2.62 0 0 1 0 .28h.06a20.42 20.42 0 0 1 .09 2.21c0 1.55.19 3.14.17 4.7v.78h.05c0 1 .06 2 .1 2.95v.82a3.08 3.08 0 0 1 .06.61v1.32a5.42 5.42 0 0 1 0 .57l.05.05c.05.05 0 .37 0 .56.09 2.94.19 5.87.29 8.81v.49a.57.57 0 0 0 .58.55H26.41c.52 0 1-.07 1.57-.09h6.03l.1.06h.43a.88.88 0 0 1 .37-.09h.08l1.8-.06a.27.27 0 0 1 .14 0h.44a4 4 0 0 1 1.39-.06h.51c.3 0 .6-.06.91-.07l8.81-.31 7.62-.25a1 1 0 0 1 .44 0h.56l4.46-.15a3.43 3.43 0 0 1 .56 0 1.61 1.61 0 0 1 .44 0c2.16 0 4.32-.12 6.49-.16 1.93 0 3.87-.05 5.81-.1 3-.09 6-.2 9-.31a2.29 2.29 0 0 0 1.14-.25.61.61 0 0 1 .28-.06c1 0 1.9-.08 2.85-.1 1.3 0 2.59 0 3.89-.06l38.82-1.23 4.92-.17a5.2 5.2 0 0 0 .78-.1c.28-.06.43-.21.44-.4s-.18-.41-.49-.46zm-111.65-4.35a2.29 2.29 0 0 1 0-.25 50.48 50.48 0 0 1 3.73 3.83l-1.48 1.38a3.79 3.79 0 0 0-.31-.39c-.53-.56-1.06-1.12-1.6-1.66a.86.86 0 0 1-.28-.65c0-.78-.03-1.51-.06-2.26zm.15 4.48v-1.24a12.3 12.3 0 0 1 1.95 1.95l-1.77 1.76a5.41 5.41 0 0 1-.09-1.24c-.07-.41-.07-.82-.09-1.23zm2.66 3.46h-2.5l-.06-.46c.77-.6 1.3-1.41 2.08-2.06l1.55 1.56a9.11 9.11 0 0 1-1.07.96zm-.23-2.82a16.81 16.81 0 0 1 1.41-1.38l1.59 1.63a5.64 5.64 0 0 1-1.4 1.31 8.4 8.4 0 0 1-1.6-1.56zm2.52 2.6l-.76-.75 1.37-1.32a11.48 11.48 0 0 1 1.94 1.91 8.07 8.07 0 0 1-2.55.16zm104.34-3.41h-.61c-2.57.09-5.15.17-7.72.27l-4 .17-30 1c-2 .07-4.09.16-6.14.25a1.42 1.42 0 0 1-.81-.12.84.84 0 0 0-.39-.06h-2c-2.35.07-4.69.14-7 .24-2 .08-4 .2-6 .3-.46 0-.92.07-1.38.1a2.76 2.76 0 0 1-.38 0 7.79 7.79 0 0 1 .66-1.21c.22-.42.47-.83.7-1.24l.66-1.21c.22-.41.44-.81.67-1.21s.47-.82.7-1.24a11.48 11.48 0 0 0 .6-1.22c-1.69 2.33-2.89 4.94-4.44 7.38h-1.77a27.18 27.18 0 0 0 3.12-5.33 2.05 2.05 0 0 0-.2.23c-.42.71-.82 1.42-1.26 2.11s-1.08 1.61-1.63 2.4c-.14.2-.31.38-.47.58l-2.06.07c.08-.16.13-.29.2-.41l1.59-2.72.2-.42h-.09l-2.27 3.61-3.18.11c-.06-.18.1-.27.18-.37.79-1.09 1.59-2.17 2.39-3.26a1.55 1.55 0 0 0 .24-.46c-1.2 1.29-2.19 2.75-3.3 4.11h-.93c.08-.14.13-.24.19-.33.27-.37.55-.73.81-1.11a3.5 3.5 0 0 0 .24-.42c-.15.15-.31.28-.45.44l-1.19 1.45-2.32.07a7.26 7.26 0 0 1 .79-.86c.24-.32.49-.62.73-.93l.72-1 .68-1c.23-.32.46-.64.68-1a2.88 2.88 0 0 0 .57-1 1.45 1.45 0 0 0-.23.19l-1.16 1.53c-.63.88-1.24 1.78-1.89 2.64a15.54 15.54 0 0 1-1.08 1.21.68.68 0 0 1-.52.23l-6.25.2h-.11c-.07-.17.07-.27.15-.37.59-.73 1.17-1.46 1.77-2.18.34-.42.7-.82 1.05-1.23a1.19 1.19 0 0 0 .22-.38 19.6 19.6 0 0 0-3.63 4.18l-2.13.07a.91.91 0 0 1 .28-.45c.86-1 1.72-1.94 2.57-2.92.68-.78 1.34-1.57 2-2.36a1.57 1.57 0 0 0 .36-.61c-.7.64-1.29 1.38-1.92 2.08s-1.29 1.4-1.92 2.11-1.26 1.43-1.9 2.17l-1.71.06a.86.86 0 0 1 .26-.48c.49-.59 1-1.18 1.48-1.78a1.41 1.41 0 0 0 .27-.44 21.88 21.88 0 0 0-2.47 2.71l-3.1.1a6.9 6.9 0 0 1 .91-1.06c.32-.36.65-.7 1-1.06l.91-1-.06-.06h-.05L40 120h-1.9c.58-.85 1.21-1.55 1.74-2.31l-.07-.06-2 2.38-2.18.07a1.07 1.07 0 0 1 .34-.54l2.45-2.7a3.56 3.56 0 0 0 .45-.56 7.51 7.51 0 0 0-1.28 1.17c-.42.42-.83.85-1.22 1.29s-.77.89-1.17 1.35l-1.4.05-2.25-2.31.2-.37-.39.16-1.67-1.62c.09-.14.18-.26.26-.39l-.41.21c-1.38-1.39-2.75-2.79-4.11-4.17 0-.67-.05-1.3-.07-2a2.88 2.88 0 0 1 .34.27l7.17 7.08.81.79a.75.75 0 0 0 .35.2.63.63 0 0 0-.12-.23c-.3-.35-.6-.69-.92-1-2.13-2.27-4.38-4.42-6.64-6.57l-1-1c0-.55 0-1.07-.05-1.62.21 0 .31.22.43.33q3.15 3 6.31 6.08c.25.24.51.47.77.69a.67.67 0 0 0 .47.22 16.07 16.07 0 0 0-1.3-1.31l-1.32-1.25-1.4-1.33-1.36-1.29-1.32-1.25-1.34-1.3c0-.51 0-1-.05-1.49.16-.08.24.06.32.13.77.68 1.54 1.34 2.29 2l3.58 3.37a10.42 10.42 0 0 0 1.3 1.07 1.15 1.15 0 0 0-.14-.19c-1.34-1.3-2.67-2.61-4-3.89-1-.93-2-1.81-3.06-2.71a2.89 2.89 0 0 0-.28-.21v-.94c.16.15.28.25.4.35 1.82 1.75 3.68 3.46 5.65 5 .31.25.63.48 1 .71a.47.47 0 0 0 .17.07 1 1 0 0 0-.36-.42c-1-.93-2.1-1.84-3.13-2.78s-2.22-2-3.33-3.06l-.36-.35c0-.82-.06-1.64-.09-2.48.24 0 .35.18.49.3 2 1.76 3.94 3.51 5.88 5.3 1.55 1.42 3.05 2.88 4.58 4.32.28.26.58.48.94.77a.63.63 0 0 0-.29-.5l-2.31-2.28c-2.91-2.87-5.9-5.66-9.06-8.25l-.34-.1c0-.56 0-1.05-.05-1.56.19 0 .27.14.37.23l8.9 8.57q.57.54 1.17 1a2.9 2.9 0 0 0 .69.44c-3.65-3.66-7.33-7.3-11.16-10.76v-.94c.17.12.29.19.4.28l3.11 2.58c.31.26.64.51 1 .82a.63.63 0 0 0-.3-.45c-1-.9-2.09-1.79-3.14-2.68-.37-.31-.74-.6-1.1-.89 0-1.19-.08-2.35-.12-3.55H25V94l-.28-.31-.03-1.69c.15.11.25.17.34.25l2.79 2.5.86.71.08-.07a3.88 3.88 0 0 0-.26-.31l-3.4-3.14-.44-.38c0-.68 0-1.33-.07-2a3.4 3.4 0 0 1 .31.2l2.1 1.72a6.86 6.86 0 0 0 .76.53c0-.2-.17-.3-.3-.41l-2.23-1.93-.65-.55v-1.39l.43.19-.45-.46c-.05-1.69-.11-3.38-.17-5.17l3 2.27a.56.56 0 0 0-.28-.41l-2.05-1.61-.71-.54q-.55-15-1.11-30.05a1.07 1.07 0 0 1 .21 0c1.26 0 2.52 0 3.79-.07l10.42-.35 10.24-.33 19.87-.68 21.64-.7c.66 0 1.32 0 2-.07a7.37 7.37 0 0 0 .82-.13h.34c2.18-.06 4.36-.09 6.54-.16l20.22-.68 12.79-.42h.59v.61l.21 7.14c.05 1.6.12 3.21.15 4.82 0 2.11.14 4.23.11 6.35 0 2.66.05 5.31.15 8q.27 7 .55 13.91l.33 9.35c.11 3.42.21 6.85.32 10.28.08 2.49.17 5 .25 7.48.02.08.02.28.01.53z"/>
    <path class="cls-1" d="M113.23 89.19h-1.38a29 29 0 0 1-3.73.15 1.63 1.63 0 0 0-.22.07c.06.64-.26 1.28 0 1.94a12.6 12.6 0 0 1 2 0c-.13.26-.22.47-.33.67a2.34 2.34 0 0 1-1.41 1.15A3.19 3.19 0 0 1 106 93a5.4 5.4 0 0 1-1.65-1 1.28 1.28 0 0 1-.31-.48 5.11 5.11 0 0 1-.11-3c.13-.46.33-.89.49-1.34a1.58 1.58 0 0 1 .8-.83A4.71 4.71 0 0 1 107 86a1.17 1.17 0 0 1 .27 0l.06.28a2.54 2.54 0 0 1 .54-.14 1.6 1.6 0 0 1 1.28 1c.06.16.15.32.23.49a18.68 18.68 0 0 0 2.62-.19c.11 0 .2-.1.37-.19-.24-.53-.44-1-.67-1.48a2.83 2.83 0 0 0-1.88-1.54 12.23 12.23 0 0 1-1.16-.4 4.59 4.59 0 0 0-2.69-.22 5.17 5.17 0 0 0-.68.16 7.75 7.75 0 0 0-.89.39c-.27.15-.51.35-.79.49a3.26 3.26 0 0 0-1.32 1 7 7 0 0 0-1.19 2.46 14.21 14.21 0 0 0-.19 1.46 5.49 5.49 0 0 0 0 1.46 6.52 6.52 0 0 0 .69 1.83 2.54 2.54 0 0 0 .7.93c.46.37.9.77 1.35 1.16a3.44 3.44 0 0 0 2.5.81c.58 0 1.15 0 1.72-.06a1.78 1.78 0 0 0 .52-.11c.4-.14.79-.32 1.19-.46a4.94 4.94 0 0 0 1.92-1.32 3.27 3.27 0 0 0 .56-.86c.22-.49.39-1 .59-1.54a2.87 2.87 0 0 0 1-.29 9.41 9.41 0 0 0 0-1.5c.02-.33-.07-.43-.42-.43zM96.22 91.77c0-1-.07-2.09-.11-3.13 0-.56-.09-1.11-.11-1.67a7.82 7.82 0 0 1 .06-1.08 4.24 4.24 0 0 0-.15-1.41h-2a1.59 1.59 0 0 0-.42.14v1.5c0 1 0 2 .08 3v2.11l-.07.11a1.2 1.2 0 0 1-.19-.21c-.18-.35-.35-.71-.53-1-.29-.57-.59-1.13-.89-1.7l-1.17-1.87c-.06-.08-.09-.18-.15-.26l-.6-.89-.42-.66a.36.36 0 0 0-.15 0c-.72 0-1.44 0-2.16.09a1.22 1.22 0 0 0-.37.16c0 .57 0 1.09.05 1.62v2.45a4.84 4.84 0 0 1-.06 1.52 1.1 1.1 0 0 0 0 .44c0 .29.08.58.09.87v2.11c0 .48.05 1 .07 1.43a1.75 1.75 0 0 0 .14.85 4.27 4.27 0 0 0 .54.13c.48 0 1 .06 1.43 0a2.71 2.71 0 0 0 .55-.12c0-.74 0-1.39-.07-2s0-1 0-1.58-.12-1.3-.17-2V89.5a3.4 3.4 0 0 1 .07-.46c.8 1.14 1.48 2.31 2.16 3.48l2.08 3.51a4.81 4.81 0 0 0 2.71 0c0-.49 0-1-.06-1.5a22.54 22.54 0 0 1-.18-2.76zM60.66 91.85a2 2 0 0 0 .3-.73 5.48 5.48 0 0 0 .16-1.94 3.65 3.65 0 0 0-.77-1.93c-.16-.18-.34-.35-.5-.54a2.82 2.82 0 0 0-2-.94 24.28 24.28 0 0 0-2.7-.06 5.77 5.77 0 0 0-.58.08 5.17 5.17 0 0 1-.68 0 4.58 4.58 0 0 0-1.73.22 4.75 4.75 0 0 0 0 .56c0 1.34.1 2.68.17 4 0 .67.13 1.34.1 2a30 30 0 0 1 0 3.28 4.32 4.32 0 0 0 .14 1.22c0 .26.13.32.4.33a13.86 13.86 0 0 0 2.03-.17l.12-.1a18.27 18.27 0 0 1 .06-3 2.92 2.92 0 0 1 1.1-.07c.75 1 1.14 2.15 1.86 3.12a17.35 17.35 0 0 1 2.98-.18c0-.35 0-.34-.58-1.22-.25-.36-.45-.76-.68-1.13a9 9 0 0 1-.65-1.16 3.48 3.48 0 0 0 .53-.4 13.3 13.3 0 0 0 .92-1.24zm-2.94-.54a.65.65 0 0 1-.5.36l-1.81.14a1.68 1.68 0 0 1-.29 0 21.34 21.34 0 0 1-.23-3.63c.15-.17.35-.14.52-.17a4.44 4.44 0 0 1 1.85 0 1.1 1.1 0 0 1 .92.9 3.06 3.06 0 0 1-.46 2.4zM71.66 85.3c-.18.63-.37 1.23-.54 1.84s-.36 1.23-.51 1.85-.24 1.29-.44 1.91-.23 1.24-.49 1.91a76.23 76.23 0 0 1-2.61-7.29.84.84 0 0 0-.7-.14 13.54 13.54 0 0 1-1.91.05 1.22 1.22 0 0 0-.33.1c.05.2.09.36.14.51l2 5.43c.3.79.6 1.59.92 2.38s.67 1.64 1 2.45a2.94 2.94 0 0 0 .25.41l2.7-.09a3.32 3.32 0 0 1 .08-.41c.27-1 .53-2 .83-3 .51-1.7 1-3.38 1.56-5.07.27-.84.55-1.68.81-2.53.05-.18.18-.39 0-.6a17.27 17.27 0 0 1-2.76.29z"/>
    <path class="cls-4" d="M71.26 66.3c.14-.25.11-.28-.2-.47a1.89 1.89 0 0 0-1.26 1.54 1.28 1.28 0 0 0 1-.34 4.05 4.05 0 0 0 .46-.73zM77 65.72a4.11 4.11 0 0 0-1.78 2.77 1.68 1.68 0 0 0 0 .45.44.44 0 0 0 .61-.22c.3-.55.6-1.09.92-1.63a6.24 6.24 0 0 0 .62-1.51 3.3 3.3 0 0 0-.37.14z"/>
    <path class="cls-1" d="M84.22 64.79a.51.51 0 0 0-.51.25c-.18.25-.36.51-.52.77a1.68 1.68 0 0 0-.25.83 3.25 3.25 0 0 1-.87 1.88.75.75 0 0 1-.66.34.5.5 0 0 1-.11-.6 6.61 6.61 0 0 1 .36-.76c.25-.48.52-1 .79-1.42a.9.9 0 0 0-.23-1.18 1.12 1.12 0 0 0-.22.16 7 7 0 0 0-.52.78c-.4.73-.77 1.48-1.17 2.22a3.91 3.91 0 0 1-.48.67.44.44 0 0 1-.54.17 1 1 0 0 1 0-.79c.33-.59.64-1.19 1-1.76a1.49 1.49 0 0 0 .16-1.09c0-.22-.1-.25-.41-.27a8.11 8.11 0 0 0-1.32 2.45 3.85 3.85 0 0 1-.7 1.29c-.23.31-.34.34-.77.2a1.7 1.7 0 0 1 .19-1c.2-.39.42-.78.62-1.17a6 6 0 0 0 .41-.89.8.8 0 0 0-.24-1l-.48.49c-.49-.49-.64-.51-1.27-.26A3.71 3.71 0 0 0 75 66.48a2.78 2.78 0 0 0-.63 1.42.5.5 0 0 1-.11.27 9.2 9.2 0 0 1-.67.72.49.49 0 0 1-.63.13.89.89 0 0 1-.14-.79 3.1 3.1 0 0 1 .19-.66c.32-.71.67-1.41 1-2.12a1.58 1.58 0 0 1 .14-.2c.36-.23.8 0 1.11-.35a1.5 1.5 0 0 0-.24-.31 1.58 1.58 0 0 0-.36-.2c.2-.94.19-1-.28-1.12l-.9 1.31c-.33.14-.64.09-.9.22.08.33.38.28.57.46-.12.24-.25.48-.37.73a6.55 6.55 0 0 0-.49 1.13 3.89 3.89 0 0 1-.8 1.5 1.19 1.19 0 0 1-.93.48 5 5 0 0 1-.79 0 1.36 1.36 0 0 1-.17-1.28l.89.2a.91.91 0 0 0 .7-.13 1.83 1.83 0 0 0 .79-1 1.3 1.3 0 0 0-.38-1.42 1.16 1.16 0 0 0-1.34 0 4 4 0 0 0-1.56 2 2.15 2.15 0 0 0 0 1.35 1.12 1.12 0 0 0 .78.81 2 2 0 0 0 1.49-.08c.38-.17.76-.36 1.16-.55a1.18 1.18 0 0 0 1.08.54c.49 0 .81-.29 1.18-.52a1.17 1.17 0 0 0 1.86 0c.09-.09.19-.16.31-.26.06.12.1.21.15.29a.79.79 0 0 0 .82.42 1.5 1.5 0 0 0 .77-.28l.32-.23a1 1 0 0 0 1.54 0c.11-.11.19-.26.38-.29a1.71 1.71 0 0 0 .07.21.71.71 0 0 0 1 .43 2.09 2.09 0 0 0 1-.78c.13-.19.26-.38.4-.56a8.66 8.66 0 0 0 1.23-2.4 1 1 0 0 0-.02-.78z"/>
    <path class="cls-3" d="M71.06 65.83c.31.19.34.22.2.47a4.05 4.05 0 0 1-.49.73 1.28 1.28 0 0 1-1 .34 1.89 1.89 0 0 1 1.29-1.54zM76.73 67.09c-.32.54-.62 1.08-.92 1.63a.44.44 0 0 1-.61.22 1.68 1.68 0 0 1 0-.45 4.11 4.11 0 0 1 1.8-2.77 3.3 3.3 0 0 1 .4-.14 6.24 6.24 0 0 1-.67 1.51z"/>
    <path class="cls-1" d="M81.5 88.77v-3.73c-.08 0-.1-.07-.13-.07h-2.6a3.15 3.15 0 0 0 0 .53 18.57 18.57 0 0 1 .13 2.69v1.47c0 .72.13 1.44.16 2.16V95.79a4 4 0 0 0 .1.54 5.18 5.18 0 0 0 2.78 0c-.08-1.24-.15-2.5-.23-3.75s-.18-2.58-.21-3.81zM47 93v-.88c-.09-1.24-.18-2.48-.28-3.72a1.21 1.21 0 0 1 0-.19v-1.58c0-.17 0-.34-.05-.56l-2.56.09a2.11 2.11 0 0 0-.07.54c.11 1.19 0 2.39.21 3.58v.34c0 1.13 0 2.26-.08 3.39a15.81 15.81 0 0 0 .13 2.84.94.94 0 0 0 .25.69h1.75a5.85 5.85 0 0 0 .59 0 2 2 0 0 0 .23-.09 4 4 0 0 0 0-.5c-.06-1.1-.13-2.19-.2-3.29.08-.3.08-.5.08-.66zM89.58 68.54c-.09.29-.13.44-.18.6l-.65.35a3.42 3.42 0 0 0-1.5 1.44 1.49 1.49 0 0 0 .2 1.74.54.54 0 0 0 .79.1 2.07 2.07 0 0 0 .85-.93c.29-.68.58-1.35.85-2a1.11 1.11 0 0 1 .6-.66 3.74 3.74 0 0 0 .94-.62 8.5 8.5 0 0 0 .83-1 .32.32 0 0 0 0-.51c-.29.32-.55.62-.83.92a2.32 2.32 0 0 1-1.11.74 33.11 33.11 0 0 0 1.58-3.57c-.15-.37-.15-.37-.37-.56a.91.91 0 0 0-.17.17c-.25.44-.51.87-.72 1.33a9.37 9.37 0 0 1-1 1.82 4.54 4.54 0 0 1-.61.63 1.25 1.25 0 0 1-.34.12.71.71 0 0 1 0-.74c.14-.39.31-.76.48-1.13s.34-.68.47-1a1.83 1.83 0 0 0 .1-.62c0-.24-.12-.39-.41-.44a2.66 2.66 0 0 0-.28.38c-.09.13-.15.29-.25.42a6.85 6.85 0 0 0-1 2.3 1.18 1.18 0 0 1-.48.72.62.62 0 0 1-.76.08 2.87 2.87 0 0 1 .07-.5 5.92 5.92 0 0 1 .32-.77c.28-.52.58-1 .86-1.55a1 1 0 0 0-.12-1.08c-.32 0-.42.27-.61.39-.47-.45-.72-.5-1.27-.2a3.52 3.52 0 0 0-.46.28 5.86 5.86 0 0 0-1.4 1.64 2.42 2.42 0 0 0-.37 1.17A1 1 0 0 0 85 69.1a2.52 2.52 0 0 0 .56-.3 3.4 3.4 0 0 0 .3-.23c.64.72 1.09.73 2 .13a1.16 1.16 0 0 0 1.72-.16z"/>
    <path class="cls-3" d="M88.21 72.09c-.27-.73.34-1.74 1.35-2.23a6.45 6.45 0 0 1-1.35 2.23zM85.3 68.37a.78.78 0 0 1-.57.37.46.46 0 0 1-.2-.5 5.34 5.34 0 0 1 .27-1.08 4.53 4.53 0 0 1 1.26-1.62 3.33 3.33 0 0 1 .49-.29.5.5 0 0 1 .12.58 7.55 7.55 0 0 1-1.37 2.54z"/>
    <path class="cls-1" d="M66.23 69.64a.91.91 0 0 0 .17-.09c.29-.22.57-.45.86-.65a1 1 0 0 0 .42-.84v-.46c.31 0 .62 0 .85-.19a.63.63 0 0 0-.71-.73 3.72 3.72 0 0 0-1.55.22 3.46 3.46 0 0 1-.67.13c-.17 0-.37 0-.48.17.07.44.28.66.69.69s.64 0 1 0c-.38.83-1.17 1.43-2 1a1.7 1.7 0 0 1-.17-.8 5.15 5.15 0 0 1 .48-2.15 4.75 4.75 0 0 1 1.46-1.81c.2-.16.41-.31.63-.46a1 1 0 0 1 .72-.2 1.1 1.1 0 0 1-.07.89 1.53 1.53 0 0 0 0 1.15.47.47 0 0 0 .44.34.33.33 0 0 0 .33-.25c.12-.41.24-.82.34-1.23a1.47 1.47 0 0 0-1.37-1.54 2 2 0 0 0-1.07.31 8.54 8.54 0 0 0-.88.71 13.59 13.59 0 0 0-1 1.14 5 5 0 0 0-1 3 1.84 1.84 0 0 0 2.58 1.65zM55.49 114.3h-.05a1.67 1.67 0 0 0-.28.25c-1 1.18-2 2.36-3 3.55a5.08 5.08 0 0 0-.42.61 1 1 0 0 0-.06.29c.09 0 .15 0 .18-.07l3.56-4.39a1.24 1.24 0 0 0 .07-.24zM56.53 115.24l-3.35 3.91v.11H53.35a.86.86 0 0 0 .14-.13c.81-1 1.63-1.93 2.42-2.9.24-.29.44-.62.66-.92zM28.34 97a.59.59 0 0 0 .14.06 3.32 3.32 0 0 0-.61-.72A27.76 27.76 0 0 0 25 94l-.05.06a.52.52 0 0 0 .1.11zM25 85l-.07.08.74.66.13-.14c-.14-.1-.28-.18-.41-.28zM25.3 88.25l.27.2v-.06l-.27-.2zM26.42 86.32l.25.21-.25-.21zM60 117.22l-.16.27.21-.24zM26.1 88.88l.17.14v-.08l-.17-.11z"/>
</svg>
