<svg id="Layer_1" data-name="Layer 1" xmlns="http://www.w3.org/2000/svg" viewBox="0 0 160 160">
    <defs>
        <style>
            .cls-1{fill:#d1442a}
        </style>
    </defs>
    <path class="cls-1" d="M76.71 60.78h-2a1.57 1.57 0 0 1-1.38-.62c-.23-.28-.49-.55-.75-.81s-.61-.57-.91-.87a2.08 2.08 0 0 1-.67-1.11 2.94 2.94 0 0 0-.41-.93 1.54 1.54 0 0 1-.19-.91 1.4 1.4 0 0 1 .89-1.29c.16-.08.34-.12.52-.19s.28-.22.13-.42c-.32-.43-.65-.84-1-1.25a6 6 0 0 1-1-1.68 3.12 3.12 0 0 1 .12-2.7 2.44 2.44 0 0 0 .14-.28c.07-.14 0-.26-.13-.29l-.31-.06c-.16 0-.33-.1-.29-.29a.51.51 0 0 1 .25-.36 1.24 1.24 0 0 1 1.33.2 1.83 1.83 0 0 1 .62 1.08 1.59 1.59 0 0 0 1.84 1.33.6.6 0 0 0 .59-.54 5.51 5.51 0 0 0 .06-.7c.09-1.13.2-2.26.27-3.39v-2c0-.24-.06-.48 0-.71a1 1 0 0 1 .88-1h.47a1.55 1.55 0 0 0 .58-.21 10.72 10.72 0 0 0 1.09-1 1.28 1.28 0 0 0 .18-1.2 8 8 0 0 1-.19-1.09 1 1 0 0 1 .7-1.12 1.2 1.2 0 0 0 .82-1.22 13.14 13.14 0 0 0 0-1.66 8.54 8.54 0 0 1 .35-2.81 3.54 3.54 0 0 1 .42-.93c.25-.42.43-.45.85-.23l.13.08c.63.37.71.42 1-.37a10.6 10.6 0 0 1 .8-1.62 5.24 5.24 0 0 1 1.11-1.33 1.73 1.73 0 0 0 .68-1.52 2.87 2.87 0 0 0-.19-1.39.85.85 0 0 1-.08-.39.91.91 0 0 0-.28-.7.4.4 0 0 1 .08-.67 2.24 2.24 0 0 1 .5-.22 1.06 1.06 0 0 0 .61-.58c.24-.56.48-1.11.76-1.65a2.2 2.2 0 0 0 .23-1.15 7.06 7.06 0 0 1 .14-1.89c.09-.41.07-.84.15-1.25a3.78 3.78 0 0 1 .33-1.05 1.45 1.45 0 0 1 2.35-.24 1.78 1.78 0 0 1 .45 1.15 1.76 1.76 0 0 0 .34 1 6.9 6.9 0 0 1 .92 2.75 1.82 1.82 0 0 0 .3.8 4.25 4.25 0 0 1 .73 1.72 3.73 3.73 0 0 0 .39.95 1.58 1.58 0 0 1 .22.82 2.43 2.43 0 0 0 .22.91 2 2 0 0 0 .55.74c.53.48 1 1 1.49 1.53s.85 1 1.33 1.46a1.57 1.57 0 0 1 .55 1.32 3.85 3.85 0 0 0 0 .48 1.3 1.3 0 0 1-.32.95 4.06 4.06 0 0 0-.5.79 4.61 4.61 0 0 1-.87 1.31 1 1 0 0 0-.24.39 3.14 3.14 0 0 1-1 1.39 6.68 6.68 0 0 1-1.89 1.27 1.4 1.4 0 0 1-.69.1 2.86 2.86 0 0 0-1.48.14l-2.06.5a.12.12 0 0 1-.08 0 .77.77 0 0 1-.26-.12s0-.16.07-.2a2.72 2.72 0 0 1 .65-.43c.81-.25 1.62-.47 2.44-.67a1.84 1.84 0 0 1 .7 0 1.15 1.15 0 0 0 .9-.19c.55-.42 1.1-.82 1.62-1.27a1.15 1.15 0 0 0 .4-.65A5.68 5.68 0 0 1 95 30.05a2.2 2.2 0 0 0 .39-1.48 1.18 1.18 0 0 0-.31-.71c-.6-.66-1.18-1.35-1.78-2a5 5 0 0 0-1-.89 2.07 2.07 0 0 1-1-1.7 5.34 5.34 0 0 0-.3-1.54c-.14-.36-.22-.75-.34-1.12a2.74 2.74 0 0 0-.66-1.18 1.06 1.06 0 0 1-.31-.86 5.06 5.06 0 0 0 0-.87 4 4 0 0 0-.23-.74.52.52 0 0 0-.41-.31c-.46-.1-.53-.2-.56-.63s0-1 0-1.58a.88.88 0 0 0-.57-.86c-.16-.07-.33-.08-.39.13a3.85 3.85 0 0 0-.31 1.21 8.16 8.16 0 0 1-.24 2.2 1.83 1.83 0 0 0 0 .47 4 4 0 0 1-.55 1.95c-.23.47-.46.95-.66 1.43a1.78 1.78 0 0 1-.54.85.63.63 0 0 0-.19.41 2.54 2.54 0 0 0 0 .87 8 8 0 0 1 0 2 2 2 0 0 1-.76 1.58 8 8 0 0 0-1.77 2.66 3.83 3.83 0 0 1-.32.71 2.33 2.33 0 0 0-.25 2.12c.1.39.15.77.22 1.16.11.7.26 1.39.43 2.08.13.53.38 1 .46 1.58a3.74 3.74 0 0 0 1.37 2.24c.39.35.83.65 1.24 1a4 4 0 0 1 1 1 1.5 1.5 0 0 1 .15 1.36c-.12.34-.29.67-.42 1s-.06.69.35.8a1 1 0 0 1 .72.77 5.41 5.41 0 0 0 .92 1.64 1.89 1.89 0 0 1 .27 2.07 2 2 0 0 0 0 1.47 5 5 0 0 0 1.35 2 6.67 6.67 0 0 1 .81 1c.22.31.11.53-.26.64h-.31a.22.22 0 0 0-.09.33 1.12 1.12 0 0 0 .82.43 8.7 8.7 0 0 0 1 0 6 6 0 0 1 .94 0 1.85 1.85 0 0 1 1.59 1.66 12.93 12.93 0 0 1 0 2 2.37 2.37 0 0 1-.39.93.7.7 0 0 1-.45.25c-.07 0-.19-.22-.25-.35s-.12-.18-.22-.08c-.26.26-.53.51-.77.79s-.16.47.1.69q1 .87 2.07 1.71a4.22 4.22 0 0 1 1.3 1.45 2.05 2.05 0 0 1 .22.83.85.85 0 0 0 .35.68 2.22 2.22 0 0 1 .68.94 3.21 3.21 0 0 0 .68 1.06 1.69 1.69 0 0 1 .28.38 1.1 1.1 0 0 1-.17 1.44c-.06.07-.24.07-.34 0a.45.45 0 0 0-.54.22l-.09.13c-.59 1-.63 1 .15 1.82l.65.69a4.22 4.22 0 0 1 .82 1.77.69.69 0 0 1 0 .47 3.57 3.57 0 0 1-1.6 2.18.6.6 0 0 0-.15.83c0 .07.18.08.27.11s.06-.14 0-.18c-.09-.25 0-.36.24-.39a3.46 3.46 0 0 1 .56 0h.71c.34 0 .62-.11.7-.5 0-.1.07-.23.14-.26a2.1 2.1 0 0 1 1.29-.28 2.06 2.06 0 0 0 2.2-.71.65.65 0 0 1 .83-.22 3 3 0 0 1 .45.14 1.45 1.45 0 0 0 1.69-.22 18.76 18.76 0 0 0 1.47-1.2 8.28 8.28 0 0 0 .81-.76c.22-.25.35-.6.61-.8a5.25 5.25 0 0 1 .87-.34 1.58 1.58 0 0 0 .55-.44 3.63 3.63 0 0 0 .72-1.89.75.75 0 0 0-.69-.9c-.28-.07-.56-.12-.84-.21a.48.48 0 0 0-.56.18 17.24 17.24 0 0 0-1.35 1.74 1.71 1.71 0 0 1-1.5.9h-.23a1.21 1.21 0 0 0-1.13.72 2.66 2.66 0 0 1-1.29 1.12 3.06 3.06 0 0 1-1.71.19 7.42 7.42 0 0 1-1.37-.34.28.28 0 0 1-.14-.24c0-.09.07-.23.14-.25a1.94 1.94 0 0 1 .54 0l1.57.14a1.56 1.56 0 0 0 1.55-.88 3.87 3.87 0 0 1 .21-.34 1.54 1.54 0 0 1 1.26-.7h.48a.92.92 0 0 0 .74-.4l.87-1.12c.06-.08.13-.16.19-.25.64-.9.57-.92-.1-1.58a9.51 9.51 0 0 0-1.07-.93 1.48 1.48 0 0 1-.52-1.95 8.68 8.68 0 0 0 .38-1.12 2.18 2.18 0 0 0 .06-.62.2.2 0 0 0-.3-.14 1.08 1.08 0 0 0-.3.34 1.24 1.24 0 0 1-.93.65c-.57.11-1.14.21-1.7.37a2.44 2.44 0 0 0-.83.43 3.53 3.53 0 0 1-1.68.64 1 1 0 0 1-.39 0 .25.25 0 0 1-.15-.15c0-.06 0-.18.06-.21a1.25 1.25 0 0 1 .41-.22 3.41 3.41 0 0 0 1.34-.65 4.73 4.73 0 0 1 1.85-.63c.21-.05.42-.06.62-.12a1.17 1.17 0 0 0 .76-.52 1.33 1.33 0 0 1 1-.63 1.63 1.63 0 0 0 .46-.11 2 2 0 0 1 1.23-.22 2.07 2.07 0 0 0 1.28-.33.47.47 0 0 0 .23-.67 8.5 8.5 0 0 1-.4-1.44 2.81 2.81 0 0 0-.83-1.4 8.15 8.15 0 0 1-.68-.77.41.41 0 0 1 0-.36c0-.06.19-.11.27-.09a1.87 1.87 0 0 1 .66.24 4 4 0 0 1 1.59 2.38 4.23 4.23 0 0 0 .38.77l.3.54c.15.25.06.41-.14.61a5 5 0 0 1-1.27.92A3 3 0 0 1 108 62c-.46 0-.47.07-.58.48-.17.61-.35 1.21-.52 1.81a2.42 2.42 0 0 0-.07.47.31.31 0 0 0 .24.36c.61.13.91.71 1.45.94.11 0 .17.25.23.39a1.32 1.32 0 0 0 1.09.81c.11 0 .3 0 .35-.09a5.69 5.69 0 0 1 1.8-1.4 1.3 1.3 0 0 0 .74-1.12 1.63 1.63 0 0 1 .4-.93 1.43 1.43 0 0 0 .28-1v-.95a1 1 0 0 1 .43-.89c.62-.49 1.22-1 1.84-1.49a.66.66 0 0 0 .3-.61 5.07 5.07 0 0 0-.14-.76 2 2 0 0 0-.28-.57 3.86 3.86 0 0 1-.53-2.73 1.89 1.89 0 0 1 1.07-1.38.7.7 0 0 1 .52.06.55.55 0 0 0 .59 0 1.67 1.67 0 0 0 .69-.84 4.34 4.34 0 0 0 .1-3.53 3.55 3.55 0 0 1-.2-2.09 1.07 1.07 0 0 0-.14-.9.75.75 0 0 1 0-.9 2 2 0 0 1 2.48-1c.25.08.48.21.73.3s.47 0 .5-.28a2.76 2.76 0 0 0-.13-1.48 1.91 1.91 0 0 1-.07-1.31 3.74 3.74 0 0 1 .73-1.64c.2-.24.31-.55.5-.81a.52.52 0 0 0-.07-.81.32.32 0 0 1 .09-.58 3 3 0 0 0 1.58-2.15c.27-1 .69-2 1-3a1.55 1.55 0 0 1 .51-.78 2.31 2.31 0 0 0 .85-1.88v-2.3a1.27 1.27 0 0 1 .51-1.24 2 2 0 0 0 .45-.63c.12-.18.2-.38.32-.55a1.25 1.25 0 0 1 1.79-.33c.53.4 1 .86 1.49 1.3a1.74 1.74 0 0 1 .27.38.33.33 0 0 1 0 .43.68.68 0 0 0-.15.5 12.84 12.84 0 0 1 .09 2.84 2.26 2.26 0 0 0 .36 1.27 2 2 0 0 0 .3.36 9 9 0 0 1 1.91 2.59 1.8 1.8 0 0 0 .52.58 1.18 1.18 0 0 1 .41.9 4.07 4.07 0 0 1-.45 2c-.18.42-.17.43.19.71a3.25 3.25 0 0 1 .5.4c.5.57 1 1.17 1.47 1.74a8.23 8.23 0 0 0 .83.84 1.22 1.22 0 0 1 .4 1.73c-.09.12-.11.3-.2.42a14.07 14.07 0 0 0-.8 2.13v.15c0 .94-.09 1.27 1.08 1.22h1.27a4.21 4.21 0 0 1 2.52.81.8.8 0 0 1 .36 1.2 1.75 1.75 0 0 0-.14.76 1.91 1.91 0 0 1-.89 1.66 8.35 8.35 0 0 0-.81.63.76.76 0 0 0 0 1.12A5.87 5.87 0 0 1 141 55c.14.25.23.53.35.79a2.28 2.28 0 0 0 1 1.13 2.59 2.59 0 0 1 .57.53c.27.29.52.59.77.9a4.53 4.53 0 0 1 .45.63c.21.37.36.77.56 1.14a.59.59 0 0 1 0 .59 3.23 3.23 0 0 1-1.51 1.74 1.47 1.47 0 0 0-.86 1.16.6.6 0 0 1-.06.23 1.5 1.5 0 0 0 .59 2.12 10.78 10.78 0 0 1 1.77 2.11 1.19 1.19 0 0 1 .25.56 2.89 2.89 0 0 0 .78 1.69 3.67 3.67 0 0 1 .7 1.48 7 7 0 0 0 .74 1.38 2.06 2.06 0 0 1 0 2.42 5 5 0 0 1-1.08 1.34.38.38 0 0 0-.05.57c.2.27.41.56.81.56a.88.88 0 0 1 .81.53c.53 1 1.07 2 1.58 3a1.42 1.42 0 0 1 .16.61 13.65 13.65 0 0 1 0 1.81 4.45 4.45 0 0 1-.42 1.43.78.78 0 0 0 .19 1c.4.38.81.75 1.23 1.1a1.45 1.45 0 0 1 .63 1.29V89c0 .31-.41.49-.18.88a2.67 2.67 0 0 1 .21.82c.12.54.31.67.87.64a2.52 2.52 0 0 1 .55 0c.1 0 .18.1.27.15a1.25 1.25 0 0 1-.16.24c-.08.06-.18.1-.27.16a.59.59 0 0 0-.34.65c.07.47.14.94.23 1.4a1 1 0 0 0 .23.41c.24.28.49.54.76.8a1.86 1.86 0 0 1 .7 1.44.63.63 0 0 0 .07.3 3.27 3.27 0 0 1 0 2.53 1.2 1.2 0 0 1-1.18.88 5.26 5.26 0 0 0-1.75.45 2.24 2.24 0 0 0-1 .63 3.53 3.53 0 0 1-2.6 1.15 13.35 13.35 0 0 0-3.25.57 6.9 6.9 0 0 1-1 .23 6.07 6.07 0 0 0-2.25.91 2.29 2.29 0 0 1-2.33 0c-.87-.43-.86-.41-.83.56s0 1.74 0 2.61c0 .35 0 .35.4.41h.23a.25.25 0 0 1 .15.38c-.28.48-.55 1-.86 1.42a1.11 1.11 0 0 1-.8.45 22 22 0 0 1-2.82.38 4 4 0 0 0-1.14.28v.18c.09.33.08.35-.2.43l-.44.11a1.71 1.71 0 0 0 .35.4 17.31 17.31 0 0 0 2.32 1.35 5.8 5.8 0 0 1 1.11.74c.17.13.43.27.31.58 0 0 .17.17.27.19a1.17 1.17 0 0 1 1 .91 1.39 1.39 0 0 1 0 .7 5.86 5.86 0 0 1-.33.88 3.6 3.6 0 0 1-2.61 2.08 9 9 0 0 0-2.32.95c-.27.17-.57.28-.85.42-.5.27-.55.49-.19.92s.65.75.95 1.15a.67.67 0 0 0 .83.27 5.49 5.49 0 0 0 .51-.21c.24-.11.47-.23.72-.32s.42 0 .47.15a.33.33 0 0 1-.19.39 6 6 0 0 0-.51.37.26.26 0 0 0 0 .46 5.43 5.43 0 0 0 2.2 1.34c.82.19 1.07.67.84 1.48a6 6 0 0 1-.37.87c-.1.23-.25.45-.07.73s0 .39-.13.57a4 4 0 0 1-1.8 1.22c-.21.07-.36.17-.29.39a1 1 0 0 1-.68 1.34 8.87 8.87 0 0 1-3.3 1.24 2.66 2.66 0 0 1-.63 0c-.5-.06-1-.13-1.49-.21a1.44 1.44 0 0 0-.83.2c-.48.21-1 .4-1.44.63a2.13 2.13 0 0 1-1.08.2h-1.42a3 3 0 0 0-1.24.22 2.39 2.39 0 0 1-.77.12h-.63a.33.33 0 0 0-.34.36v4.11a2.65 2.65 0 0 1-.07.63c-.18.83-.8 1.09-1.55 1.21a4.48 4.48 0 0 1-2.83-.46c-.52-.25-1-.54-1.54-.81a.58.58 0 0 1-.34-.58 7.55 7.55 0 0 0-.49-2.94 5.05 5.05 0 0 1-.11-.78v-.63c0-.38-.2-.51-.51-.34a2.83 2.83 0 0 1-1.31.22 4.39 4.39 0 0 1-1.67-.43 1.28 1.28 0 0 1-.35-.18 1.63 1.63 0 0 0-2 .21c-.19.14-.2.23 0 .36a3.85 3.85 0 0 1 1.28 1.38 4.45 4.45 0 0 1 .26.48.49.49 0 0 1-.19.61.38.38 0 0 1-.48-.15c-.2-.25-.37-.52-.54-.78a2.6 2.6 0 0 0-2.09-1.24 14.51 14.51 0 0 1-2.16-.44 8.31 8.31 0 0 1-2.23-.94c-.79-.44-.84-.55-.14-1.11a1.06 1.06 0 0 0 .46-.62.59.59 0 0 1 .41-.45 1.76 1.76 0 0 0 .77-.66c.47-.63.93-1.27 1.41-1.9a1 1 0 0 0 .15-1.11c-.17-.45-.17-.47.18-.75a.64.64 0 0 0 .25-.55 6.5 6.5 0 0 0-.12-.77c0-.16-.14-.3-.15-.45a1.34 1.34 0 0 0-1-1.25.69.69 0 0 1-.45-.4.26.26 0 0 1 .18-.37.58.58 0 0 1 .23 0 2.35 2.35 0 0 1 2.22 2.57l-.15 1.33a1.89 1.89 0 0 0 .83 1.67.82.82 0 0 0 .83 0 8.47 8.47 0 0 0 .87-.54 1.76 1.76 0 0 1 2.14 0c.39.26.81.5 1.21.74a.91.91 0 0 0 1 0c.28-.15.57-.28.84-.44a1.37 1.37 0 0 1 1.42-.07 10.66 10.66 0 0 0 1.17.48 1.37 1.37 0 0 0 1.58-.41 7.14 7.14 0 0 1 .7-.75 4.8 4.8 0 0 1 .85-.56.36.36 0 0 1 .34.08.37.37 0 0 1 0 .35c-.48.52-1 1-1.48 1.52a1.88 1.88 0 0 1-1.29.53 3.06 3.06 0 0 1-1.83-.38 1.2 1.2 0 0 0-1.46 0 2.58 2.58 0 0 1-1.82.35 2.48 2.48 0 0 1-1.09-.43c-.09-.06-.16-.14-.25-.2-.74-.56-1.06-.63-1.84-.1a6.5 6.5 0 0 1-1 .54 1.33 1.33 0 0 1-1.42-.15 2.48 2.48 0 0 1-.26-.19.35.35 0 0 0-.58.16 10.22 10.22 0 0 1-2.05 2.78c-.3.33-.66.6-1 .91-.07.07-.15.19-.13.25a.32.32 0 0 0 .24.16c.39.07.79.1 1.18.17a4.71 4.71 0 0 1 .92.2 2.94 2.94 0 0 0 1.94 0 4.9 4.9 0 0 0 2.23-1.14 1.3 1.3 0 0 1 .41-.24l1.16-.49c.21-.08.47-.33.62 0s-.21.38-.37.53a4.86 4.86 0 0 1-.53.35s-.05.08-.08.12l.14.08a10.43 10.43 0 0 0 1.08.48 7.27 7.27 0 0 0 1.23.26 1.54 1.54 0 0 0 1.08-.43 3.69 3.69 0 0 1 1.36-.78 1.71 1.71 0 0 1 .3-.09 5.45 5.45 0 0 0 1.59-.44 1.26 1.26 0 0 1 1.29.57.65.65 0 0 0 .6.31.65.65 0 0 1 .46.25 1.63 1.63 0 0 0 1.38.64 6.24 6.24 0 0 0 2.27-.2 4.18 4.18 0 0 1 1.33-.11c1.8 0 1.25.13 3-.73l1.28-.64a1.67 1.67 0 0 1 .44-.17c.31-.08.51.11.46.43a1.87 1.87 0 0 1-.07.22c-.05.14 0 .21.14.21a3.67 3.67 0 0 0 1.94-.19c.59-.29 1.22-.49 1.82-.75a4.72 4.72 0 0 0 .68-.41 1.08 1.08 0 0 0 .18-.24 1.2 1.2 0 0 0-.24-.15 1.85 1.85 0 0 0-.23 0c-.16 0-.35-.07-.32-.26a.61.61 0 0 1 .25-.37c.3-.17.62-.29.93-.43a.46.46 0 0 0 .33-.41 2.64 2.64 0 0 1 .56-1.28c.18-.3.38-.58.55-.87a.42.42 0 0 0-.25-.68 1.16 1.16 0 0 0-.31-.07 2.06 2.06 0 0 1-1.28-.56 2 2 0 0 0-1.63-.39.52.52 0 0 0-.23.05c-.47.38-1.09.54-1.48 1a1.83 1.83 0 0 1-2 .71.84.84 0 0 0-1 .44c-.15.25-.35.46-.51.7a3.47 3.47 0 0 1-2.06 1.38 2.24 2.24 0 0 1-1.09 0c-.83-.25-1.64-.58-2.45-.89-.06 0-.14-.13-.13-.17a.38.38 0 0 1 .18-.21 2 2 0 0 1 1.17.07l1.12.39a1.83 1.83 0 0 0 2-.4 6.08 6.08 0 0 0 .88-1c.71-1 .7-1.06 2-1h.4a.75.75 0 0 0 .74-.37 1.82 1.82 0 0 1 .9-.74c.89-.46.92-.6.36-1.43-.22-.32-.44-.65-.69-1a3.24 3.24 0 0 1-.62-1.08c-.16-.52-.45-.64-1-.47a8.78 8.78 0 0 0-1.32.51 2 2 0 0 1-1.6.1 2.71 2.71 0 0 0-2.29.16 10.75 10.75 0 0 1-2.36 1.09 18.69 18.69 0 0 1-2.75.67.88.88 0 0 1-.32 0 .17.17 0 0 1-.1-.1v-.14a3.74 3.74 0 0 1 .62-.34c.74-.25 1.52-.43 2.25-.74 1-.42 1.89-.92 2.82-1.42a1.19 1.19 0 0 1 1-.16c.45.13.92.21 1.38.32a1.61 1.61 0 0 0 1.08-.08 4.15 4.15 0 0 1 2.21-.49 1.48 1.48 0 0 0 .81-.27c.81-.43 1.64-.84 2.46-1.25a.48.48 0 0 1 .23 0 1.88 1.88 0 0 0 1.24-.44 1.78 1.78 0 0 1 .66-.22 1.13 1.13 0 0 0 .86-.63 8.15 8.15 0 0 0 .46-1c.18-.48.05-.75-.44-.92a5.27 5.27 0 0 1-1.34-.44c-.2-.13-.42-.22-.62-.35-.38-.23-.4-.35 0-.71.16-.15.08-.18 0-.26l-1.75-1.05-.28-.16a.42.42 0 0 0-.55.14c-.4.46-.82.88-1.23 1.33a3.14 3.14 0 0 1-1.38.89 3.66 3.66 0 0 1-2.24.24 1.48 1.48 0 0 0-1.45.37 4.66 4.66 0 0 0-1.58 1.8 2.42 2.42 0 0 1-.55.66 1.89 1.89 0 0 1-1.42.6 7.77 7.77 0 0 1-1.18 0 3.21 3.21 0 0 1-.86-.36c-.14-.08-.08-.34.08-.38a1.27 1.27 0 0 1 .39 0c.34 0 .68 0 1 .1a1.52 1.52 0 0 0 1.7-.86c.12-.21.19-.43.29-.65a1.27 1.27 0 0 1 .83-.78 1.67 1.67 0 0 0 .65-.41 2.32 2.32 0 0 1 2.11-.61 3.21 3.21 0 0 0 3-1 4.32 4.32 0 0 0 1-1.18.49.49 0 0 0-.06-.64 2.37 2.37 0 0 1-.48-1 10.24 10.24 0 0 0-.6-1.54 2.86 2.86 0 0 1-.24-1.15 1.35 1.35 0 0 1 .5-1.1A9.44 9.44 0 0 1 131 106c.45-.26.48-.38.26-.83a2.5 2.5 0 0 0-1.21-1.39 2.07 2.07 0 0 1-.9-1c-.26-.46-.52-.92-.79-1.37a.92.92 0 0 1 .08-1.11c.14-.19.33-.34.47-.53a.33.33 0 0 0-.07-.49l-.39-.26a3.3 3.3 0 0 1-1.36-1.89c-.16-.52-.26-1.07-.4-1.6-.09-.36-.21-.71-.32-1.06a.25.25 0 0 0-.38-.15 5.11 5.11 0 0 1-1.21.36.58.58 0 0 0-.47.83.89.89 0 0 1-.18 1.14 4.65 4.65 0 0 0-.71 1.11 8 8 0 0 1-1.63 2 1.06 1.06 0 0 1-.56.24 3 3 0 0 1-.79 0 1.29 1.29 0 0 0-1 .34 4 4 0 0 1-2.19 1 5.26 5.26 0 0 1-1.64-.15.9.9 0 0 1-.45-.3.44.44 0 0 1-.1-.35c0-.18.21-.23.38-.21a2.33 2.33 0 0 1 .38.08 5.36 5.36 0 0 0 .54.14 2.66 2.66 0 0 0 2.37-.58 1.29 1.29 0 0 0 .17-.16 1.39 1.39 0 0 1 1.6-.54.93.93 0 0 0 1-.34l.86-1a.62.62 0 0 0 .14-.19 2.54 2.54 0 0 1 .9-1.45c.1-.07.12-.28.13-.43a5.61 5.61 0 0 0 0-.71.87.87 0 0 1 .65-1l1-.34c.3-.11.4-.19.34-.52a1.14 1.14 0 0 1 .38-1.07 1.52 1.52 0 0 0 .38-1.67 3.54 3.54 0 0 1-.16-.85.87.87 0 0 0-.44-.71c-.36-.21-.73-.42-1.11-.61a.83.83 0 0 0-1.18.25c-.4.52-.76 1.08-1.14 1.61a1.43 1.43 0 0 0-.23.83 3.17 3.17 0 0 1-1 2.16 1.3 1.3 0 0 1-1 .43h-.71c-.51 0-.64.12-.79.59-.08.25-.2.49-.27.74a1.26 1.26 0 0 1-1.3 1 1.85 1.85 0 0 0-1.7.9 2.41 2.41 0 0 1-2.63.84 8.71 8.71 0 0 1-1.14-.31c-.08 0-.18-.15-.17-.22a.31.31 0 0 1 .18-.21 1 1 0 0 1 .39 0l1.1.14a1.56 1.56 0 0 0 1.73-.66c.06-.09.16-.15.21-.24a1.48 1.48 0 0 1 1.58-.79.93.93 0 0 0 1.1-.79c.06-.23.19-.44.24-.66.18-.74.38-.89 1.16-.81 1.24.12 1.61-.12 2.1-1.3a2.53 2.53 0 0 0 .24-1.07 1.43 1.43 0 0 1 .36-.94c.29-.38.58-.75.85-1.14a1.86 1.86 0 0 1 1-.9.34.34 0 0 0 .26-.43 1.61 1.61 0 0 0-.08-.38c-.32-1-.32-1-1.22-.51a1.75 1.75 0 0 1-1.06.26.74.74 0 0 0-.83.56 1.56 1.56 0 0 1-1.21 1 14.94 14.94 0 0 0-2 .74c-.24.09-.48.27-.74.07s.06-.36.49-.61a6.06 6.06 0 0 1 1.74-.73 1.42 1.42 0 0 0 1.07-.84 1.34 1.34 0 0 1 1.43-.89 2 2 0 0 0 1.25-.43.49.49 0 0 0 .21-.31 3.53 3.53 0 0 1 .87-1.57 3.22 3.22 0 0 0 .42-.57 1.15 1.15 0 0 0 .14-.67 6.06 6.06 0 0 0-.74-2.06 13.63 13.63 0 0 0-.78-1.28 3.58 3.58 0 0 0-.82-.73c-.34-.24-.73-.42-1.09-.64a2 2 0 0 1-1-1.1 4.48 4.48 0 0 0-.88-1.58 1 1 0 0 1-.28-1 .82.82 0 0 0-.29-.84c-.31-.29-.59-.61-.9-.9s-.46-.17-.56.11a2.45 2.45 0 0 0-.34 1.1 1.41 1.41 0 0 1-.7 1.33 3.8 3.8 0 0 0-.69.64 16.38 16.38 0 0 0-1 1.33 7.5 7.5 0 0 0-.33.7 7.94 7.94 0 0 0-.77 2.64 1.83 1.83 0 0 1-.7 1.27 5.7 5.7 0 0 1-.42.49.93.93 0 0 0-.46.94v.63a4.62 4.62 0 0 1-.87 2.89 2.46 2.46 0 0 0-.38 2 1.37 1.37 0 0 1-.49 1.4c-.28.24-.56.48-.82.74a2.67 2.67 0 0 0-.43.46.34.34 0 0 0 .06.55 8.12 8.12 0 0 0 .86.69c.29.19.6.34.89.52a1.32 1.32 0 0 0 1.29.06c.14-.07.29-.13.42-.21a.93.93 0 0 1 1.17.15 7.14 7.14 0 0 1 .54.56.83.83 0 0 0 1.25.2 6.14 6.14 0 0 0 .63-.48 5.68 5.68 0 0 1 .56-.44c.22-.14.37-.47.72-.32 0 .3-.19.48-.36.67a10.49 10.49 0 0 1-1 1 1.63 1.63 0 0 1-2.4-.18s-.09-.12-.14-.18c-.36-.42-.49-.55-1-.25a2.56 2.56 0 0 1-.83.23 1.63 1.63 0 0 1-1.34-.31c-.52-.4-1.09-.74-1.64-1.09a.43.43 0 0 0-.58 0c-.15.14-.33.27-.47.42a4.53 4.53 0 0 1-2 1.27l-.53.17c-.13 0-.18.12-.07.22.52.47.42 1.1.44 1.7a2 2 0 0 1-.06.47c-.08.6-.12.66-.71.75a2.4 2.4 0 0 0-1.65.83c-.16.19-.33.33-.6.14a.42.42 0 0 0-.51.12c-.37.37-.75.74-1.11 1.12-.19.2-.19.32 0 .54q.7.69 1.44 1.35c.53.47 1.09.91 1.61 1.39a2.83 2.83 0 0 1 .83 1.58.59.59 0 0 0 .41.52c.66.26 1.32.53 2 .78a.69.69 0 0 0 .31.06 3.83 3.83 0 0 1 2.37 1l.89.65c.12.09.28.2.32.34a1.31 1.31 0 0 0 1.31.84 15.16 15.16 0 0 0 3.23.19 2.61 2.61 0 0 1 .79 0 6.39 6.39 0 0 0 3 0 4.53 4.53 0 0 1 3.66.85s.11.16.09.19a.46.46 0 0 1-.23.18.37.37 0 0 1-.23 0c-.48-.12-1-.22-1.44-.38a2.57 2.57 0 0 0-1.64-.07 9.61 9.61 0 0 1-2.83.2.36.36 0 0 1-.15 0 10.18 10.18 0 0 0-3.43-.27 6.71 6.71 0 0 1-2.09-.37c-.43-.16-.84-.35-.91-.88 0-.38-.43-.44-.61-.69s-.48-.25-.78-.18a2.1 2.1 0 0 1-1.23-.22c-.79-.3-1.55-.65-2.32-1a2.87 2.87 0 0 0-.37-.15.27.27 0 0 0-.37.27 4.19 4.19 0 0 0 .11 1.18c.19.57.48 1.1.72 1.66a2.23 2.23 0 0 1 .19.51.45.45 0 0 1-.12.34.41.41 0 0 1-.36 0 1.92 1.92 0 0 1-.86-.9c-.21-.46-.4-.91-.59-1.38-.09-.24-.19-.44-.51-.34a.26.26 0 0 1-.15 0 1.32 1.32 0 0 0-1.56.65 8.19 8.19 0 0 1-1.69 1.53c-.76.56-1.54 1.09-2.26 1.71a8.29 8.29 0 0 1-3.16 1.74c-1.11.31-2.2.69-3.34.91a1 1 0 0 0-.55.28 2.13 2.13 0 0 1-1.48.63 3.49 3.49 0 0 1-.56 0 5.92 5.92 0 0 0-2.47.4 5.76 5.76 0 0 1-1.63.25h-1.27a1.26 1.26 0 0 1-.87-.33.31.31 0 0 1-.07-.27.35.35 0 0 1 .27-.1c.38.06.77.16 1.16.21a5.4 5.4 0 0 0 2.32-.38 11.67 11.67 0 0 1 2.41-.4c.45 0 .9-.09 1.34-.17a2.4 2.4 0 0 0 1-.45 3.76 3.76 0 0 1 1-.47c1-.31 1.92-.57 2.87-.89a6.35 6.35 0 0 0 2.25-1.3 27.68 27.68 0 0 1 2.52-1.9c.37-.27.81-.51.88-1.05a.2.2 0 0 1 .08-.13c.5-.23.75-.73 1.15-1.07a1.76 1.76 0 0 1 .88-.33 1.92 1.92 0 0 0 1.52-1.34 1.41 1.41 0 0 0-.33-1.4 6.81 6.81 0 0 0-1.19-1.15 17.8 17.8 0 0 1-2-1.7c-.33-.33-.52-.35-.76 0a4.68 4.68 0 0 1-1.9 1.53c-1 .54-2.06 1.15-3.11 1.69a6.74 6.74 0 0 1-1.26.45 21.8 21.8 0 0 1-4 .88c-.47.06-.76 0-.71-.26s.38-.3.63-.35c1.49-.33 3-.62 4.47-1a5.46 5.46 0 0 0 2.29-1.21 3.42 3.42 0 0 1 1.45-.91c.29-.07.53-.41.76-.66s.51-.67.78-1a2.56 2.56 0 0 1 1.18-1 .55.55 0 0 0 .38-.47.69.69 0 0 1 .48-.58c.57-.27 1.14-.56 1.73-.77a2.33 2.33 0 0 0 1.62-1.78c.06-.25.09-.48-.16-.63s-.46-.4-.78-.16a.59.59 0 0 1-.2.12c-.31.12-.52 0-.48-.37a.75.75 0 0 0-.53-.85c-.26-.12-.51-.28-.77-.39s-.43 0-.6.21-.14.29.11.34.3.11.3.31a.43.43 0 0 1-.41.42 2.87 2.87 0 0 1-1-.09 7.11 7.11 0 0 1-1.43-.66A19 19 0 0 1 94.38 91a4.91 4.91 0 0 1-.91-1.46 2.34 2.34 0 0 1 0-2.05 2.06 2.06 0 0 1 .4-.67 4 4 0 0 1 2.39-1.3 1.35 1.35 0 0 0 1.29-1c0-.13.1-.24.15-.37s.19-.32.14-.41-.31 0-.48 0h-.23a.3.3 0 0 1-.29-.37 4.24 4.24 0 0 1 .23-.59 4.68 4.68 0 0 1 .3-.64 1.65 1.65 0 0 0-.25-1.91 1.19 1.19 0 0 0-.87-.51 3.11 3.11 0 0 1-2.72-2.1c-.1-.25-.2-.28-.41-.1a2.2 2.2 0 0 1-1.92.5 2 2 0 0 0-1.44.27 3.31 3.31 0 0 1-1.51.44h-1.82a2.82 2.82 0 0 1-.69-.14s-.11-.09-.1-.1.08-.14.14-.16a1.74 1.74 0 0 1 .39-.05 11.8 11.8 0 0 0 2.51-.3 2 2 0 0 0 .8-.3 2.24 2.24 0 0 1 1.35-.36h.4c1.26 0 1 .1 1.91-.82a3.25 3.25 0 0 1 1.73-1 .94.94 0 0 0 .48-.23A1 1 0 0 1 96 75a1.58 1.58 0 0 0 1-2.47c-.16-.2-.34-.4-.51-.6s-.51-.6-.78-.89a5.89 5.89 0 0 0-.45-.42.39.39 0 0 1-.06-.62c.15-.15.32-.27.47-.42a2.44 2.44 0 0 0 .69-1.22 2.14 2.14 0 0 0-.73-2 .29.29 0 0 0-.28 0 3.11 3.11 0 0 0-.61.59 9.31 9.31 0 0 1-1.47 1.54 3 3 0 0 1-2.23.83A1 1 0 0 0 90 70a2.27 2.27 0 0 1-1.13 1.36 2 2 0 0 1-.83.22h-.63A1.8 1.8 0 0 0 86 72a2.87 2.87 0 0 1-2.7.43c-.07 0-.14-.14-.16-.22s.06-.16.12-.18a1.41 1.41 0 0 1 .53-.09 2.32 2.32 0 0 0 2-.65 1.87 1.87 0 0 1 1.59-.47c1.34.15 1.48-.17 2-1.2.08-.14.08-.31.15-.45a1.06 1.06 0 0 1 .94-.63h1a1.52 1.52 0 0 0 1-.33 14.71 14.71 0 0 0 1.76-1.57 3.32 3.32 0 0 0 .52-1.3 2.26 2.26 0 0 0 .06-.86 1.22 1.22 0 0 0-.24-.65 3.79 3.79 0 0 0-.79-.76 11 11 0 0 1-1.7-1.42c-.11-.11-.23-.21-.35-.31-.5-.39-.87-.27-1 .35a1.57 1.57 0 0 0 0 .23.82.82 0 0 1-.71.73 1.5 1.5 0 0 0-1.22 1 1.48 1.48 0 0 1-1.29 1 3.73 3.73 0 0 1-.47 0 1.49 1.49 0 0 0-1.23.61 4.42 4.42 0 0 1-1.62 1.22 8 8 0 0 1-2.49.73.6.6 0 0 1-.22-.06c0-.07.07-.19.14-.23.47-.23 1-.45 1.43-.66a5.49 5.49 0 0 0 2.32-1.6 1.64 1.64 0 0 1 1.38-.66h.47a.74.74 0 0 0 .65-.39c.09-.16.2-.31.29-.47a1.91 1.91 0 0 1 1-.91.85.85 0 0 0 .65-.8.88.88 0 0 1 .45-.71 10.89 10.89 0 0 0 2.5-2.29 2.12 2.12 0 0 1 .43-.35.89.89 0 0 0 .45-.86v-.71a1.07 1.07 0 0 0-1.16-1 2.42 2.42 0 0 0-.47 0 2.75 2.75 0 0 1-2.06-.31c-.34-.18-.44-.15-.67.13a.16.16 0 0 0 0 .07c-.12.21-.29.48-.51.41s-.24-.48-.16-.69c.26-.62.16-1.38.76-1.86a.39.39 0 0 0 0-.35 3 3 0 0 0-.38-.5c-.18-.23-.37-.44-.55-.67a2.47 2.47 0 0 1-.54-1.3 1.31 1.31 0 0 0-.38-1c-.08-.07-.08-.29 0-.43a2.78 2.78 0 0 1 .23-.5 1.3 1.3 0 0 0-.2-1.41 4 4 0 0 0-.45-.55 6.67 6.67 0 0 1-1.27-1.8 2.45 2.45 0 0 1-.25-1.91c.06-.28.13-.56.19-.85a1 1 0 0 0-.6-.99 4.38 4.38 0 0 0-1.67-1 1 1 0 0 1-.67-.63 10 10 0 0 1-1.25-3.39c0-.13-.07-.29 0-.39a.59.59 0 0 0-.14-.77 1.11 1.11 0 0 1-.25-.48c-.11-.49-.21-1-.29-1.47-.13-.76-.24-1.51-.36-2.27a1.8 1.8 0 0 0-.06-.22.21.21 0 0 0-.11-.1s-.11.05-.11.07c0 .58-.27 1.13-.11 1.72a.86.86 0 0 1 0 .32c-.14.72-.29 1.44-.43 2.16 0 .08 0 .16-.06.23-.12 1-.25 2-.37 3.06v.48c0 .16-.09.37-.32.39s-.22-.17-.3-.3-.32-.19-.41 0a.78.78 0 0 0-.06.37c0 .1.08.19.12.29a1.11 1.11 0 0 1-.31 1.3 13.71 13.71 0 0 1-1.07.93 1.93 1.93 0 0 1-1 .51c-.25 0-.34.21-.34.45a.87.87 0 0 0 0 .23 7.22 7.22 0 0 1 .31 1.79.21.21 0 0 0 0 .14 3.11 3.11 0 0 0 1.74 1.3 1.33 1.33 0 0 0 1-.15 6.8 6.8 0 0 1 .7-.38 2.57 2.57 0 0 1 .59-.2c.08 0 .19.06.25.13a.23.23 0 0 1 0 .21 3.41 3.41 0 0 1-1.93 1.16 2.16 2.16 0 0 1-2.26-.82c-.14-.17-.26-.45-.56-.37s-.26.41-.27.66a8.31 8.31 0 0 1-.23 1.64 6.57 6.57 0 0 0-.08 1.34 1.28 1.28 0 0 1-1.21 1.31 2.27 2.27 0 0 1-1.85-.52c-.13-.11-.24-.32-.46-.22s-.24.33-.27.54a2 2 0 0 0 .47 1.39 3.88 3.88 0 0 0 .4.49 8.78 8.78 0 0 1 1.51 2.48 1.09 1.09 0 0 1-.45 1.53c-.26.18-.54.34-.79.53s-.32.38-.09.66a10.48 10.48 0 0 1 .91 1.46 6 6 0 0 0 1.15 1.28 1.34 1.34 0 0 0 1 .26h2.69a9.63 9.63 0 0 1 1.39.24c.07 0 .11.1.17.15s-.13.17-.21.19a3.33 3.33 0 0 1-.63 0zm54.34-5.26h2a2 2 0 0 0 1.32-.46 3.13 3.13 0 0 1 1.33-.68 2.26 2.26 0 0 0 1.46-1.1c.38-.62.75-1.28 1.55-1.46a.53.53 0 0 0 .2-.13c.39-.26.77-.55 1.18-.8a1.73 1.73 0 0 0 .88-1.33c.12-.73.05-.91-.62-1.27a3.55 3.55 0 0 0-1.6-.38c-.66 0-1.32-.09-2-.13a1 1 0 0 1-.89-.67 2.44 2.44 0 0 1-.13-1.55 8.82 8.82 0 0 1 .71-2c.57-1.2.69-.91-.43-1.93a.37.37 0 0 0-.56 0 4.28 4.28 0 0 1-1.95 1 5 5 0 0 0-2.33 1.24 2 2 0 0 1-2.94-.18.33.33 0 0 1-.08-.27.36.36 0 0 1 .24-.17c.38-.11.66.12 1 .28.66.37.75.36 1.31-.16.15-.15.29-.3.46-.44a1.32 1.32 0 0 1 .46-.29 5.37 5.37 0 0 0 1.15-.51 2 2 0 0 1 .75-.19 2.24 2.24 0 0 0 1.47-.84.36.36 0 0 0 .09-.35c-.25-.44-.42-1-1-1.09a.68.68 0 0 1-.54-.29 1.4 1.4 0 0 1-.19-1.55c.07-.14.1-.31.18-.44a2.44 2.44 0 0 0 .26-1.45.61.61 0 0 0-.26-.54 1.82 1.82 0 0 1-.71-1 1.31 1.31 0 0 0-.76-.94c-.33-.13-.36-.14-.62.11a5.05 5.05 0 0 1-.8.74 3.74 3.74 0 0 0-.82.71 1.6 1.6 0 0 1-2.32.39.28.28 0 0 1-.13-.18.22.22 0 0 1 .16-.15 2.56 2.56 0 0 1 .62-.07 1.18 1.18 0 0 0 1.29-.7 1 1 0 0 1 .51-.46 1.12 1.12 0 0 0 .83-.76.46.46 0 0 1 .21-.23c.21-.15.15-.3 0-.47l-.39-.6a2.51 2.51 0 0 1-.39-1.81c.05-.31.05-.63.08-.94a7.84 7.84 0 0 0-.3-2.26 2.26 2.26 0 0 0-.81-1.4c-.39-.31-.66-.35-.93 0a3 3 0 0 0-.75 1.86v2.14a10.42 10.42 0 0 1-.41 1.84.9.9 0 0 1-.34.52 2.43 2.43 0 0 0-1 1.55c-.19.73-.56 1.42-.76 2.15a5.1 5.1 0 0 1-1.15 2.21.63.63 0 0 0-.1.8 2.84 2.84 0 0 0 .67.76.86.86 0 0 0 1.16 0c.27-.21.5-.47.75-.7a.86.86 0 0 1 1.33-.08c.31.25.61.5.9.77a1.36 1.36 0 0 0 1.68.2l.77-.41a1.19 1.19 0 0 1 .44-.14.38.38 0 0 1 .26.13s0 .15-.06.2a3.45 3.45 0 0 1-1.24.82 2.74 2.74 0 0 1-.74.22 2.06 2.06 0 0 1-1.85-.69c-1-.93-.86-.71-1.71 0a1.61 1.61 0 0 1-2.09.07l-.31-.25c-.25-.18-.45-.17-.59.07a17.35 17.35 0 0 0-.83 1.53 1.64 1.64 0 0 0 .11 1.79 1.62 1.62 0 0 1 .31 1 1.13 1.13 0 0 0 .89 1.23 3.86 3.86 0 0 1 1.92 1.32A4.22 4.22 0 0 0 128 48l.15.06c.39.16.59.37.48.51s-.47.19-.73.14-.6-.19-.91-.26a2.57 2.57 0 0 1-1.54-.88 8.28 8.28 0 0 0-3-2.13.93.93 0 0 0-.6-.1 2 2 0 0 1-1.66-.25 2.91 2.91 0 0 0-.51-.22.69.69 0 0 0-.83.29.44.44 0 0 0-.08.34 2.87 2.87 0 0 1 0 1.48 3.43 3.43 0 0 0 0 .78c0 .17.12.42.24.47.49.2.53.57.58 1a2.58 2.58 0 0 0 .38 1 1.88 1.88 0 0 0 1.31.94 2.3 2.3 0 0 0 1.69-.19 2.18 2.18 0 0 1 2.39 0l.14.07a1.77 1.77 0 0 0 1.6 0 2.06 2.06 0 0 1 1.9 0c.51.22 1 .38 1.56.56a1.53 1.53 0 0 0 1.61-.39 3.62 3.62 0 0 0 .92-1.17.62.62 0 0 1 .51-.43.51.51 0 0 1 .35.13c.05 0 .05.2 0 .29a5 5 0 0 1-1.07 1.54 2.67 2.67 0 0 1-2.54.75 9.6 9.6 0 0 1-1.72-.56 1.57 1.57 0 0 0-1.37 0 2.41 2.41 0 0 1-.76.18 2.61 2.61 0 0 1-1.81-.38 1 1 0 0 0-1.25 0 2.87 2.87 0 0 1-1.58.41 3.19 3.19 0 0 1-2-.5l-.13-.09c-.3-.13-.48 0-.58.31a7.31 7.31 0 0 1-.36 1.12c-.42.87-1 1.56-2.12 1.41-.49-.06-.67.14-.71.63a3.7 3.7 0 0 0 .49 2.34 3.13 3.13 0 0 1 .51 1.8 1.17 1.17 0 0 1-.7 1.13 2.61 2.61 0 0 0-1.05.81.93.93 0 0 1-.28.28c-.53.24-.59.69-.56 1.19v.32a1.71 1.71 0 0 1-.43 1.46.38.38 0 0 0-.08.5 10.91 10.91 0 0 1 .88 1.94 1 1 0 0 0 .76.63 2.74 2.74 0 0 0 2.12-.32c.56-.43.89-.31 1.3.3.29.44.57.89.84 1.33a1.31 1.31 0 0 0 .8.62 3.77 3.77 0 0 0 2.48-.1 2.23 2.23 0 0 1 .52-.15.25.25 0 0 1 .2.09.23.23 0 0 1 0 .21 2.1 2.1 0 0 1-1.36.72 4.31 4.31 0 0 1-2.55-.35 1.93 1.93 0 0 1-.65-.56 4.47 4.47 0 0 1-.42-.67c-.14-.22-.28-.44-.44-.65a.38.38 0 0 0-.55-.14 2.24 2.24 0 0 1-1.22.23h-1.19a1.31 1.31 0 0 1-1.3-1c-.1-.24-.21-.49-.33-.72a.32.32 0 0 0-.52-.13l-1.78 1.18a.4.4 0 0 0-.09.62 2.39 2.39 0 0 0 .23.22 1.53 1.53 0 0 1 .61 1.31 5.67 5.67 0 0 0 0 .71.59.59 0 0 1-.41.68c-.24.09-.52.21-.54.52a1.18 1.18 0 0 1-.59.88c-.47.35-1 .66-1.43 1s-.45.32 0 .66a5.57 5.57 0 0 1 .69.76c.3.36.58.74.9 1.1a1.85 1.85 0 0 0 1 .54c.38.08.5 0 .61-.4s.15-.53.7-.43a.59.59 0 0 0 .57-.15c.59-.6 1.2-1.19 1.78-1.8a2.41 2.41 0 0 0 .76-1.77.93.93 0 0 1 1.13-1 3.38 3.38 0 0 1 .6.17.64.64 0 0 1 .53.76 1 1 0 0 0 .46 1 4.83 4.83 0 0 1 1.8 3.47 1 1 0 0 0 .42.81 8.18 8.18 0 0 0 .94.58 8.34 8.34 0 0 1 2.11 1.52 2 2 0 0 1 .63 1.4 1.25 1.25 0 0 0 .08.62c.33.51.23 1.13.48 1.66a.82.82 0 0 1-.07.76 5.94 5.94 0 0 0-.6 1.53 1.57 1.57 0 0 0 0 1.07 2.37 2.37 0 0 1 .13.54 2 2 0 0 0 1.07 1.51c.28.15.57.28.84.44a1.12 1.12 0 0 1 .58.89v2a1.54 1.54 0 0 1-.19.83 1.45 1.45 0 0 0 0 1.44c.23.47.48.94.67 1.43a4.12 4.12 0 0 1 .5 1.63 1.77 1.77 0 0 0 .7 1.44c.23.21.5.38.75.58.52.43.57.78.18 1.37-.17.26-.38.49-.57.75s0 .33.16.31a.86.86 0 0 1 .74.19c.11.11.11.26 0 .31a1.57 1.57 0 0 1-.31.08c-.2 0-.29.14-.19.33a3.46 3.46 0 0 0 .41.66.52.52 0 0 0 .38.23 1 1 0 0 1 .88.44 1 1 0 0 0 .84.36h1.42a2.07 2.07 0 0 0 1.67-.54 1.49 1.49 0 0 1 1.77-.2c.59.29 1.21.53 1.79.84a1.13 1.13 0 0 0 1.19 0 12.37 12.37 0 0 1 3-1.14 24.32 24.32 0 0 1 3.87-.77 2.92 2.92 0 0 0 2.15-1 1.94 1.94 0 0 1 .83-.57 22.56 22.56 0 0 1 2.26-.68.74.74 0 0 0 .57-.49 2.68 2.68 0 0 0 .06-1.7 2.14 2.14 0 0 1-.16-.53 1.86 1.86 0 0 0-.53-1.2c-.25-.31-.48-.63-.75-.92a2.09 2.09 0 0 1-.71-1.19c-.05-.39-.33-.49-.71-.35a2.28 2.28 0 0 0-.51.21.77.77 0 0 0-.28.34c-.12.35-.2.71-.31 1.06a1.74 1.74 0 0 1-1.77 1.39 1.61 1.61 0 0 0-1.12.49 6.3 6.3 0 0 1-1.1.89 2.45 2.45 0 0 1-2 .34.85.85 0 0 1-.4-.33c-.08-.11.14-.22.49-.23a1.71 1.71 0 0 1 .32 0 2 2 0 0 0 1.44-.54c.22-.19.46-.36.66-.57a2.09 2.09 0 0 1 1.72-.81.76.76 0 0 0 .83-.51 1.91 1.91 0 0 0 .35-.87 2.07 2.07 0 0 1 .12-.61 1.63 1.63 0 0 1 .84-.91c.23-.13.47-.28.5-.57.06-.57.08-1.15.14-1.72a4.07 4.07 0 0 1 .11-.78 1 1 0 0 0 0-.45 2.31 2.31 0 0 0-1-1.53 3.19 3.19 0 0 1-1.19-1.53.85.85 0 0 1 .08-.89 2 2 0 0 0 .39-1.34v-1.5a2 2 0 0 0-.55-1.36 5.78 5.78 0 0 1-1.08-1.44 1.74 1.74 0 0 0-.3-.37c-.42-.46-.86-.92-1.27-1.4a.41.41 0 0 0-.56-.12c-.25.14-.5.29-.74.45a4.26 4.26 0 0 1-2.27.82 1.11 1.11 0 0 0-.78.31c-1 .94-2.24.93-3.45 1.14a.11.11 0 0 1-.08 0c-.06 0-.15-.08-.16-.13s.06-.14.12-.18a3.38 3.38 0 0 1 1.35-.42 3.22 3.22 0 0 0 1.83-.86 1.35 1.35 0 0 1 1.14-.42 2.31 2.31 0 0 0 1.29-.31l1-.52a4.72 4.72 0 0 0 1.56-1.32 8.18 8.18 0 0 1 .74-.82 1.25 1.25 0 0 0 .22-1.77c-.06-.11-.15-.22-.22-.33a4.09 4.09 0 0 1-.68-1.33 1.83 1.83 0 0 0-.23-.49c-.09-.15-.21-.14-.3 0s-.18.32-.26.49a2.1 2.1 0 0 1-1.66 1.27 1.08 1.08 0 0 0-1 1 3.05 3.05 0 0 1-.36 1 1.47 1.47 0 0 1-1.68.75c-.15 0-.3-.11-.45-.15a1.75 1.75 0 0 0-2.17.63 5.35 5.35 0 0 1-.66.78 2.81 2.81 0 0 1-2.39 1c-.71-.09-1.4-.23-2.1-.36a.08.08 0 0 1-.07 0c-.06-.08-.15-.16-.15-.24a.28.28 0 0 1 .17-.23 4.84 4.84 0 0 1 .85 0c.58 0 1.16.11 1.73.15a1.63 1.63 0 0 0 1.34-.57c.29-.31.56-.63.85-.94a5.9 5.9 0 0 1 .5-.5 1.9 1.9 0 0 1 2-.36 3.36 3.36 0 0 0 .85.15.7.7 0 0 0 .75-.46 9.27 9.27 0 0 0 .36-1 1.18 1.18 0 0 1 1.21-1 1.59 1.59 0 0 0 1.24-.73 4.17 4.17 0 0 0 .41-.85A1.1 1.1 0 0 0 144 70a2.28 2.28 0 0 1-.64-1.78.21.21 0 0 0-.05-.15 5.39 5.39 0 0 0-.94-1.25 7.11 7.11 0 0 1-.63-.6 1.76 1.76 0 0 1-.65-1.9c.07-.19-.07-.28-.29-.19l-.93.44a15 15 0 0 0-2.51 1.31 1.77 1.77 0 0 1-1.12.32 8.3 8.3 0 0 0-2.27.22 2.75 2.75 0 0 1-.86 0c-.06 0-.11-.09-.16-.15a.24.24 0 0 1 .1-.1 5.66 5.66 0 0 1 2.15-.48h.87a1.54 1.54 0 0 0 1.26-.56 1.46 1.46 0 0 1 .65-.4c.76-.3 1.51-.63 2.25-1a2.12 2.12 0 0 0 1-.86 3.21 3.21 0 0 1 1.77-1.49 1.26 1.26 0 0 0 .71-.61c.22-.4.09-.7-.38-.79a.53.53 0 0 1-.5-.51 4.07 4.07 0 0 0-1-1.83.34.34 0 0 0-.55 0 5.4 5.4 0 0 1-2.11 1.19 1.56 1.56 0 0 0-.43.31 3.69 3.69 0 0 1-.74.59 4.65 4.65 0 0 1-3.1.22c-.36-.09-.55-.27-.48-.42s.34-.23.55-.23h1.58a1.58 1.58 0 0 0 1.49-.72 1.15 1.15 0 0 1 .92-.54 3.92 3.92 0 0 0 1.71-.78c.2-.13.23-.3.09-.53s-.3-.67-.48-1a3.49 3.49 0 0 0-1-1.38 1.39 1.39 0 0 1-.53-.86c0-.15-.06-.31-.1-.46a.22.22 0 0 0-.38-.08 5.19 5.19 0 0 0-.58.75 3 3 0 0 1-1.81 1.3 2.75 2.75 0 0 0-.85.39 4.37 4.37 0 0 1-2.73.86h-2.04a2.93 2.93 0 0 1-1.56.49 4.9 4.9 0 0 1-1.57.11 2.56 2.56 0 0 0-1.94.46c-.3.2-.61.41-.89.64-.57.48-1.11 1-1.66 1.47a3.37 3.37 0 0 1-.38.28c-.11.06-.28-.07-.28-.2a1 1 0 0 1 .26-.64 11 11 0 0 1 2.5-2.16 3.45 3.45 0 0 1 2.24-.6c.63.05 1.27 0 1.9 0h.16l-.13-.06a.88.88 0 0 0-.16 0c-.17 0-.42 0-.37-.29 0-.09.24-.17.38-.2a2.53 2.53 0 0 1 .55 0zm-37 32.79a3.19 3.19 0 0 0 .16.77 4.84 4.84 0 0 0 1.23 1.62 1.42 1.42 0 0 0 1.16.36 5.36 5.36 0 0 1 2.72.3c.85.35 1.67.79 2.5 1.18a9.79 9.79 0 0 0 1 .4c.21.07.41.11.49.34s.2.21.31.1c.35-.35.82-.32 1.24-.45a2.7 2.7 0 0 0 2.18-2.13 1.15 1.15 0 0 1 .31-.61 3.25 3.25 0 0 1 .85-.57 1.31 1.31 0 0 0 .7-.71c.14-.34.26-.69.38-1a15.22 15.22 0 0 1 .75-2.15 2.83 2.83 0 0 0 .33-2.36.62.62 0 0 1 .08-.6c.39-.58.64-1.27 1.31-1.65a.79.79 0 0 0 .38-.73v-.87a3.59 3.59 0 0 1 .22-1.71c.17-.37 0-.57-.34-.76a1.18 1.18 0 0 0-.3-.1 5.57 5.57 0 0 1-1.48-.53 1.19 1.19 0 0 0-.6-.15 1.25 1.25 0 0 1-1.3-.82c-.14-.26-.25-.53-.39-.78a.39.39 0 0 0-.65-.15c-.29.19-.55.4-.83.61a2.66 2.66 0 0 1-2.44.55 1.07 1.07 0 0 0-1 .15 3 3 0 0 1-1.47.53 4.93 4.93 0 0 0-.93.18 2.87 2.87 0 0 0-.87.34 3.09 3.09 0 0 1-1.31.52 6.84 6.84 0 0 0-1.46.58c-.26.09-.27.29 0 .47a5.15 5.15 0 0 1 1.21 1.34 2.7 2.7 0 0 1 .17 2.77c-.17.33-.18.4.12.59a.63.63 0 0 1 .27.81 5 5 0 0 1-.24.75 2.44 2.44 0 0 1-1.34 1.37c-.4.14-.82.2-1.22.33a6.1 6.1 0 0 0-1.09.45 1.54 1.54 0 0 0-.76 1.42zm21.82 48.12a1.19 1.19 0 0 0 0-.19 2.32 2.32 0 0 1-.16-.36c-.07-.37-.28-.78.27-1 0 0 .07-.19.06-.28s-.09-.36-.1-.54a.39.39 0 0 1 .31-.47 3.12 3.12 0 0 0 .67-.23.56.56 0 0 0 .28-.74c0-.17-.19-.29-.35-.2a3.14 3.14 0 0 1-1.31.24 2.69 2.69 0 0 0-.61.14c-.37.15-.37.19-.3.64 0 .24 0 .47.06.71v1.58c0 .53 0 .46.46.6.17 0 .34.13.52.18s.21-.06.25-.08zm17.27-32.12v.08h-.71c-.24 0-.31.17-.22.32a1.48 1.48 0 0 1 .24.82.64.64 0 0 0 0 .23c.05.15.27.28.37.19a.4.4 0 0 0 .13-.32 4.36 4.36 0 0 0-.17-.51s.1-.14.13-.13a1.84 1.84 0 0 1 .36.15c.56.28.83.21 1.17-.33.09-.14.06-.28-.1-.31-.34-.1-.74-.14-1.15-.19zm-33.52-11.7c-.07 0-.18-.13-.27-.11-.25 0-.53.22-.71-.08a1.38 1.38 0 0 0-1.14-.57c-.08 0-.18 0-.27.07s.08.2.16.25c.54.33 1.07.65 1.63.94.34.18.58-.01.6-.5zM72.35 55.06a.87.87 0 0 0-.17-.09.55.55 0 0 0-.57.12c-.21.17-.29.5-.15.61s.34 0 .48-.12a2.45 2.45 0 0 0 .34-.31l.07-.21zm57.89 53.33a1.45 1.45 0 0 0 .3 1.13.67.67 0 0 0 .17.08.83.83 0 0 0 0-.15 2.91 2.91 0 0 0 0-.31c-.06-.34-.12-.67-.19-1a1.34 1.34 0 0 0-.13-.27.8.8 0 0 0-.13.24.94.94 0 0 0-.02.28zM95.65 78.62s.11-.1.1-.15a1.1 1.1 0 0 0-.82-.62s-.09.07-.08.1c.02.26.46.63.8.67zm36.54 28c0-.06 0-.12-.08-.13s-.11 0-.14 0-.23.16-.25.27.1.2.18.28.15 0 .17-.08a1.54 1.54 0 0 0 .12-.38zM78.33 36.85h-.07a.38.38 0 0 0-.23.56s.17.05.18 0a3.33 3.33 0 0 0 .21-.48s-.06-.04-.09-.08zm-7.51 11.74a4 4 0 0 0 0 .5s.16.1.18.08a.28.28 0 0 0 .1-.22 1.17 1.17 0 0 0-.14-.35s-.1.01-.14-.01zm43.23 27.48a.68.68 0 0 0 .15 0c.17-.11.35-.23.35-.47l-.41.31a.26.26 0 0 0-.14.09l.05.07zm21.82 27.81l.2.16a1.05 1.05 0 0 0 .15-.24s-.06-.12-.1-.18z"/>
    <path class="cls-1" d="M59 137.41a2 2 0 0 1 .11.2c.09.23 0 .39-.17.41a1.66 1.66 0 0 1-.63 0c-.55-.16-1.1-.35-1.64-.56a4.65 4.65 0 0 1-1.37-.92 19.87 19.87 0 0 0-1.65-1.36 1.54 1.54 0 0 1-.7-1.4 3.43 3.43 0 0 1 1-2.49 2.77 2.77 0 0 0 .87-1.48 2.49 2.49 0 0 1 .73-1.2c.23-.25.5-.47.75-.7a.6.6 0 0 0 .05-1 3.56 3.56 0 0 0-.66-.56 1.19 1.19 0 0 1-.53-1.16v-.47c0-.16.08-.45-.13-.59a1.18 1.18 0 0 0-.95-.28 1.08 1.08 0 0 0-.29.13 3.41 3.41 0 0 1-2.06.37 3.15 3.15 0 0 0-1.23.23c-.29.09-.33.28-.2.56s.23.41.34.62a.47.47 0 0 1 0 .59 3.18 3.18 0 0 1-1.73.87c-.06 0-.14-.07-.2-.1s.07-.19.14-.24.43-.2.63-.32a2.38 2.38 0 0 0 .51-.37.42.42 0 0 0 .06-.35c-.16-.39-.33-.77-.52-1.14a2.57 2.57 0 0 0-.28-.37h-.07c-1.13-.64-.88-.7-1.91-.15a2.17 2.17 0 0 1-1.14.28l-1.57-.11c-.71-.06-1.42-.12-2.13-.21a10.16 10.16 0 0 1-1.07-.22 2.6 2.6 0 0 0-.47-.09 1.64 1.64 0 0 1-1.1-.38.87.87 0 0 0-.88-.14 5.08 5.08 0 0 1-1.16.17 1.17 1.17 0 0 0-1 .51 3.07 3.07 0 0 1-.76.67 1.62 1.62 0 0 1-1.58.21c-.31-.12-.65-.2-1-.31a2 2 0 0 0-1.74.13 4.43 4.43 0 0 1-2.56.69 3.08 3.08 0 0 1-1.26-.42s-.06-.13-.06-.2.06-.1.1-.1a3.3 3.3 0 0 1 .63 0 3.73 3.73 0 0 0 3.15-.64 1.55 1.55 0 0 1 1.71-.17 7.92 7.92 0 0 0 .82.28 1.51 1.51 0 0 0 2-.56 4.93 4.93 0 0 1 .7-.74c.38-.3.41-.29.06-.63s-.86-.86-1.31-1.26a2.83 2.83 0 0 1-.76-1 .84.84 0 0 0-.63-.55.47.47 0 0 0-.56.17 2.44 2.44 0 0 1-1.3.85 5.15 5.15 0 0 1-3 .47.65.65 0 0 0-.69.28 2.63 2.63 0 0 1-.29.37 1.86 1.86 0 0 1-2.52 0 1.14 1.14 0 0 1-.18-.25c-.08-.14.06-.37.21-.32a3.28 3.28 0 0 1 .59.23c.72.34 1.13.32 1.58-.33a1.4 1.4 0 0 1 1.76-.62 1.88 1.88 0 0 0 .71 0 8.65 8.65 0 0 0 2.32-.76.86.86 0 0 0 .29-.25v-.18a3.43 3.43 0 0 0-.55-.06 1 1 0 0 1-.75-.39 6.86 6.86 0 0 1-.47-.63 1.91 1.91 0 0 1-.22-2c.25-.49.51-1 .8-1.45a1 1 0 0 1 .47-.39 1 1 0 0 0 .55-.54 19 19 0 0 1 1.67-2.77 1.33 1.33 0 0 0 .14-.19.29.29 0 0 0-.13-.46c-.29-.13-.59-.22-.87-.36a2 2 0 0 1-1.31-1.57 6.78 6.78 0 0 1 .09-1.49c0-.39.18-.77.21-1.17a1.81 1.81 0 0 1 .47-1.06c.22-.23.45-.44.65-.69a4.62 4.62 0 0 0 .45-.64.59.59 0 0 0-.09-.89.92.92 0 0 1-.15-1.1 5.18 5.18 0 0 1 .6-1.2 1.41 1.41 0 0 0 0-2.11 2.43 2.43 0 0 0-.26-.3c-.22-.23-.36-.25-.61-.06a2.41 2.41 0 0 0-.24.21A1.37 1.37 0 0 1 32 98a.56.56 0 0 0-.77.15 2.5 2.5 0 0 1-1.8.85 2.58 2.58 0 0 1-.48 0c-.47 0-.71.22-.92.59a9.34 9.34 0 0 1-.71 1.13 3 3 0 0 1-.73.59 1.64 1.64 0 0 1-1.59.12 9.94 9.94 0 0 1-1.27-.62.75.75 0 0 0-.95.06l-.27.17a3.41 3.41 0 0 1-3.1.33c-.47-.16-.95-.3-1.41-.48a1.4 1.4 0 0 1-.81-.6.26.26 0 0 1 0-.21.25.25 0 0 1 .21-.06.72.72 0 0 1 .28.13 8.13 8.13 0 0 0 2.52.88 1.78 1.78 0 0 0 1.32-.12c.32-.17.66-.33 1-.53a1.46 1.46 0 0 1 1.43-.1c.25.1.48.24.72.35a1.76 1.76 0 0 0 2.59-.84 4.18 4.18 0 0 0 .28-.56 1.5 1.5 0 0 1 1.28-.93 5.1 5.1 0 0 1 .79 0 1.18 1.18 0 0 0 1-.49 6 6 0 0 1 .48-.53.56.56 0 0 1 .71-.14 4.67 4.67 0 0 0 .51.23.67.67 0 0 0 .73-.15c.28-.25.31-.41.08-.73l-.23-.33a.51.51 0 0 1 0-.59c.22-.42.43-.84.67-1.25a1.14 1.14 0 0 0 .23-.73 2.68 2.68 0 0 1 .93-2.25c.15-.15.33-.27.47-.43a2.32 2.32 0 0 0 .43-.64A2.48 2.48 0 0 1 36.75 89c.21-.11.41-.23.61-.35a.74.74 0 0 0 .38-.66c0-.59 0-.88-.74-.94-.52 0-1-.19-1.55-.25a1.55 1.55 0 0 1-.85-.39c-.23-.22-.45-.45-.67-.67a1.42 1.42 0 0 1-.42-1.3 3.22 3.22 0 0 1 .14-.7 6.06 6.06 0 0 0 .35-1.51 3.45 3.45 0 0 1 .77-1.54c.15-.21.34-.4.48-.62a2.34 2.34 0 0 0 .3-.71 3.26 3.26 0 0 1 .77-1.62c.17-.2.39-.39.25-.69s-.5-.22-.87 0a6.53 6.53 0 0 0-2.41 2.23 8.28 8.28 0 0 1-1.21 1.55 6.25 6.25 0 0 1-1 .74c-.05 0-.19 0-.26-.09s0-.15 0-.21A1.16 1.16 0 0 1 31 81a7 7 0 0 0 1.46-2 4.51 4.51 0 0 1 1-1.23 6.63 6.63 0 0 1 2.46-1.68 1.2 1.2 0 0 0 .55-.42 3.19 3.19 0 0 1 1.69-1.36c.45-.14.63-.53.83-.9 0-.07 0-.27-.12-.33a7.32 7.32 0 0 0-3.55-1.42 1.9 1.9 0 0 0-.63 0c-.61.16-1.21.33-1.81.53a1.62 1.62 0 0 0-.59.38 2.39 2.39 0 0 1-1.62.73 1.32 1.32 0 0 0-.85.37 1.87 1.87 0 0 1-2 .24c-.06 0-.16-.13-.15-.15s.11-.2.18-.21a2.05 2.05 0 0 1 .55-.05 1.34 1.34 0 0 0 1.14-.45 1.49 1.49 0 0 1 1.27-.49 1 1 0 0 0 .78-.31 2.27 2.27 0 0 1 1.22-.69 3.8 3.8 0 0 0 .59-.23c.17-.07.27-.2.19-.37-.25-.55 0-1 .19-1.52A4.23 4.23 0 0 1 34 69a1.16 1.16 0 0 0 0-1.25 1.42 1.42 0 0 1-.11-1.36c.24-.63.15-.79-.41-1.19l-.31-.24a.66.66 0 0 0-.87 0 4 4 0 0 1-1.65.71.36.36 0 0 1-.23 0 .19.19 0 0 1-.07-.18.67.67 0 0 1 .21-.23c.51-.27 1-.53 1.55-.78.27-.13.36-.31.23-.56a.36.36 0 0 0-.54-.14c-.41.24-.81.5-1.23.71a.65.65 0 0 1-.52 0 .76.76 0 0 0-.81 0c-.39.17-.77.36-1.16.51-.63.26-1.27.51-1.91.74a1.64 1.64 0 0 1-.54.07h-3a.78.78 0 0 1-.72-.24.3.3 0 0 1-.05-.22.21.21 0 0 1 .15-.14 4.43 4.43 0 0 1 .63 0h2.06a6.78 6.78 0 0 0 2.76-.62 15.36 15.36 0 0 0 3-1.64c.57-.42 1.09-.91 1.62-1.38a.4.4 0 0 0 .07-.63 7.19 7.19 0 0 0-.76-.8c-.33-.3-.7-.56-1-.86a.44.44 0 0 1-.12-.35c0-.18.23-.21.39-.18a1 1 0 0 1 .37.12 6.2 6.2 0 0 1 2.22 2.1.59.59 0 0 1 0 .72 1.07 1.07 0 0 0 0 1.26c0 .1.13.18.14.28a1.84 1.84 0 0 0 1.12 1.44 1 1 0 0 1 .57 1.17v.08a5.81 5.81 0 0 0 0 2.42 2.49 2.49 0 0 1-.15 1c-.09.33-.27.63-.39 1s-.06.37.18.52a2.09 2.09 0 0 0 1.45.22c.05 0 .13-.16.12-.23a1 1 0 0 0-.15-.36 1 1 0 0 1 .09-1.18c.28-.38.52-.79.79-1.18a2.74 2.74 0 0 1 1-.88 13 13 0 0 0 1.42-.85l.34-.2a1.86 1.86 0 0 1 2.09.11 4.86 4.86 0 0 0 2.37.77c.6.07.88-.4 1.19-.78a.34.34 0 0 0-.08-.34c-.81-.65-1.32-1.57-2.08-2.26-.1-.09-.18-.22-.29-.27a3.9 3.9 0 0 1-1.31-1.11c-.49-.52-1-1-1.48-1.54a2.71 2.71 0 0 1-.83-1.78v-1a.87.87 0 0 1 .62-.91 2.87 2.87 0 0 1 1.94-.09c.62.23.84.17 1.17-.41a4.58 4.58 0 0 0 .69-2.63 1.31 1.31 0 0 0-.78-1.23 3.19 3.19 0 0 1-2.13-3.19v-1.18a6.21 6.21 0 0 0-.12-.85c0-.2-.12-.4-.18-.6-.15-.49-.08-.66.38-.85a3.29 3.29 0 0 1 1.46-.25 12 12 0 0 0 1.59-.09.51.51 0 0 0 .35-.14 7.7 7.7 0 0 0 .81-1.26 1.92 1.92 0 0 0-.1-1.32c-.07-.25-.17-.28-.42-.18l-.86.4h-.21c-.02 0-.09-.22 0-.28a.93.93 0 0 1 .3-.35 2.21 2.21 0 0 0 .88-1.7 3.16 3.16 0 0 1 .7-1.72 13.58 13.58 0 0 0 1.54-2.49.3.3 0 0 0 0-.2h-.21c-.2.15-.43.29-.61 0s0-.4.18-.55a5.13 5.13 0 0 1 .66-.56 1.66 1.66 0 0 0 .67-1.11 21.25 21.25 0 0 0 .35-3c0-.78.18-1.57.29-2.35a1.15 1.15 0 0 1 .12-.37c.15-.27.39-.41.66-.25a.72.72 0 0 0 .8-.06h.07a1.06 1.06 0 0 1 1.59.29 4.05 4.05 0 0 1 1 2 .66.66 0 0 1 0 .24c0 .22-.18.5-.11.67.27.58.22 1.25.62 1.78a2.62 2.62 0 0 1 .58 1.68 1 1 0 0 0 .17.52A4.63 4.63 0 0 0 55 36.8a1.2 1.2 0 0 1 .28.27c.22.3.42.42.79.2s.56-.06.71.27c.35.77.66 1.54 1 2.32.08.19.12.4.19.6a1.59 1.59 0 0 1 0 1.23 3 3 0 0 0-.19.6 1 1 0 0 0 .28.94 3.73 3.73 0 0 0 1 .8 1.61 1.61 0 0 1 1 1.64 9.77 9.77 0 0 0 .44 2.15c0 .26.13.51.18.77a1 1 0 0 0 .95.89 2.62 2.62 0 0 0 .79 0 .58.58 0 0 1 .66.3 1.41 1.41 0 0 0 .73.59 6.66 6.66 0 0 1 1.57 1.18 2.16 2.16 0 0 1 .42.57 5.2 5.2 0 0 0 1.49 1.71 2.55 2.55 0 0 1 1 1.72 2.22 2.22 0 0 0 .62 1.25c.37.38.76.73 1.15 1.09.17.16.36.3.53.46s.27.26.14.4a.61.61 0 0 1-.46.22 2.22 2.22 0 0 1-.76-.4c-.38-.32-.73-.68-1.09-1a4.93 4.93 0 0 0-.4-.39.38.38 0 0 0-.61.06 1.54 1.54 0 0 0-.4 1c0 .34-.07.69.26 1a.47.47 0 0 1 .09.36 8.45 8.45 0 0 1-.19.84c0 .15-.12.29-.15.45s0 .39.27.37.42.2.39.46a1.91 1.91 0 0 0 .38 1.28 7.77 7.77 0 0 0 2.36 2.17A12 12 0 0 1 73.68 68a4.7 4.7 0 0 0 .49.51 1.16 1.16 0 0 0 1 .37 2 2 0 0 1 1.47.44A5.3 5.3 0 0 0 78 70a1.88 1.88 0 0 0 1.24 0c.38-.12.75-.27 1.13-.39a1.4 1.4 0 0 1 .45-.1.36.36 0 0 1 .23.16s0 .17-.09.2c-.41.22-.83.45-1.26.65a3.37 3.37 0 0 1-3.36-.48 2.18 2.18 0 0 0-1.55-.45 1.54 1.54 0 0 1-.47 0c-.12 0-.28-.11-.37-.07s-.11.22-.18.33a1.51 1.51 0 0 1-.18.26.47.47 0 0 1-.7 0 .76.76 0 0 1-.18-.26c-.12-.53-.52-.74-1-.94a17.71 17.71 0 0 0-2.07-1c-.88-.26-1.75-.57-2.62-.87a.82.82 0 0 0-1 .32 3.38 3.38 0 0 0-.73 1.64 4 4 0 0 1-.29 1 .27.27 0 0 1-.25 0 1 1 0 0 1-.31-.7 2.86 2.86 0 0 1 .45-1.81 10 10 0 0 1 1-1.31 2.43 2.43 0 0 1 1.11-.61.37.37 0 0 1 .51.24 1 1 0 0 0 .73.66c.52.17 1 .34 1.56.53s.93.39 1.38.59c.2.08.38.2.57.28s.19 0 .29 0 0-.22-.09-.29a5.51 5.51 0 0 0-.75-.7c-.64-.41-1.31-.77-2-1.17a7.82 7.82 0 0 1-1.7-1.28 4.89 4.89 0 0 0-.39-.4c-.45-.44-.45-.42-1-.1A21.21 21.21 0 0 1 64 65.07a2.65 2.65 0 0 1-1.09.16 1.77 1.77 0 0 0-1.47.61 2.79 2.79 0 0 1-2 .91 1.62 1.62 0 0 0-1.29.61 2.51 2.51 0 0 1-2.15 1 1.85 1.85 0 0 1-.47-.08c-.59-.19-1.19-.4-1.78-.62a.36.36 0 0 1-.2-.29.4.4 0 0 1 .24-.25 1.49 1.49 0 0 1 1.07.2 3 3 0 0 0 1.21.32 1.47 1.47 0 0 0 1.3-.44 1.15 1.15 0 0 0 .22-.22 2 2 0 0 1 1.69-.87 2.57 2.57 0 0 0 1.92-1 1.09 1.09 0 0 1 1-.41c1.39.1 2.46-.67 3.58-1.3a.92.92 0 0 0 .48-1.07 5.86 5.86 0 0 1 0-2 2.3 2.3 0 0 0-.11-1 2.82 2.82 0 0 1 .62-2.87c.58-.68.63-.82.1-1.55a4.37 4.37 0 0 0-.89-.88 3.08 3.08 0 0 1-1-1.21 3.69 3.69 0 0 0-1.28-1.46c-.38-.29-.77-.56-1.13-.87a.9.9 0 0 0-.64-.24h-.71a1.87 1.87 0 0 1-1.87-1.7c-.17-1-.37-2-.55-3a1.12 1.12 0 0 0-.68-.91 4 4 0 0 1-1.45-1.42 1.13 1.13 0 0 1-.11-1.22 2.83 2.83 0 0 0-.15-2.65 1.05 1.05 0 0 0-.3-.36c-.3-.21-.61-.41-.93-.59s-.54-.07-.59.25a3 3 0 0 1-.3.89 1.79 1.79 0 0 1-1.25.89.8.8 0 0 1-.45-.06.31.31 0 0 1-.17-.23c0-.07.09-.21.16-.22a1.55 1.55 0 0 0 1.33-1.46.11.11 0 0 1 0-.08c.44-.56.19-1-.23-1.44a6.12 6.12 0 0 1-.41-.48 2.41 2.41 0 0 1-.66-1.65 1.87 1.87 0 0 0-.34-1.11 4.75 4.75 0 0 1-.61-1.86 8.58 8.58 0 0 0-.59-2.29 3.73 3.73 0 0 0-.37-.6.42.42 0 0 0-.57-.12 4.57 4.57 0 0 0-1 .93 1.71 1.71 0 0 0-.23 1 20.73 20.73 0 0 1-.4 3.69 8.84 8.84 0 0 1-1.35 3.5c-.4.62-.81 1.23-1.22 1.84-.07.11-.18.22-.19.33a4.14 4.14 0 0 0 .08 2.34 4.4 4.4 0 0 1 .18 2.1.65.65 0 0 1-.09.3c-.26.39-.53.78-.81 1.16a1.22 1.22 0 0 1-1 .51h-1.9c-.64 0-.73.23-.48.75a3.18 3.18 0 0 1 .18 1.55 2.11 2.11 0 0 1-.17.52 1.46 1.46 0 0 0 .1 1.43c.18.26.35.53.55.78a.63.63 0 0 0 .76.26.59.59 0 0 1 .74.28c.09.13.23.22.32.35a3 3 0 0 0 1.29 1 3.56 3.56 0 0 1 1 .71A3 3 0 0 0 49 55c.6-.06 1.21-.08 1.81-.14a2.84 2.84 0 0 1 2 .5 8.75 8.75 0 0 0 2.44 1.28l.92.22c.06 0 .09.11.14.17s-.11.13-.17.14a2.53 2.53 0 0 1-1.63-.08c-.81-.37-1.62-.77-2.4-1.21a2.16 2.16 0 0 0-1.27-.28 19.7 19.7 0 0 1-2.77 0 4.78 4.78 0 0 1-2.19-.83 5.83 5.83 0 0 0-.69-.39.18.18 0 0 0-.24.21c0 .13.1.25.12.37.06.34 0 .42-.35.57a.59.59 0 0 0-.32.32c-.16.32-.32.65-.51 1a2.89 2.89 0 0 1-.42.57 1.22 1.22 0 0 1-1.57.3 2 2 0 0 0-1.24-.13.31.31 0 0 0-.3.31 3.27 3.27 0 0 0 .08.7c.05.31.17.61.2.92a2.07 2.07 0 0 0 .64 1.32 7.31 7.31 0 0 0 .59.52c1 .81 1.87 1.77 2.83 2.61a3.21 3.21 0 0 1 .42.48 4.23 4.23 0 0 0 .94 1 .72.72 0 0 1 0 1.2c-.28.23-.6.42-.87.67a1.69 1.69 0 0 1-1.7.34c-.48-.13-1-.29-1.44-.41a2.27 2.27 0 0 1-1-.47.56.56 0 0 0-.72-.09c-.32.19-.64.36-1 .56a10.09 10.09 0 0 1-1.2.76 2.18 2.18 0 0 0-1 .89c-.1.16-.19.32-.28.48a1 1 0 0 0 0 .91c.19.38.42.73.64 1.09a1.08 1.08 0 0 0 .3.26c.42.27.84.54 1.27.8a.89.89 0 0 0 .75.09 11.75 11.75 0 0 1 1.55-.29 3.54 3.54 0 0 1 .85.11.32.32 0 0 1 .2.21c0 .07-.1.18-.18.21a1.8 1.8 0 0 1-.46.1 3.09 3.09 0 0 0-2.54 1.65 1.16 1.16 0 0 1-.79.6 1.85 1.85 0 0 0-.63.31c-.16.12-.33.29-.1.52a.28.28 0 0 1 0 .29 1.53 1.53 0 0 0-.22 1 .91.91 0 0 1-.33.7 2.48 2.48 0 0 0-.69 1.55 1.87 1.87 0 0 1-.44 1 7 7 0 0 0-.48.63c-.21.36-.48.7-.32 1.17a.49.49 0 0 1 0 .38 1 1 0 0 0-.11 1.11c.07.17-.06.3-.22.37s-.37.2-.4.44a.82.82 0 0 0 .26.64 2.11 2.11 0 0 0 1.62.86c.5 0 1 .12 1.49.2a.76.76 0 0 1 .73 1c0 .31-.11.62-.14.94a1.3 1.3 0 0 1-.75 1c-.14.07-.27.18-.41.24a1.53 1.53 0 0 0-.85 1 4.14 4.14 0 0 1-.68 1c-.19.22-.43.4-.61.62a1.16 1.16 0 0 0 .09 1.8c0 .06.14.1.17.16a.44.44 0 0 1 .05.29.36.36 0 0 1-.22.18.58.58 0 0 1-.32 0 .62.62 0 0 0-.78.36c-.12.21-.21.43-.32.64s0 .23.12.31a1.72 1.72 0 0 1 .37.28c.37.45.72.91 1.07 1.36.1.13.21.25.29.38a1.69 1.69 0 0 1 0 2.32c-.23.34-.42.72-.64 1.08a.48.48 0 0 0 .06.65c.07.07.12.17.19.25a.81.81 0 0 1 .06 1.08c-.26.4-.54.78-.83 1.15a7.4 7.4 0 0 1-.55.57 1.14 1.14 0 0 0-.36.76 1.24 1.24 0 0 1-.1.47 3.58 3.58 0 0 0-.19 2 1.45 1.45 0 0 0 1 1.17c.34.13.7.24 1 .39a.64.64 0 0 1 .32 1c-.08.14-.18.26-.26.4-.49.74-1 1.47-1.46 2.24a7.53 7.53 0 0 0-.64 1.52c-.14.44-.34.7-.84.6-.23-.05-.38.08-.5.29-.6 1-.27 1.56.36 2.27a.66.66 0 0 0 .34.18c.45.12.91.25 1.38.33a2.22 2.22 0 0 1 1.67 1.08.64.64 0 0 0 .48.36.76.76 0 0 1 .59.47 10.51 10.51 0 0 0 .65 1.07 1.28 1.28 0 0 0 .52.46 9 9 0 0 0 1.29.34c.28.07.57.1.85.18a2 2 0 0 0 1.75-.11.68.68 0 0 1 .22-.09c.09 0 .24 0 .27.06a.37.37 0 0 1 0 .29 3.39 3.39 0 0 1-.27.39c-.08.11 0 .19.08.22h.16l3.38.33a2 2 0 0 0 1.34-.22 3.27 3.27 0 0 1 .5-.24 1.08 1.08 0 0 1 1.06 0 3.31 3.31 0 0 0 .86.38 2.73 2.73 0 0 0 1.85.11 2.26 2.26 0 0 1 .94 0 2.17 2.17 0 0 0 1.22-.25 1.57 1.57 0 0 1 1.29-.14 5.16 5.16 0 0 0 .79.09 1.38 1.38 0 0 0 1.16-.56c.11-.12.05-.25 0-.35-.49-.44-1-.87-1.46-1.34s-.87-.91-1.29-1.39a1.53 1.53 0 0 1-.23-.48.27.27 0 0 1 .09-.2.25.25 0 0 1 .22 0 1 1 0 0 1 .31.24c.86 1.07 2 1.9 2.88 2.92a1.06 1.06 0 0 0 .41.21c.14 0 .31 0 .45.11s.23.42.08.46c-.7.18-1 .85-1.48 1.23a.93.93 0 0 0-.18.16c-.32.29-.34.47 0 .79.51.54 1 1 1.56 1.58.22.22.43.46.63.7a1.94 1.94 0 0 0 .85.68 22.53 22.53 0 0 0 3.81 1.3h.08a10.63 10.63 0 0 0 4 .61c1 0 2 .16 3.07.22.85 0 1.69 0 2.54.05.12 0 .33 0 .35-.11.17-.44.47-.29.79-.25a14.58 14.58 0 0 1 3.48 1 .78.78 0 0 1 .33.29c.05.09-.24.21-.47.14a7 7 0 0 1-1.2-.39 2.39 2.39 0 0 0-1.62-.1 9.25 9.25 0 0 1-2 .2 43.73 43.73 0 0 1-5.61-.27 4 4 0 0 0-2 .4 2.43 2.43 0 0 1-2.06 0 9 9 0 0 1-1.17-.48 1.3 1.3 0 0 0-.54-.06h-.94a2.16 2.16 0 0 1-.6-.17s-.08-.13-.12-.19.13-.1.18-.1l.93.13.62.08s.06 0 .06-.05v-.13l-1-.49a20.55 20.55 0 0 1-3-1.48.71.71 0 0 0-.28-.13.51.51 0 0 0-.34.09c-.38.48-.75 1-1.08 1.47a1.35 1.35 0 0 0-.16.67 1.44 1.44 0 0 1-.56 1.04l-.19.15a2.85 2.85 0 0 0-1 2.24.93.93 0 0 0 .43.81c.53.43 1.06.86 1.58 1.31a8.38 8.38 0 0 0 2.66 1.36c.17.06.35.1.53.15z"/>
    <path class="cls-1" d="M8.32 98.44a1 1 0 0 0-.65.82 1.66 1.66 0 0 0 .51 1.51 1.13 1.13 0 0 1 .45.94 1.79 1.79 0 0 0 .69 1.37c.57.47 1.16.91 1.76 1.34a3.25 3.25 0 0 1 .94.83.75.75 0 0 0 .86.39 1.06 1.06 0 0 1 .67.14 12.84 12.84 0 0 1 1.56.93 4.63 4.63 0 0 0 2.38.74 4.43 4.43 0 0 0 1 0 12.87 12.87 0 0 1 2.91.06 5.06 5.06 0 0 1 1.38.33 4.94 4.94 0 0 1 2 1 2.49 2.49 0 0 1 .25.38 3.09 3.09 0 0 1-1.44-.38 12.46 12.46 0 0 0-2.8-.81 4.21 4.21 0 0 0-.94-.06h-3.09a3.49 3.49 0 0 1-2-.6c-.4-.26-.79-.54-1.18-.8s-.35-.22-.6.11-.27.25-.44.08c-.34-.37-.65-.76-1-1.14-.14-.16-.25-.34-.38-.51a.38.38 0 0 0-.55-.1c-.47.27-.6.23-.89-.22a5.92 5.92 0 0 0-1.05-1.18.55.55 0 0 0-.84 0 3.32 3.32 0 0 0-.61.5 1.16 1.16 0 0 0-.36.59 3.28 3.28 0 0 1-.77 1.7 6.86 6.86 0 0 0-1 2.21 1.47 1.47 0 0 0 .07 1.16 1.43 1.43 0 0 1 .13.28 1.62 1.62 0 0 0 1.76 1.27 2.32 2.32 0 0 1 1.59.58 1.86 1.86 0 0 0 1.18.39 5.88 5.88 0 0 1 .94.1 2.9 2.9 0 0 1 1.81 1.32c.53.83.47.82 1.61.81h1.66a2.83 2.83 0 0 1 1.35.4.25.25 0 0 1 .09.19.22.22 0 0 1-.16.15 7 7 0 0 1-1 0 7.15 7.15 0 0 0-1.73 0 8.42 8.42 0 0 1-.87 0 1.66 1.66 0 0 1-1.52-.83c-.24-.34-.5-.67-.77-1a1.2 1.2 0 0 0-.83-.4 6.17 6.17 0 0 1-2.74-.93 4.59 4.59 0 0 0-1.53-.59 1.27 1.27 0 0 1-1.1-1v-.07c0-.01-.14-.11-.18-.09a.22.22 0 0 0-.12.18c0 .56 0 1.11.07 1.66a1.26 1.26 0 0 0 .29.63A7.27 7.27 0 0 1 6.44 115a.73.73 0 0 0 .51.46 2.39 2.39 0 0 0 1.24.16.59.59 0 0 1 .57.17l2.39 1.94c.23.18.47.34.71.5a1.34 1.34 0 0 0 1.2.2 4.5 4.5 0 0 1 2.33.07 23.32 23.32 0 0 1 3.46 1.33 4.22 4.22 0 0 1 1.06.67 2.45 2.45 0 0 0 1.65.65 3.62 3.62 0 0 1 2.77 1.6.39.39 0 0 1 .08.14c.06.18.11.37-.06.51a.36.36 0 0 1-.5-.05c-.14-.12-.25-.27-.4-.39s-.61-.49-.92-.73a1.5 1.5 0 0 0-1-.32 3.6 3.6 0 0 1-2.51-1 4 4 0 0 0-.93-.56c-.43-.2-.88-.36-1.31-.56a6.28 6.28 0 0 0-3.43-.72h-.55a2.11 2.11 0 0 1-1.71-.45l-.06-.05A5.46 5.46 0 0 1 9 117.05a1.49 1.49 0 0 0-.32-.24.62.62 0 0 0-.81 0 14.55 14.55 0 0 0-1.14 1.08.56.56 0 0 0-.14.77c.13.19 0 .36-.07.52a.6.6 0 0 0 .21.77 1.44 1.44 0 0 0 1.66.35c.15-.06.31-.1.45-.16a1.88 1.88 0 0 1 1.95.19 8.81 8.81 0 0 1 1.2.91 1.94 1.94 0 0 0 1.64.6 2 2 0 0 1 1.21.3c.16.09.31.2.48.28 1.09.55 1 .59 2.05.08a1.23 1.23 0 0 1 .84-.11.27.27 0 0 1 .17.14.21.21 0 0 1 0 .21c-.91.48-1.8 1.07-2.88.45h-.15a3.57 3.57 0 0 0-2.45-.66 1.35 1.35 0 0 1-.94-.37c-.26-.19-.48-.41-.73-.61l-.82-.61a1.29 1.29 0 0 0-1.41-.15 2.69 2.69 0 0 1-2.44 0 2.32 2.32 0 0 0-.44-.16.2.2 0 0 0-.28.19.58.58 0 0 0 0 .23 1.38 1.38 0 0 1-.39 1.09.8.8 0 0 0 0 1.14c.14.18.26.39.41.58a1.74 1.74 0 0 0 1.55.77 9.52 9.52 0 0 1 2.12.2 3.26 3.26 0 0 1 1.68.83 1.85 1.85 0 0 0 2 .49 14.12 14.12 0 0 1 3.3-.28 2.37 2.37 0 0 1 1.68.59 10.66 10.66 0 0 1 .9.88c.2.21.37.44.57.65a1.86 1.86 0 0 0 1.42.59h2.77a6.8 6.8 0 0 0 3.09-.53 5.48 5.48 0 0 1 1.38-.29 2.58 2.58 0 0 1 2 .4 5.16 5.16 0 0 0 1.33.48.86.86 0 0 0 .54-.07 9.1 9.1 0 0 0 1.14-.53 9.89 9.89 0 0 1 3.28-1.12 6.27 6.27 0 0 1 3 .12c.22.07.46.07.7.12a2.52 2.52 0 0 1 1.24.65.38.38 0 0 1 .06.28.24.24 0 0 1-.18.12 1.73 1.73 0 0 1-.61-.09 7 7 0 0 0-3.85-.56 8.52 8.52 0 0 0-3.35 1.08 3.86 3.86 0 0 1-2.33.57h-.24c-.33 0-.42.11-.44.43a3.85 3.85 0 0 0 0 .48l.06 2.21a1 1 0 0 0 0 .39 5.37 5.37 0 0 1 .21 2v2.7a1.49 1.49 0 0 1-1.66 1.58h-.95a3.57 3.57 0 0 0-1.24.19 2.25 2.25 0 0 1-1.69 0 3.37 3.37 0 0 0-.69-.19c-.28-.07-.51-.23-.49-.53a9.63 9.63 0 0 0-.32-1.7 3.2 3.2 0 0 0-.18-.52 1.49 1.49 0 0 1-.13-.37c0-.79-.2-1.56-.19-2.35s-.06-1.53-.1-2.29v-.79c0-1.35 0-1.22-1.28-1.22h-1.58a1.54 1.54 0 0 1-1.27-.52c-.4-.45-.83-.87-1.23-1.33a2 2 0 0 0-1.88-.78c-.6.05-1.21 0-1.81.05a5.09 5.09 0 0 0-.93.18 2.58 2.58 0 0 1-2.59-.49 4.41 4.41 0 0 0-.81-.61 2.66 2.66 0 0 0-1.44-.36h-.95A2.81 2.81 0 0 1 5 124.14a10.42 10.42 0 0 1-.71-1.14.64.64 0 0 1 .11-.8 2.45 2.45 0 0 0 .6-1.76 3.68 3.68 0 0 1 .71-2.14 6 6 0 0 1 1.36-1.61c.06 0 .14-.12.14-.18s0-.24-.1-.25a2.42 2.42 0 0 0-.54-.07.93.93 0 0 1-.81-.55c-.13-.26-.23-.53-.36-.79a5.4 5.4 0 0 0-.83-1.33 2.45 2.45 0 0 1-.67-1.81 5.06 5.06 0 0 0 0-.55 4.37 4.37 0 0 1 .47-2.68c.16-.3.19-.66.35-1 .35-.64.74-1.27 1.14-1.89a2.58 2.58 0 0 0 .57-1.27.93.93 0 0 1 .33-.52 8.73 8.73 0 0 1 .73-.61.78.78 0 0 0 .32-.76 2.3 2.3 0 0 0-.44-1.24 2.54 2.54 0 0 1-.66-1.49 1.82 1.82 0 0 1 .36-1.34 1.3 1.3 0 0 0 .21-1.27c-.09-.35-.18-.71-.25-1.07a1 1 0 0 0-.56-.72.88.88 0 0 1-.47-1.02 2 2 0 0 1 .47-1c.62-.78.39-1-.18-1.42a1.18 1.18 0 0 1-.4-1.54l.1-.22a1.68 1.68 0 0 0 .09-1.47 1.47 1.47 0 0 1 .66-1.92 9.67 9.67 0 0 0 1.4-1.14 3 3 0 0 1 2.53-.89c.3 0 .59.19.9.27a.3.3 0 0 0 .21-.06.25.25 0 0 0 0-.14 4.94 4.94 0 0 0-.44-.56 7.92 7.92 0 0 1-1.22-1.65c-.33-.54-.67-1.07-1-1.6a2.58 2.58 0 0 1-.26-2.41A11.43 11.43 0 0 0 9.22 77a2 2 0 0 1 1.35-1.52l1-.33a.75.75 0 0 0 .6-.74 1.84 1.84 0 0 1 .7-1.36 1.66 1.66 0 0 0-.11-2.6 6.74 6.74 0 0 1-1.28-1.17A2.18 2.18 0 0 1 11 67c.13-.31.1-.33-.23-.54s-.35-.33-.26-.57a1.2 1.2 0 0 1 .27-.48c1.32-1.13 2.4-1.41 3.89-.41.09.06.16.14.25.19s.32.07.35-.12a1.63 1.63 0 0 0 0-.31A6.44 6.44 0 0 0 15 62.8a2.58 2.58 0 0 1 .14-2.08c.28-.5.48-1.06.77-1.55s.54-.71.81-1.07c.13-.16.34-.32.36-.5a1.46 1.46 0 0 1 .64-1 3.14 3.14 0 0 0 .72-.94 2.19 2.19 0 0 0 .27-1.05 2 2 0 0 1 .89-1.82 2.55 2.55 0 0 0 1-1.84c.13-.8.27-1.61.41-2.41a.86.86 0 0 1 .06-.23 9.92 9.92 0 0 0 .72-2.24 9.58 9.58 0 0 0 .26-1.4.74.74 0 0 1 .53-.7c.48-.16.95-.33 1.43-.46a1.67 1.67 0 0 1 .63 0 .83.83 0 0 1 .73.81v1a1.35 1.35 0 0 0 .21.82 1.51 1.51 0 0 1 .15.68c.05.57.07 1.15.14 1.73a3.19 3.19 0 0 0 .45 1.33A3.5 3.5 0 0 1 27 52a1.65 1.65 0 0 0 .19.67.68.68 0 0 0 .62.41 2.42 2.42 0 0 1 1.51.76c.07.06.12.23.08.27a.49.49 0 0 1-.31.16 2.59 2.59 0 0 1-.54-.11.69.69 0 0 0-.79.38c-.15.25-.27.51-.41.77a1.67 1.67 0 0 1-1.39.91 1.15 1.15 0 0 0-.95.58 2.22 2.22 0 0 1-2.6.78.39.39 0 0 1-.2-.11c-.08-.1-.18-.25-.15-.33s.19-.19.3-.2a1.64 1.64 0 0 1 .54.07 1.21 1.21 0 0 0 1.4-.48l.05-.06a1.4 1.4 0 0 1 1.51-.9.87.87 0 0 0 .77-.48 2.46 2.46 0 0 0 .3-.55.63.63 0 0 0-.15-.83 2.28 2.28 0 0 1-.78-1.89 2.31 2.31 0 0 0-.32-1.36c-.13-.23-.22-.48-.34-.71a2.66 2.66 0 0 1-.28-1.38 1.26 1.26 0 0 0-.31-1.1c-.23-.21-.14-.54-.12-.83 0-.58.08-1.16.09-1.74s-.16-.57-.66-.49a5.17 5.17 0 0 0-.54.11.89.89 0 0 0-.67.6 4.49 4.49 0 0 0-.24.67 9.75 9.75 0 0 1-.36 1.77c-.21.73-.37 1.47-.54 2.21a4.68 4.68 0 0 0-.09.54 5.12 5.12 0 0 1-.92 2.56 2.61 2.61 0 0 1-.63.69.92.92 0 0 0-.4.72c-.08.57-.2 1.14-.32 1.7a1.62 1.62 0 0 1-.25.49c-.36.55-.73 1.09-1.1 1.63-.23.33-.23.43 0 .78a1.78 1.78 0 0 0 .23.31c.62.71 1 .8 1.78.32a1.24 1.24 0 0 1 1.4 0 7.07 7.07 0 0 0 3.44.76 5.06 5.06 0 0 0 .93-.17 3.38 3.38 0 0 1 .54-.09.17.17 0 0 1 .15.27.71.71 0 0 1-.26.28 3.7 3.7 0 0 1-2.61.29 2.9 2.9 0 0 0-.61-.16 3.86 3.86 0 0 1-1.86-.49.8.8 0 0 0-.82 0 2.45 2.45 0 0 1-1.7.17 2.34 2.34 0 0 1-.8-.47c-.2-.14-.34-.33-.53-.47a.24.24 0 0 0-.4.09A16 16 0 0 0 16 61a2.32 2.32 0 0 0 0 1.7 4 4 0 0 1 .25 1.39v.55a.43.43 0 0 0 .36.46 2.47 2.47 0 0 1 1.05.52 1.72 1.72 0 0 0 1.5.32 2.51 2.51 0 0 1 1.09 0c.44.07.89.09 1.33.15.08 0 .16.12.19.21s-.06.14-.11.18a1 1 0 0 1-1.05.17 1.51 1.51 0 0 0-1.36 0 1.16 1.16 0 0 1-.93 0 4.75 4.75 0 0 1-1.2-.58.6.6 0 0 0-.66-.12 2.29 2.29 0 0 1-2.3-.43 2.42 2.42 0 0 0-1.16-.37 1.66 1.66 0 0 0-1.15.43.51.51 0 0 0-.18.62 3.35 3.35 0 0 1 .09 1.1 1.75 1.75 0 0 0 .49 1.36c.11.11.2.25.3.37a2 2 0 0 0 1.72.8h1.58a1.75 1.75 0 0 1 1.42.55c.13.14.27.26.39.39a.92.92 0 0 0 1.09.22h.07a3.82 3.82 0 0 1 2-.51 1.63 1.63 0 0 0 .81-.27 1.87 1.87 0 0 1 1.93-.21c.27.12.56.17.83.28A1.51 1.51 0 0 0 26 70c.2-.17.38-.36.58-.53a1.81 1.81 0 0 1 .41-.23.23.23 0 0 1 .3.26.78.78 0 0 1-.13.36A2.6 2.6 0 0 1 24.57 71a7.92 7.92 0 0 1-1.06-.29 1.7 1.7 0 0 0-1.52.09 2.88 2.88 0 0 1-1.58.42 3.35 3.35 0 0 0-.92.19c-.22.06-.45.14-.67.22a1.62 1.62 0 0 1-1.92-.51 1.55 1.55 0 0 0-1.39-.57h-1c-.18 0-.27.06-.23.29.06.42.06.84.1 1.26a2 2 0 0 1-.91 1.82.77.77 0 0 0-.37.71.89.89 0 0 1-.62.92 7.52 7.52 0 0 1-1 .39A1.77 1.77 0 0 0 10 77.81a3.12 3.12 0 0 1-.24 1 1.52 1.52 0 0 0 .1 1.5 43.51 43.51 0 0 0 2.54 3.62 3.61 3.61 0 0 0 .25.3c.13.14.28.25.48.11a1.58 1.58 0 0 1 1.15-.11 8.47 8.47 0 0 1 2.61.88 3.42 3.42 0 0 1 2 2.21c.07.23.21.43.26.66.08.41-.07.6-.48.64a2.24 2.24 0 0 1-1.39-.22c-.22-.14-.47-.23-.7-.37s-.26-.21-.24-.25.27-.11.41-.07l1.06.31c.23.07.38 0 .34-.27a1.56 1.56 0 0 0-.15-.52 3.37 3.37 0 0 0-1.72-1.67c-.49-.21-1-.39-1.47-.59a2.82 2.82 0 0 0-1.32-.13c-.13 0-.16.08-.12.22a1.28 1.28 0 0 0 .94.86 6.52 6.52 0 0 1 .93.43c.05 0 .06.18 0 .27a.21.21 0 0 1-.17.13 1.61 1.61 0 0 1-.54-.08 14.34 14.34 0 0 0-2.13-.6 3.18 3.18 0 0 1-.58-.23c-.19-.09-.37-.21-.55-.31a2 2 0 0 0-2.63.69 2.93 2.93 0 0 1-.83.71 6.16 6.16 0 0 0-.75.57.77.77 0 0 0-.16 1 2.12 2.12 0 0 0 .11.21.9.9 0 0 1-.09 1.29.78.78 0 0 0 0 1 2.45 2.45 0 0 0 1.43 1.17c.48.14.92.38 1.39.56.72.26 1.43.53 2.16.76a1.65 1.65 0 0 0 .69 0c.36-.08.71-.21 1.07-.28a1.65 1.65 0 0 1 1.76.63c.19.25.35.53.55.77a10.65 10.65 0 0 0 .83.95 1 1 0 0 0 1.17.22 17.18 17.18 0 0 0 2.7-1.3 1.77 1.77 0 0 1 1.6-.11 4.09 4.09 0 0 1 .89.31 2.56 2.56 0 0 0 1.7.15.84.84 0 0 1 .31 0c.09 0 .2.11.21.19a.42.42 0 0 1-.12.26.35.35 0 0 1-.21.1 4.8 4.8 0 0 1-2.26-.12 4.4 4.4 0 0 1-.75-.25.86.86 0 0 0-1.09.08 4.77 4.77 0 0 1-1.41.7c-.29.09-.56.3-.86.39a5.28 5.28 0 0 1-1.3.27 2 2 0 0 1-1.67-.92c-.28-.35-.53-.72-.8-1.08-.49-.66-.8-.78-1.55-.5a4.17 4.17 0 0 1-1.4.21 4.2 4.2 0 0 1-1.8-.51 9.25 9.25 0 0 0-1.92-.46.6.6 0 0 0-.62.26A1.74 1.74 0 0 0 7 94.74c0 .12.08.29.17.33.92.35.93 1.21 1.07 2a7.47 7.47 0 0 1 0 1.42zm15.82 32.66c.07.81.15 1.62.21 2.43.05.55.1 1.1.12 1.65s0 1.11 0 1.66a.56.56 0 0 0 .08.2c.07 0 .16 0 .19-.1s.21-.41.32-.61c.24-.47.18-1 .47-1.48a2.62 2.62 0 0 0 .43-.65.67.67 0 0 1 .66-.55.48.48 0 0 0 .46-.52 1.67 1.67 0 0 0-.05-.31.6.6 0 0 1 .34-.72l.22-.1a.3.3 0 0 0 .19-.44c-.14-.3 0-.48.25-.65s.29-.23.28-.35c0-.35.15-.73-.08-1.07A2.26 2.26 0 0 1 28 129c-.08-.16-.11-.41-.22-.46a1.18 1.18 0 0 0-.62 0 2.26 2.26 0 0 0-.43.17 3.38 3.38 0 0 1-2 .47.43.43 0 0 0-.16 0c-.27 0-.38.13-.39.4-.05.52-.04 1.02-.04 1.52zM102.74 139.49a10.39 10.39 0 0 0-1.57-.13c-.87 0-1.74.07-2.61.15a2.63 2.63 0 0 0-1.79.71 1.36 1.36 0 0 1-.62.32 8.11 8.11 0 0 1-5.35-.19c-.42-.16-.81-.37-1.22-.55a2.11 2.11 0 0 0-1.77-.07 2.08 2.08 0 0 1-1.3.15 4.16 4.16 0 0 1-1.18-.42 3.46 3.46 0 0 0-2.88-.21.85.85 0 0 0-.19.14c.07.07.13.18.21.21.4.13.81.24 1.21.36.07 0 .19.08.18.11a.35.35 0 0 1-.12.25.93.93 0 0 1-.49.2 2.62 2.62 0 0 0-1.38.28 1.55 1.55 0 0 1-.36.13c-.36.07-.36.06-.23.39 0 .13.15.34.09.42-.3.4-.11.67.16 1a.64.64 0 0 1 .15.4c0 .13-.26.1-.46-.09s-.28-.32-.42-.47a1.87 1.87 0 0 0-.3-.26.17.17 0 0 0-.14 0 .15.15 0 0 0 0 .13c0 .13.14.31.1.36s-.25-.09-.39-.13-.09-.06-.14-.07-.18 0-.21 0-.11.2-.08.28a3.87 3.87 0 0 0 .26.49 1.9 1.9 0 0 1 .31.62 1.88 1.88 0 0 0 .54 1.11 1.72 1.72 0 0 1 .23.32c.25.47.19.65-.29.85a4.15 4.15 0 0 1-.68.22c-.45.1-.63 0-.68-.5a2.68 2.68 0 0 1 0-.4v-2.37a6.88 6.88 0 0 0-.13-.77 4.24 4.24 0 0 1 0-2.18.35.35 0 0 0-.14-.47 2.37 2.37 0 0 0-.62-.3 3.12 3.12 0 0 1-1.28-.59 1.74 1.74 0 0 0-1.32-.41l-1.34.05a1.69 1.69 0 0 0-.9.27 2.53 2.53 0 0 1-.64.31 7.38 7.38 0 0 1-1.14.31 1.1 1.1 0 0 0-.84.52.65.65 0 0 1-.43.28 6 6 0 0 1-1.41-.13 11.9 11.9 0 0 1-1.24-.5 5.89 5.89 0 0 0-2-.62 7.67 7.67 0 0 1-3.37-1c-.4-.21-.79-.43-1.18-.65a4.43 4.43 0 0 0-1.73-.54c-.47-.07-.56 0-.62.54v.07a4.55 4.55 0 0 1 .9.22c.58.26 1.13.57 1.69.86a8.89 8.89 0 0 0 3.32 1.19 6.75 6.75 0 0 1 2.77.86c.16.09.33.15.5.23a4.13 4.13 0 0 0 2.15.39c.53-.06 1.12-.07 1.39-.71 0-.11.25-.17.39-.22.85-.3 1.7-.58 2.55-.86a1.22 1.22 0 0 1 .38-.07h1.82c.34 0 .47.18.5.5a1.92 1.92 0 0 1 0 .24 62.94 62.94 0 0 0 .31 6.87 2.17 2.17 0 0 0 .47 1.23 1.72 1.72 0 0 1 .46.91.53.53 0 0 0 .32.42c.16.08.34.15.5.24a11.33 11.33 0 0 0 1.9.69 8.39 8.39 0 0 0 2.06-.08 9.84 9.84 0 0 1 1-.37 12.3 12.3 0 0 0 1.44-.63c.53-.28.56-.41.44-1a1.48 1.48 0 0 1 .17-1.21 1.18 1.18 0 0 0 .14-.68 24.31 24.31 0 0 0-.22-4.18 3 3 0 0 1 0-.94c.06-.33.15-.4.49-.39a3.73 3.73 0 0 0 1.55-.23.71.71 0 0 1 .45.05c.57.2 1.13.43 1.69.65a5.7 5.7 0 0 0 2.54.49h1.51a5.28 5.28 0 0 0 2.85-1c.11-.08.21-.2.32-.22a17.18 17.18 0 0 1 1.86-.31c.82-.06 1.64 0 2.46-.06a2.47 2.47 0 0 0 .75-.17.37.37 0 0 0 .14-.33.36.36 0 0 0-.22-.31zM81.18 144a2.23 2.23 0 0 1-.26-.27v-.13h.18a1.45 1.45 0 0 1 .18.32zM74.68 107a4.76 4.76 0 0 1-3-.79 1.22 1.22 0 0 0-1.4-.06 2.15 2.15 0 0 1-1.61.15 2.27 2.27 0 0 1-.87-.51 6.38 6.38 0 0 1-.8-.79.63.63 0 0 0-.79-.16 2.44 2.44 0 0 1-.28.14 1.58 1.58 0 0 1-1.5-.2 6.09 6.09 0 0 1-.55-.46 1.06 1.06 0 0 0-.76-.36 1.49 1.49 0 0 1-1-.38.81.81 0 0 0-.81-.18 3.43 3.43 0 0 0-1.22.31.94.94 0 0 1-.3.07c-.44.06-.43.06-.5.5s-.15.83-.26 1.24a5.2 5.2 0 0 1-.37 1 1 1 0 0 1-.34.32c-.1.07-.2 0-.23-.12a1.6 1.6 0 0 1 0-.23c0-.17.06-.43-.19-.45s-.31.15-.43.28a3.11 3.11 0 0 0-.81 1.24 1.36 1.36 0 0 0 .32 1.08.33.33 0 0 0 .29 0c.16-.09.28-.24.43-.34a1 1 0 0 1 .36-.13.21.21 0 0 1 .23.25c0 .15-.13.3-.18.45a1 1 0 0 0 .11 1 .94.94 0 0 1 .16.42 3 3 0 0 0 1.33 2.12.3.3 0 0 0 .27 0c.36-.24.35-.24.63 0a4.68 4.68 0 0 0 2.27 1 4.9 4.9 0 0 1 .85.16c.1 0 .26.19.25.24-.09.32.11.34.32.41a5.4 5.4 0 0 0 1.78.29h3.25a14.87 14.87 0 0 1 2.2.2 22.22 22.22 0 0 1 2.56.77c.07 0 .13.15.15.23s-.1.12-.17.14a2.29 2.29 0 0 1-1.16-.07 8.5 8.5 0 0 0-2.95-.49h-4.12a6.69 6.69 0 0 1-3-.78c-.18-.09-.38-.17-.57-.27a.49.49 0 0 0-.52 0 1.34 1.34 0 0 1-.92.13 1 1 0 0 0-1 .34.89.89 0 0 1-.83.29h-1.34a3.46 3.46 0 0 0-2.1.57 9.93 9.93 0 0 0-.93.61.91.91 0 0 0-.26 1.31 2.43 2.43 0 0 1 .14.2c.08.17.15.36 0 .51s-.36 0-.49-.07a3 3 0 0 1-.5-.5 1.19 1.19 0 0 1 0-1.47 5.88 5.88 0 0 1 1.28-1 4.21 4.21 0 0 1 2.88-.9 3.83 3.83 0 0 0 1.46-.28c.22-.07.25-.25.1-.43v-.06a11.29 11.29 0 0 1-2.4-3.21c-.14-.22-.3-.43-.46-.64a4.7 4.7 0 0 1-.35-.43c-.57-.94-.72-1.34 0-2.39a6.56 6.56 0 0 1 1-1.1 1.59 1.59 0 0 1 1-.51.43.43 0 0 0 .41-.49 6.59 6.59 0 0 0-.13-1.33 1.46 1.46 0 0 1 0-1c.06-.15.09-.31.14-.46a2.82 2.82 0 0 1 1.09-1.5c.54-.37 1-.82 1.55-1.22A6.5 6.5 0 0 1 63.13 98a12.43 12.43 0 0 1 2.87-.67c.05 0 .14-.09.15-.14A.25.25 0 0 0 66 97a7.76 7.76 0 0 0-.92-.44c-.4-.14-.81-.25-1.21-.37a.51.51 0 0 1-.21-.1c-.07-.07-.16-.19-.14-.25a.43.43 0 0 1 .24-.27.7.7 0 0 1 .38 0 7.16 7.16 0 0 1 4.54 2.65.31.31 0 0 1 0 .28c0 .05-.15.08-.2.06a6.27 6.27 0 0 0-1.87-.32 3 3 0 0 0-.94 0 9.37 9.37 0 0 0-2.29.57 11.14 11.14 0 0 0-3.54 2.34 1.59 1.59 0 0 0-.19 1.7.36.36 0 0 0 .54.14 4 4 0 0 1 1.31-.26 1.26 1.26 0 0 1 1.22.39.69.69 0 0 0 .64.24 1.3 1.3 0 0 1 1.17.54 1.14 1.14 0 0 0 .11.11 1 1 0 0 0 1.29.24 1.37 1.37 0 0 1 1.78.36l.61.62a1.39 1.39 0 0 0 1.6.33 1.3 1.3 0 0 0 .42-.22 1.06 1.06 0 0 1 1.43 0 6.1 6.1 0 0 0 2 .93 4.83 4.83 0 0 0 1.55.24h.32c.18 0 .45 0 .45.21s-.29.24-.48.25-.61.03-.93.03z"/>
    <path class="cls-1" d="M64.36 79.6v.76a1.26 1.26 0 0 0 .37.85.36.36 0 0 0 .49.13 1 1 0 0 1 .91 0c.16.07.36.19.4.33a.76.76 0 0 0 .82.6c.27 0 .43.1.46.42a.74.74 0 0 0 .31.42 26.36 26.36 0 0 0 4.59 2.61 3.12 3.12 0 0 0 1 .24h1.9a6.46 6.46 0 0 1 4.07 1.52 2.16 2.16 0 0 1 .47.61c0 .08 0 .26-.09.35s-.2 0-.28 0a3.39 3.39 0 0 1-.39-.27 8.23 8.23 0 0 0-2.74-1.38 2.11 2.11 0 0 0-.62-.06h-1.27a6.16 6.16 0 0 1-3.25-.81c-.63-.33-1.25-.68-1.89-1a1.4 1.4 0 0 0-1-.24c-.19 0-.5-.15-.69-.31a11 11 0 0 1-.84-.83c-.27-.27-.36-.24-.46.11 0 .12-.06.26-.11.37a1.33 1.33 0 0 1-1.11.79h-.63c-.21 0-.38.15-.35.36.07.5-.27.62-.62.77a19.83 19.83 0 0 0-1.89.8 4.46 4.46 0 0 0-2.05 2 .7.7 0 0 0 0 .75 8.18 8.18 0 0 0 .51.79 1.14 1.14 0 0 1 .26.72v.63a3.52 3.52 0 0 0 .53 2 15.36 15.36 0 0 0 1.32 1.87 8 8 0 0 1 .59.84.46.46 0 0 1-.06.35h-.29a1.42 1.42 0 0 1-.45-.32 10.5 10.5 0 0 1-2.08-2.86 4 4 0 0 1-.3-2.08c0-.16 0-.32.08-.47a.59.59 0 0 0-.27-.62h-.06a1.2 1.2 0 0 1-.68-.92 2.13 2.13 0 0 1 .25-1.42 5.29 5.29 0 0 1 1.32-1.35c.32-.23.68-.41 1-.64a8.92 8.92 0 0 0 1.21-.88 3.83 3.83 0 0 1 1.81-.93l.31-.07c.31 0 .56-.15.61-.5a.82.82 0 0 0-.36-.9l-.61-.36a2.52 2.52 0 0 1-1.2-2.64 3.14 3.14 0 0 0 0-1.33 1 1 0 0 1 .2-.83 3.64 3.64 0 0 1 2.24-1.74c.95-.21 1-.37.35-1.1a7.36 7.36 0 0 1-1.26-1.91 1 1 0 0 1 .27-1.34 5.28 5.28 0 0 1 .86-.56.2.2 0 0 1 .28.23c-.08.2-.19.38-.28.56a1 1 0 0 0 .23 1.4 4.42 4.42 0 0 1 1.12 1.4 5.35 5.35 0 0 0 .58.75.74.74 0 0 0 .93.17 1.4 1.4 0 0 1 1.85.53c.17.24.32.49.49.73.43.61.54.65 1.25.47l.23-.06a1.27 1.27 0 0 1 1.2.19c.24.16.48.33.73.47a5.49 5.49 0 0 0 .86.38.94.94 0 0 0 1-.18 1.5 1.5 0 0 1 1.48-.3c.74.18 1.49.32 2.23.48a2.54 2.54 0 0 1 .6.22c.1.05.17.17.26.27-.11.06-.21.19-.31.19a4.43 4.43 0 0 1-1 0c-.61-.12-1.22-.3-1.83-.47a.9.9 0 0 0-.95.16 1.71 1.71 0 0 1-1.86.23 7.86 7.86 0 0 1-1.19-.61 4.86 4.86 0 0 1-.53-.35.53.53 0 0 0-.59-.06.91.91 0 0 1-.22.11c-.92.23-1.47.12-1.9-.64-.19-.31-.41-.61-.62-.91s-.5-.49-.94-.28a2 2 0 0 1-1.29.21 2.15 2.15 0 0 0-.84.16c-.35.1-.7.2-1 .33a4.25 4.25 0 0 0-.78.36c-.15.09-.33.27-.34.41-.09.73-.63 1.43-.46 2.13zM95.74 33.17a1.71 1.71 0 0 1 0 .32.83.83 0 0 0 .65 1 4.44 4.44 0 0 1 1.4 1 .7.7 0 0 1 .23.79.88.88 0 0 1-.07.23c-.45.66-.15 1.31 0 2a1.08 1.08 0 0 0 .26.38 1.44 1.44 0 0 0 .32.23c1 .56 1 .64 1 1.75a2.32 2.32 0 0 0 .54 1.37c.5.71 1 1.4 1.57 2.08a1.56 1.56 0 0 0 .56.42 3.79 3.79 0 0 0 1 .34c.42.06.6.43.92.58s.67.12 1 .24a.64.64 0 0 1 .43.61 1 1 0 0 0 .36.67.65.65 0 0 1 .06 1 2.49 2.49 0 0 1-2.08 1.23c-.67 0-.83.21-1.11.81a.24.24 0 0 0 .26.35h.32a1.53 1.53 0 0 1 1.2.28l.64.46c.43.29.86.61 1.32.86a4.3 4.3 0 0 1 1.7 1.71 1.06 1.06 0 0 1 0 1.06 3.82 3.82 0 0 1-1.12 1.31.74.74 0 0 1-.43.14.58.58 0 0 1-.4-.18c0-.09 0-.29.11-.41a4.72 4.72 0 0 1 .37-.41 1.12 1.12 0 0 0 .11-1.5 5.08 5.08 0 0 0-.83-.84.28.28 0 0 0-.47.2 5.07 5.07 0 0 0 0 .55 1 1 0 0 1-1 1 3.1 3.1 0 0 0-1.48.46 2.29 2.29 0 0 1-1 .31 2.4 2.4 0 0 0-1.65.6 2 2 0 0 1-1.53.53.64.64 0 0 1-.24 0 .57.57 0 0 1-.21-.2s.08-.14.14-.16a3 3 0 0 1 .6-.2 1.91 1.91 0 0 0 1.08-.62 1.39 1.39 0 0 1 1.26-.5 2.17 2.17 0 0 0 1.57-.42 1.59 1.59 0 0 1 1-.23.79.79 0 0 0 .9-.7 1.06 1.06 0 0 1 .1-.3.68.68 0 0 0-.13-.92c-.25-.22-.48-.39-.84-.22a.91.91 0 0 1-.77-.06 7 7 0 0 1-.8-.32 3.18 3.18 0 0 1-.67-.54c-.29-.28-.32-.3-.68-.15l-1.36.62a1.88 1.88 0 0 1-.6.18 5.66 5.66 0 0 0-1.53.34c-.83.25-1.68.44-2.51.68-.43.12-.84.3-1.27.44s-.65.19-1 .27a.28.28 0 0 1-.21-.06c0-.1 0-.24.07-.28a3.12 3.12 0 0 1 .66-.43 15.87 15.87 0 0 1 1.85-.69c.94-.25 1.88-.52 2.79-.85a2.13 2.13 0 0 1 .7-.14 4.24 4.24 0 0 0 2.72-1.28 1.15 1.15 0 0 0 .22-.22 2.9 2.9 0 0 1 2-1.07c.74-.07.92-.36.93-1.11v-.08c0-.81 0-.82-.8-1a5.17 5.17 0 0 0-.54-.11 1.44 1.44 0 0 1-1.1-.53 1.66 1.66 0 0 0-.61-.35 2 2 0 0 1-.84-.7c-.4-.59-.82-1.16-1.22-1.74-.23-.34-.45-.64-.94-.57-.26 0-.37-.16-.31-.42s.14-.35.19-.52.12-.46.16-.69a1 1 0 0 0-.44-1l-.47-.3a1.49 1.49 0 0 1-.68-1 4.26 4.26 0 0 1 0-1.88.83.83 0 0 0-.34-1 3.46 3.46 0 0 0-.84-.57 2.14 2.14 0 0 1-.7-.5.75.75 0 0 1-.25-.47 10 10 0 0 1 0-1.34.85.85 0 0 1 .24-.48.57.57 0 0 1 .43-.1c.09 0 .19.18.21.29a5.58 5.58 0 0 1 0 .71zM111.85 119.09a5.88 5.88 0 0 1-1.12-.37 5.52 5.52 0 0 0-2.22-.46 3.94 3.94 0 0 1-1.66-.4 1.09 1.09 0 0 0-.37-.13c-.08 0-.17.08-.25.13s0 0 0 .08c0 1.1-.88 1.53-1.68 2-.31.18-.66.32-1 .5a.89.89 0 0 0-.53.82 1.63 1.63 0 0 1 0 .31c0 .19-.09.4-.31.4a.62.62 0 0 1-.38-.22.94.94 0 0 1 .17-1.5 8.08 8.08 0 0 1 1.76-1.06 1.89 1.89 0 0 0 1.2-1.46c0-.13 0-.3-.14-.31a.42.42 0 0 0-.3.18c-.2.31-.36.64-.54 1a2.35 2.35 0 0 1-.23.32.4.4 0 0 1-.51.08.32.32 0 0 1-.11-.42c.13-.4.28-.79.45-1.18.35-.82.7-1.64 1.07-2.45a2.81 2.81 0 0 0-.06-2.29c-.19-.52-.46-1-.68-1.51a1.64 1.64 0 0 1-.17-.6.51.51 0 0 1 .21-.38h.36c.12 0 .11.11.17.16a.44.44 0 0 0 .58.07 7.87 7.87 0 0 1 1.61-.82c.21-.08.23-.26.07-.44s-.64-.63-1-.94a3.71 3.71 0 0 0-.29-.27.31.31 0 0 1-.09-.42.33.33 0 0 1 .42-.12 2.82 2.82 0 0 1 1.24.66c.38.37.77.72 1.15 1.08.15.15.35.29.25.53a.75.75 0 0 1-.57.5 11.11 11.11 0 0 0-1.13.31 5.56 5.56 0 0 0-.78.37 1 1 0 0 0-.5 1.27c.15.53.33 1 .45 1.59a1.51 1.51 0 0 1-.05.76c-.18.49-.43 1-.65 1.44-.14.31-.1.39.21.54.5.24 1 .48 1.49.74a1.67 1.67 0 0 0 1.29.21 1 1 0 0 1 .76.08 4 4 0 0 0 .68.19 6.2 6.2 0 0 1 1.13.36 1.62 1.62 0 0 0 1.58 0l.71-.35a2.35 2.35 0 0 1 .43-.19.33.33 0 0 1 .28.06.26.26 0 0 1 0 .27 3.54 3.54 0 0 1-.8.75 3.48 3.48 0 0 1-1.6.53zM54.54 114a4.37 4.37 0 0 1-1.56-.19 3.26 3.26 0 0 0-1.09-.11 3.3 3.3 0 0 1-1.78-.55 7.13 7.13 0 0 0-1.25-.66 5.51 5.51 0 0 1-1.86-1.25 9.58 9.58 0 0 0-2.81-1.87 1.77 1.77 0 0 0-1.86.12 6 6 0 0 1-3.35 1 4.84 4.84 0 0 1-2.16-.31 3.36 3.36 0 0 1-.43-.2 1.09 1.09 0 0 1-.36-.38c0-.12.35-.29.62-.19a6.14 6.14 0 0 0 1.52.37 5.69 5.69 0 0 0 2.8-.35c.11 0 .28-.13.29-.21.06-.37.36-.44.62-.54a2.75 2.75 0 0 1 1.92 0 10.93 10.93 0 0 1 3.85 2.12 6.23 6.23 0 0 0 2.11 1.2 13.34 13.34 0 0 1 1.2.59 1.73 1.73 0 0 0 .66.25 20.83 20.83 0 0 1 2.73.37c.58.06 1.16.09 1.73.13.07 0 .17.06.18.11a.25.25 0 0 1-.07.21.9.9 0 0 1-.7.3c-.32.04-.63.04-.95.04zM88.12 123.59c-.07 0-.14.1-.21.1a1.18 1.18 0 0 1-.53-.07.82.82 0 0 0-1.06.25c-.06.08-.15.14-.22.22a2.4 2.4 0 0 1-3.5-.18.92.92 0 0 0-.95-.42A2.74 2.74 0 0 1 80 123a5.46 5.46 0 0 1-.87-.53 1.31 1.31 0 0 0-1.35-.2 4.18 4.18 0 0 1-3.07-.09c-.54-.22-1.1-.36-1.65-.53a.49.49 0 0 0-.52.08c-.18.15-.38.29-.55.45a3.88 3.88 0 0 1-1.58.86 1.64 1.64 0 0 1-.62.06 4.25 4.25 0 0 1-3-1.71 1.08 1.08 0 0 1-.15-.28.25.25 0 0 1 0-.21c.07-.06.21-.13.28-.1a2.21 2.21 0 0 1 .45.3c.32.28.61.59.94.84a2.52 2.52 0 0 0 3.07-.1 1.29 1.29 0 0 0 .17-.16 1.74 1.74 0 0 1 2-.5c.51.14 1 .31 1.5.48a3.12 3.12 0 0 0 2.23.14 3.07 3.07 0 0 1 1.08-.19 2.16 2.16 0 0 1 1.19.39 10.34 10.34 0 0 0 .93.59A2.52 2.52 0 0 0 82 123a1.1 1.1 0 0 1 1.08.5 1.67 1.67 0 0 0 2.51.21 6.17 6.17 0 0 0 .46-.43 1 1 0 0 1 1.29-.24 5.93 5.93 0 0 1 .56.29c.1.03.1.12.22.26zM28.52 113.22c-.56-.12-1.06-.19-1.53-.34a2.71 2.71 0 0 0-.93-.15h-1.18a3.39 3.39 0 0 1-2-.53c-.09 0-.18-.09-.27-.15a.92.92 0 0 0-1.34.09 2 2 0 0 1-1.9.49c-.18 0-.36-.07-.54-.12a.63.63 0 0 0-.66.14 2.17 2.17 0 0 1-2.83.17 5.08 5.08 0 0 1-1.48-1 .32.32 0 0 1-.08-.27.37.37 0 0 1 .25-.15 1.37 1.37 0 0 1 .53.12c.28.15.54.33.81.5a5 5 0 0 0 .75.43 1.17 1.17 0 0 0 1.45-.19 1.12 1.12 0 0 1 .86-.32h1.51a1.08 1.08 0 0 0 .92-.35 1.32 1.32 0 0 1 2-.23l.21.12a4.73 4.73 0 0 0 3.24.72 3.89 3.89 0 0 1 1.54.22 1.18 1.18 0 0 0 1.25-.22 1.66 1.66 0 0 1 .5-.38 2.86 2.86 0 0 0 1.28-1.13 5 5 0 0 1 .57-.65 3.15 3.15 0 0 1 .52-.35h.14c.01 0 .09.15.07.21a1.83 1.83 0 0 1-.21.42c-.33.45-.66.89-1 1.32a2.3 2.3 0 0 1-.46.42c-.44.3-.87.6-1.32.87a3.25 3.25 0 0 1-.67.29zM54.2 95.58a2 2 0 0 1-.41 0 36.26 36.26 0 0 1-3.69-1.08 3.07 3.07 0 0 0-1.54-.18 8.25 8.25 0 0 1-6-1.5 24.2 24.2 0 0 1-2-1.78c-.09-.07-.18-.26-.15-.33a.68.68 0 0 1 1-.11c.29.23.57.47.85.72a9.28 9.28 0 0 0 2.5 1.68 5.65 5.65 0 0 0 3.53.49 3.54 3.54 0 0 1 1.63.21c1.21.34 2.42.71 3.63 1a9.3 9.3 0 0 0 1.18.16c.22 0 .5 0 .54.36s-.19.32-.61.35c-.11.02-.21.01-.46.01zM8.31 98.45l1.47 1.32c.54.47.68.52 1.25.14a1.12 1.12 0 0 1 1.25-.08 3.84 3.84 0 0 1 1.64 1.32c.34.52.39.52 1 .37l.53-.16a2.29 2.29 0 0 1 2.33.6 2.61 2.61 0 0 0 1.13.69 5 5 0 0 1 .77.38c.26.12.52.26.79.36a1.56 1.56 0 0 0 1.49-.28c.21-.16.43-.3.65-.44a1.94 1.94 0 0 1 1.37-.23 1.19 1.19 0 0 1 .33.18 1.94 1.94 0 0 1-.27.23 1 1 0 0 1-.23.05 3.72 3.72 0 0 0-1.35.63 2.32 2.32 0 0 1-3.05.12 2.7 2.7 0 0 0-1.16-.48 1.29 1.29 0 0 1-.55-.27 2.34 2.34 0 0 1-.45-.44 1.74 1.74 0 0 0-2-.43c-.12 0-.24.11-.36.15a1.2 1.2 0 0 1-1.51-.52 11.68 11.68 0 0 0-1-1.14.9.9 0 0 0-1.16-.17l-.2.12a1.08 1.08 0 0 1-1.33-.13A14.13 14.13 0 0 1 8.42 99c-.1-.12-.07-.35-.1-.53z"/>
    <path class="cls-1" d="M119 112.71a2.48 2.48 0 0 0-1.51.3 2.39 2.39 0 0 1-2.07-.06 3.45 3.45 0 0 0-2.53 0 2.55 2.55 0 0 1-2.35-.22.63.63 0 0 0-.85 0c-.16.13-.36.21-.54.33a1 1 0 0 1-1.25-.06 2.78 2.78 0 0 1-1-1.14.46.46 0 0 1 0-.36.3.3 0 0 1 .43 0 2.74 2.74 0 0 1 .4.37c.14.15.25.34.4.49a.54.54 0 0 0 .78.07c.19-.14.35-.31.53-.47a.75.75 0 0 1 1.18 0c.23.17.45.36.7.51a1 1 0 0 0 1 .06l.52-.19a3.4 3.4 0 0 1 2.76.08 1.83 1.83 0 0 0 1.95-.09 1.76 1.76 0 0 1 1.15-.18c.18 0 .36.08.54.11a.63.63 0 0 0 .79-.47c.14-.32.25-.64.39-1a.28.28 0 0 1 .38-.18.44.44 0 0 1 .18.31 2.5 2.5 0 0 1-.68 1.64.89.89 0 0 1-.49.19 8.43 8.43 0 0 1-.81-.04zM50.11 83.69a1.85 1.85 0 0 1-1.28-.52c-.15-.17-.33-.33-.5-.5a1 1 0 0 0-1-.29 2.58 2.58 0 0 1-1.62-.18 2.72 2.72 0 0 0-.83-.2 3.32 3.32 0 0 1-2.56-1.21c-.56-.63-.71-.62-1.29 0a3.83 3.83 0 0 1-.29.28.91.91 0 0 1-1.34 0 4.8 4.8 0 0 1-.64-1 3.74 3.74 0 0 1-.21-.59c-.06-.14 0-.28.1-.32a.44.44 0 0 1 .36 0 2.33 2.33 0 0 1 .34.52c.15.25.25.52.42.75a.43.43 0 0 0 .69.08 3.59 3.59 0 0 0 .39-.39c.11-.11.2-.25.31-.36a.65.65 0 0 1 1 0 7.1 7.1 0 0 1 .72.73 1 1 0 0 0 .91.37 3.22 3.22 0 0 1 2.49.77 1.46 1.46 0 0 0 .5.2.87.87 0 0 0 .23 0c1.5 0 1.35-.13 2.3.85a1.3 1.3 0 0 0 1.49.32 5.16 5.16 0 0 1 .52-.16.27.27 0 0 1 .21.09.26.26 0 0 1-.05.2 2 2 0 0 1-1.37.56zM54.2 88c-.36-.07-.74-.17-1.13-.24a7.5 7.5 0 0 0-1.24-.15 3.1 3.1 0 0 1-1.32-.16.75.75 0 0 0-.23-.07 3.69 3.69 0 0 1-2-.71 1.6 1.6 0 0 0-1.5-.14 3 3 0 0 1-3.17-1.22 1.84 1.84 0 0 1-.17-.67.31.31 0 0 1 .28-.33.47.47 0 0 1 .34.12 3 3 0 0 1 .33.44 2.14 2.14 0 0 0 2.62.88 1.49 1.49 0 0 1 1.43.15 7.4 7.4 0 0 0 1.11.6 4.78 4.78 0 0 0 2.24.37 3.56 3.56 0 0 1 1.16.18 5.73 5.73 0 0 0 2.82.06 4.81 4.81 0 0 1 1-.07.29.29 0 0 1 .2.2c0 .08-.08.17-.14.25a.19.19 0 0 1-.14.07zM49.86 97.11a2.23 2.23 0 0 0-.49.1 2.75 2.75 0 0 1-2.16-.14 1.63 1.63 0 0 0-1.7.16c-.24.16-.52.26-.77.4a1.79 1.79 0 0 1-1.38.06 4.66 4.66 0 0 1-1.72-.94c-.77-.63-.81-.56-1.5.1-.2.2-.38.43-.59.63a3.54 3.54 0 0 1-.6.5 1.18 1.18 0 0 1-1.45-.18 2.56 2.56 0 0 1-.3-.37 2 2 0 0 0-.78-.76c-.23-.12-.19-.37 0-.48a.5.5 0 0 1 .7.14c.22.29.41.61.63.91.35.46.59.49 1.05.11a2.86 2.86 0 0 0 .4-.38c.17-.17.32-.35.48-.53a1.41 1.41 0 0 1 2.21-.24c.27.18.51.38.77.56a2 2 0 0 0 2.44.06 2.27 2.27 0 0 1 2.31-.24 2 2 0 0 0 1.9 0 .78.78 0 0 1 .83 0 3.67 3.67 0 0 0 2.11.54.23.23 0 0 1 .17.13c0 .05 0 .15-.09.18a1.06 1.06 0 0 1-1 .2l-1-.33zM48.89 103.11c-.44 0-.89-.11-1.33-.14s-.84 0-1.27-.06a9.36 9.36 0 0 1-1.18-.08.72.72 0 0 0-.76.28c-.11.14-.26.26-.38.39a1.92 1.92 0 0 1-1.78.64 3.33 3.33 0 0 1-2-1 .33.33 0 0 1-.07-.26c0-.05.12-.1.19-.13a.76.76 0 0 1 .69.25 3.29 3.29 0 0 0 1.09.46 1.28 1.28 0 0 0 1.41-.46q.32-.41.66-.78c.36-.38.58-.41 1-.07a1.49 1.49 0 0 0 1 .29h3.4a3.9 3.9 0 0 0 1-.18 6.6 6.6 0 0 1 1.92-.42 1.9 1.9 0 0 0 1.07-.45c.3-.22.61-.42.92-.61h.29a.43.43 0 0 1-.13.61 13.81 13.81 0 0 1-1.12.86 2 2 0 0 1-1.27.34 3.6 3.6 0 0 0-1.16.21 6.42 6.42 0 0 1-2.19.31zM117.38 121l-1.24-.4c-.51-.17-.52-.18-.86.22-.19.22-.35.46-.53.69s-.3.43-.47.62a1.93 1.93 0 0 1-2.74.41c-.61-.38-.79-.45-1.3.22a2.94 2.94 0 0 1-.39.4 2.56 2.56 0 0 1-3.38.16l-.81-.63a1.29 1.29 0 0 1-.33-.33.54.54 0 0 1-.07-.42c.08-.18.28-.11.42 0s.38.27.58.4l1.1.76a1.35 1.35 0 0 0 1.74-.19 7.32 7.32 0 0 0 .83-.84c.71-.85.95-.89 1.81-.23l.13.1c.85.61 1.06.58 1.82-.15a7.36 7.36 0 0 0 .64-.81c.09-.12.17-.26.26-.39a1.45 1.45 0 0 1 2-.49c.51.21 1 .34 1.56.52.07 0 .11.1.17.15s-.08.08-.13.09zM72 93.7a3.91 3.91 0 0 1-1.79-.26c-.28-.13-.55-.29-.83-.43a3.67 3.67 0 0 0-.84-.42 3.38 3.38 0 0 1-1.67-1c-.45-.43-.45-.42-1-.11a6.53 6.53 0 0 1-1 .51 1.29 1.29 0 0 1-1.8-.76c-.23-.5-.39-1-.58-1.54-.09-.27-.19-.54-.27-.82a.41.41 0 0 1 .19-.54.45.45 0 0 1 .55.21 9 9 0 0 1 .42 1 7.47 7.47 0 0 1 .38 1.19.78.78 0 0 0 1.12.52 5.09 5.09 0 0 0 .55-.31c.18-.11.35-.22.54-.32a1 1 0 0 1 1.17.17l.76.69a2.13 2.13 0 0 0 1 .49 2.48 2.48 0 0 1 .91.44 2.66 2.66 0 0 0 1.29.55l1.72.24.38.09s.09.09.08.12 0 .16-.11.18a1.22 1.22 0 0 1-.38.07zM53.13 71.4a11.38 11.38 0 0 1-1.34-.34 1.61 1.61 0 0 0-1.29 0 2 2 0 0 1-2.29-.29 1.33 1.33 0 0 0-1.85-.11 11.14 11.14 0 0 1-1.16.66 1.5 1.5 0 0 1-2.2-.6 6.46 6.46 0 0 1-.44-.92.78.78 0 0 0-.5-.56c-.2 0-.19-.23-.08-.38a.49.49 0 0 1 .85 0 2.38 2.38 0 0 1 .31.54 11.78 11.78 0 0 0 .57 1.12.77.77 0 0 0 1.09.3 14.29 14.29 0 0 0 1.4-.73 1.91 1.91 0 0 1 2.41.14 3.94 3.94 0 0 0 .4.26.91.91 0 0 0 1 .06 2 2 0 0 1 2.09 0l.23.08a1.62 1.62 0 0 0 1.44 0c.45-.2.87-.15.85 0s-.37.43-.61.54a4.8 4.8 0 0 1-.88.23zM44.74 77.84a3.33 3.33 0 0 1-.69-.28 2.67 2.67 0 0 0-1.16-.46h-.07c-.36-.11-.57-.33-.56-.58A.65.65 0 0 1 43 76a2.53 2.53 0 0 1 .75.2 8.14 8.14 0 0 1 .77.41 1.09 1.09 0 0 0 1.13 0c.32-.17.63-.37.94-.57s.48-.32.71-.49a5 5 0 0 1 3.15-.8 5.06 5.06 0 0 0 .86-.11 4.89 4.89 0 0 1 .54 0s.11 0 .12.08a.82.82 0 0 1 0 .22V75a2.8 2.8 0 0 1-1.73.67 3.62 3.62 0 0 0-2.08.62 13.65 13.65 0 0 1-2.8 1.42zM25.8 88.3h-.45c-.44 0-.8.06-.93.54a.16.16 0 0 1 0 .07 1.82 1.82 0 0 1-2.27 1 7.18 7.18 0 0 1-1.35-.63.33.33 0 0 1-.1-.32.35.35 0 0 1 .31-.14c.45.14.9.31 1.34.46.61.21.83.16 1.22-.36a6.61 6.61 0 0 0 .39-.68 1.09 1.09 0 0 1 1.1-.63c.31 0 .63 0 .94.09a1.41 1.41 0 0 0 1.41-.54 1.72 1.72 0 0 1 1.51-.69 2 2 0 0 0 1.84-1 1 1 0 0 1 .51-.46q.66-.27 1.32-.51c.08 0 .2 0 .28.08s0 .16 0 .21a2.48 2.48 0 0 1-.53.45 3.76 3.76 0 0 0-1.3 1 2.22 2.22 0 0 1-2 .9 1 1 0 0 0-.91.37 2.26 2.26 0 0 1-2.33.79zM24.81 80.89a7.34 7.34 0 0 1-2.18-.54c-.1 0-.22-.22-.2-.28s.2-.23.29-.22c.41.05.82.14 1.24.22.2 0 .4.12.61.16a1.21 1.21 0 0 0 1.25-.5c.18-.23.35-.46.51-.7a1.34 1.34 0 0 1 1.18-.66 2.67 2.67 0 0 1 .4 0 1.45 1.45 0 0 0 1.46-.75 2.31 2.31 0 0 1 1.41-1.07 2.5 2.5 0 0 0 1.33-.94c.19-.25.37-.51.57-.75a4.83 4.83 0 0 1 .38-.4.28.28 0 0 1 .22 0 .25.25 0 0 1 .09.2 2 2 0 0 1-.16.6 3.57 3.57 0 0 1-2.06 1.85 2.11 2.11 0 0 0-1.22.94 2.41 2.41 0 0 1-1.47 1 3 3 0 0 1-.79.06.88.88 0 0 0-.84.48 3.85 3.85 0 0 1-.24.4 2.13 2.13 0 0 1-1.78.9zM84.24 120.62a4.72 4.72 0 0 1-2.87-1c-.07 0-.15-.09-.17-.16s-.09-.34 0-.43a.45.45 0 0 1 .41-.09 6.56 6.56 0 0 1 .9.49 3.88 3.88 0 0 0 2.14.43 2 2 0 0 0 1.22-.49 3.71 3.71 0 0 0 .29-.27c.56-.5.78-.5 1.35 0a7.14 7.14 0 0 0 .77.55 1.32 1.32 0 0 0 1.62 0 11.55 11.55 0 0 1 1.84-.89 1.14 1.14 0 0 1 .45-.1.26.26 0 0 1 .19.12.24.24 0 0 1 0 .2 6.45 6.45 0 0 1-.69.51c-.52.3-1.07.56-1.59.86a2 2 0 0 1-2.37-.12 1.2 1.2 0 0 0-1.72-.06 2.29 2.29 0 0 1-1.77.45zM51 64.57a7.06 7.06 0 0 1-1.6-.41 1.28 1.28 0 0 1-.53-.33.3.3 0 0 1 .23-.52 4.25 4.25 0 0 1 .92.22 4 4 0 0 0 3.89-.53c.06-.05.14-.09.19-.14a2.33 2.33 0 0 1 1.57-.64 4.43 4.43 0 0 0 1.21-.32c1.1-.37 2.19-.76 3.29-1.12a4.67 4.67 0 0 1 .91-.23.38.38 0 0 1 .34.11c.09.17-.06.29-.2.36a5.1 5.1 0 0 1-.72.32c-.72.25-1.44.48-2.17.71-.45.15-.91.25-1.34.44a2.56 2.56 0 0 1-1.15.22 1.28 1.28 0 0 0-1 .43A5.2 5.2 0 0 1 51 64.57zM22.61 91.81A5.38 5.38 0 0 0 21 92a3.2 3.2 0 0 1-2.58-.39 2.4 2.4 0 0 1-.27-.16 1.61 1.61 0 0 0-1.42-.28 2.67 2.67 0 0 1-2.73-.79 1.33 1.33 0 0 0-1.1-.48 1.47 1.47 0 0 1-1.08-.44c-.49-.47-.94-1-1.39-1.51a.26.26 0 0 1 .12-.44.39.39 0 0 1 .33.09c.34.34.65.69 1 1a1.88 1.88 0 0 0 1.57.78 1.12 1.12 0 0 1 1 .5 2.08 2.08 0 0 0 2.41.69 1.65 1.65 0 0 1 1.29.14c.47.25.94.49 1.41.71a1.45 1.45 0 0 0 1.3 0 2.52 2.52 0 0 1 1.46-.19 9.41 9.41 0 0 0 1.19 0 2.46 2.46 0 0 1 .46.08s.1.08.09.11-.05.17-.1.18a1.41 1.41 0 0 1-.45.11c-.32.11-.61.1-.9.1zM85.81 108.9a1.26 1.26 0 0 0-1.26.46 1.29 1.29 0 0 1-1.21.45 7.71 7.71 0 0 1-2.34-.7 1.69 1.69 0 0 1-.37-.29.18.18 0 0 1 .1-.3 1.59 1.59 0 0 1 .53 0c.36.1.7.25 1 .35a6.57 6.57 0 0 0 .77.16 1.07 1.07 0 0 0 1.25-.59.77.77 0 0 1 .81-.38c.26 0 .52.07.78.09a2.35 2.35 0 0 0 2-.64 1.89 1.89 0 0 1 1.05-.51 13.06 13.06 0 0 0 2.54-.54.81.81 0 0 1 .38 0 .24.24 0 0 1 .14.32 1.15 1.15 0 0 1-.22.22 3.39 3.39 0 0 1-1.92.63 2.44 2.44 0 0 0-1.53.48 3.64 3.64 0 0 1-2.5.79zM126 101.31c.41.07.86.11 1.29.22a1.84 1.84 0 0 1 .59.36.21.21 0 0 1 0 .2.26.26 0 0 1-.18.13 2.74 2.74 0 0 1-.76-.11 3.52 3.52 0 0 0-1.64-.13 1 1 0 0 0-1.07 1.12 4.83 4.83 0 0 1-.39 1.36 1 1 0 0 1-.77.61 3 3 0 0 0-1.49.82 4.2 4.2 0 0 1-1.08.65c-.52.24-1.06.44-1.6.65a.57.57 0 0 1-.3.07c-.12 0-.29-.06-.33-.14a.36.36 0 0 1 .12-.32 5.63 5.63 0 0 1 .9-.49 5.59 5.59 0 0 0 2.13-1.31 1.32 1.32 0 0 1 .85-.39 1.08 1.08 0 0 0 1-1 6.5 6.5 0 0 1 .32-1.3 1.06 1.06 0 0 1 .84-.76c.57-.12 1.03-.17 1.57-.24zM52 50a1.41 1.41 0 0 1-1.05-.3 1.73 1.73 0 0 0-2.13 0 1.51 1.51 0 0 0-.26.18 2 2 0 0 1-2.71-.33 7.31 7.31 0 0 1-.72-.94v-.21a.23.23 0 0 1 .21 0c.23.16.46.35.68.53s.31.3.47.42a1.32 1.32 0 0 0 1.63.12 6.78 6.78 0 0 1 1.88-.78.9.9 0 0 1 .83.09l.68.41A1.16 1.16 0 0 0 52.9 49a1.21 1.21 0 0 0 .24-.21 1.44 1.44 0 0 1 1.23-.58 1.41 1.41 0 0 0 1.3-.76c.07-.11.12-.23.19-.34s.39-.39.49-.29a.55.55 0 0 1 .1.59A1.78 1.78 0 0 1 55 48.72a2.15 2.15 0 0 0-1.53.7A1.7 1.7 0 0 1 52 50zM80.38 57.9a5.12 5.12 0 0 1-1.62-.6.41.41 0 0 1-.12-.33s.17-.14.25-.13a4.22 4.22 0 0 1 .7.1 8 8 0 0 0 .84.22c.44.06.64-.11.7-.54 0-.26 0-.53.06-.79a.74.74 0 0 1 .9-.75l.32.05a.94.94 0 0 0 1-.34 1.78 1.78 0 0 1 1-.63A13.2 13.2 0 0 0 87.05 53a4.63 4.63 0 0 1 .74-.26s.19 0 .2.07a.38.38 0 0 1 0 .28 1.3 1.3 0 0 1-.34.32 12 12 0 0 1-2.79 1.29 1.42 1.42 0 0 0-.78.49 1.28 1.28 0 0 1-1.17.52h-.24a.48.48 0 0 0-.57.41 7.27 7.27 0 0 1-.25.83 1.29 1.29 0 0 1-1.47.95zM20.38 76.88l-1-.15c-.29 0-.57-.09-.86-.12a1 1 0 0 0-.87.26 1.16 1.16 0 0 1-1.58.08l-.48-.28a.88.88 0 0 1-.33-1 .13.13 0 0 1 .24-.07c.14.12.24.27.37.4a2.32 2.32 0 0 0 .47.42.71.71 0 0 0 .94-.09A1.38 1.38 0 0 1 19 76a3.51 3.51 0 0 0 1.64.13 1.93 1.93 0 0 0 .85-.38 3.55 3.55 0 0 1 1.68-.83 1.51 1.51 0 0 0 .78-.5 4.6 4.6 0 0 1 .76-.55.35.35 0 0 1 .34.06.42.42 0 0 1 0 .36 3 3 0 0 1-1.78 1.34 3.07 3.07 0 0 0-1.13.52 6.92 6.92 0 0 1-1.18.61 2.56 2.56 0 0 1-.58.12zM82.85 83.55a2 2 0 0 1-1.51-.55 1.5 1.5 0 0 0-1.47-.36 2.42 2.42 0 0 0-.88.5 1.86 1.86 0 0 1-1.46.44 1 1 0 0 1-.24 0 5.74 5.74 0 0 1-1.78-1 .36.36 0 0 1-.08-.34.35.35 0 0 1 .32-.13 5 5 0 0 1 .72.31c.28.14.55.3.84.43a1.16 1.16 0 0 0 1.2-.15l.37-.29a2.16 2.16 0 0 1 2.77-.06 1.66 1.66 0 0 0 2.16.17 1.27 1.27 0 0 1 1.19-.16c.2.06.41.06.62.12s.14.12.21.18a.69.69 0 0 1-.23.19.74.74 0 0 1-.38.07 3.27 3.27 0 0 0-1.73.43 4.5 4.5 0 0 1-.64.2zM86.31 99.27h.79a1 1 0 0 0 1-.64 2.32 2.32 0 0 1 .16-.36.82.82 0 0 1 1.08-.38.84.84 0 0 1 .14.06 1.8 1.8 0 0 0 2.24-.62c.21-.27.38-.57.6-.83a.41.41 0 0 1 .34-.12.39.39 0 0 1 .19.3 1.29 1.29 0 0 1-.15.59 2.78 2.78 0 0 1-2.63 1.54h-.48a.82.82 0 0 0-.85.42 1.79 1.79 0 0 1-1.68.85h-2c-.16 0-.35-.06-.33-.25a.52.52 0 0 1 .23-.36 1.22 1.22 0 0 1 .53-.13h.87zM19.58 80.42h-.39a2.33 2.33 0 0 1-1.58-.4A.5.5 0 0 0 17 80l-.2.12a1.29 1.29 0 0 1-1.92-.37c-.08-.11-.14-.22-.22-.33-.19-.27-.29-.33-.59-.18a2.43 2.43 0 0 1-1.16.19 1.77 1.77 0 0 1-1.73-1.34c-.06-.2-.13-.4-.18-.61a.24.24 0 0 1 .08-.2c.09 0 .25-.07.29 0a4 4 0 0 1 .44.63 5.42 5.42 0 0 0 .26.48 1.12 1.12 0 0 0 1.52.43l.59-.23c.56-.19.73-.13 1 .39.12.2.21.42.35.61s.4.36.73.17.5-.31.75-.45a.71.71 0 0 1 .88.07 3.65 3.65 0 0 0 .45.32 1.06 1.06 0 0 0 .5.19 4.8 4.8 0 0 0 2-.14.87.87 0 0 1 .38-.08.33.33 0 0 1 .26.13s0 .19-.1.25a1.32 1.32 0 0 1-.87.34h-1zM81 95.89a5.29 5.29 0 0 1-1.46-.43.52.52 0 0 1-.17-.16.25.25 0 0 1 .16-.42A1.64 1.64 0 0 1 80 95a2.9 2.9 0 0 0 2 0 5 5 0 0 1 .77-.16 3.2 3.2 0 0 0 1.44-.59 3.49 3.49 0 0 1 2-.74 5 5 0 0 0 2.25-.65c.37-.19.6-.2.63 0s-.16.38-.31.51a2.57 2.57 0 0 1-1.68.63c-.24 0-.47.08-.7.09a2.92 2.92 0 0 0-1.86.78 4 4 0 0 1-1.67.62 13.58 13.58 0 0 1-1.54.32zM115.8 83.9c-.24 0-.47 0-.71-.05a.75.75 0 0 1-.59-.34.2.2 0 0 1 .09-.32 1.85 1.85 0 0 1 .46-.08 5.74 5.74 0 0 1 .71.09.9.9 0 0 0 1-.44l.18-.26a2.08 2.08 0 0 1 1.11-1 2.35 2.35 0 0 0 1.16-1c.29-.47.6-.93.9-1.39a2.69 2.69 0 0 1 .3-.37c.14-.14.26-.36.52-.27s.23.43 0 .71a20 20 0 0 1-1.41 2.08 3.81 3.81 0 0 1-1.18.91 2 2 0 0 0-.68.61l-.09.13a1.71 1.71 0 0 1-1.77.99zM103.65 57.65a2 2 0 0 1-1.41 1.83 8.25 8.25 0 0 1-1.4.18 1.93 1.93 0 0 0-1.62.65 1.71 1.71 0 0 1-1.28.54 3 3 0 0 1-2-.47.3.3 0 0 1-.14-.41.56.56 0 0 1 .38-.21 1.26 1.26 0 0 1 .45.12l.66.28a1.15 1.15 0 0 0 1.16-.16 8.3 8.3 0 0 0 .73-.6 1.36 1.36 0 0 1 1-.38h1a1.67 1.67 0 0 0 1.76-1.4 2.11 2.11 0 0 1 .09-.38c0-.09.15-.2.21-.19a.45.45 0 0 1 .3.19 1.53 1.53 0 0 1 .11.41zM82.59 51.27a2.34 2.34 0 0 1-1.45-.39c-1.18-.68-.85-.75-2 .08a1.81 1.81 0 0 1-2.66-.31 5 5 0 0 1-.33-.44c-.1-.14-.12-.33 0-.42a.58.58 0 0 1 .43 0 1.38 1.38 0 0 1 .41.36c.58.71 1 .89 1.92.14s1.1-.8 2.17-.21l.14.07a2.7 2.7 0 0 0 2.7.24 4.44 4.44 0 0 1 .6-.16.3.3 0 0 1 .26.13.3.3 0 0 1-.08.26 3.07 3.07 0 0 1-1.82.66zM59.06 73.58l-.52-.08a2.12 2.12 0 0 0-1.31.13 2.56 2.56 0 0 1-1.48.07 1.15 1.15 0 0 1-.47-.26.31.31 0 0 1-.1-.27.3.3 0 0 1 .23-.17 1.28 1.28 0 0 1 .59 0 2.29 2.29 0 0 0 1.32-.11 1.67 1.67 0 0 1 1.08 0 2.14 2.14 0 0 0 2.13-.5 1.72 1.72 0 0 1 1.47-.56 1.55 1.55 0 0 0 1.4-.6c.21-.23.44-.45.67-.66a.22.22 0 0 1 .21 0 .26.26 0 0 1 .11.2 1 1 0 0 1-.14.43 7.37 7.37 0 0 1-.8.87 1.57 1.57 0 0 1-1.23.43 1.57 1.57 0 0 0-1.36.47 3 3 0 0 1-1.8.61zM114.36 102.9h-.47a1.76 1.76 0 0 1-1.5-.57.71.71 0 0 0-.84-.17 3.22 3.22 0 0 1-3.84-1.84c-.12-.32-.28-.62-.41-.94-.06-.12-.47-.1-.18-.35s.56-.28.76 0a.87.87 0 0 1 .16.26c.12.29.23.59.33.88a2.75 2.75 0 0 0 1.92 1.62 1.33 1.33 0 0 0 1-.09l.5-.23a.6.6 0 0 1 .79.1l.12.11a2.61 2.61 0 0 0 2.46.75 5 5 0 0 1 .54-.07.21.21 0 0 1 .19.11c0 .09 0 .24-.08.26a1.77 1.77 0 0 1-.59.19 8.42 8.42 0 0 1-.87 0zM93.85 42.4a3.09 3.09 0 0 1-2.13-.71l-.45-.33a2.59 2.59 0 0 0-1.77-.53 7.59 7.59 0 0 1-1.26 0 1.83 1.83 0 0 1-1.36-1 .37.37 0 0 1 .05-.51.36.36 0 0 1 .5 0 2.87 2.87 0 0 1 .39.39 1.49 1.49 0 0 0 1.25.56h1.5a1.53 1.53 0 0 1 1 .34l.19.13a3 3 0 0 0 2.38.86 1.43 1.43 0 0 1 .61.1c.11 0 .24.18.24.26a.37.37 0 0 1-.24.26c-.28.12-.59.14-.9.18zM52.15 59.18l-1.63-.47-.36-.15a1.11 1.11 0 0 0-1.06.09 5.62 5.62 0 0 1-.77.4 1.93 1.93 0 0 1-2.09-.5.23.23 0 0 1-.05-.22.26.26 0 0 1 .2-.07 4.09 4.09 0 0 1 .69.17 1.83 1.83 0 0 0 1.73-.29l.13-.08a1.25 1.25 0 0 1 1.41-.13c.46.18.93.33 1.41.47a1.66 1.66 0 0 0 1.57-.32 1.85 1.85 0 0 1 .33-.21.14.14 0 0 1 .14 0 .46.46 0 0 1 .09.2.26.26 0 0 1 0 .15 2.1 2.1 0 0 1-1.74.96zM123.37 108.28a1 1 0 0 1-1-.46v-.22a.16.16 0 0 1 .13-.06 1.46 1.46 0 0 1 .37.12.74.74 0 0 0 .88-.12 4 4 0 0 0 .75-.79 1.1 1.1 0 0 1 1-.53h.63a1.23 1.23 0 0 0 1.28-.59 1.55 1.55 0 0 1 .53-.45.37.37 0 0 1 .34.07.31.31 0 0 1 0 .29 2.18 2.18 0 0 1-1.89 1.43 1.07 1.07 0 0 1-.31 0 1.26 1.26 0 0 0-1.28.58 1.59 1.59 0 0 1-1.43.73zM54.25 79.58a6.65 6.65 0 0 0 2-.13c.77-.17 1.56-.27 2.34-.38a.89.89 0 0 1 .46.05.41.41 0 0 1 .2.3.36.36 0 0 1-.21.28c-.3.09-.61.15-.92.21-.85.16-1.7.33-2.55.47a7.09 7.09 0 0 1-3-.36c-.06 0-.1-.11-.13-.18a.19.19 0 0 1 .09-.11 3.2 3.2 0 0 1 .61-.15c.38-.02.75 0 1.11 0zM61.25 53.65a3.13 3.13 0 0 1-.41-.09.66.66 0 0 0-.8.33c-.08.11-.12.25-.2.35A2.3 2.3 0 0 1 57 55c-.08 0-.13-.14-.19-.22s.14-.17.22-.18a3.39 3.39 0 0 1 .71 0 1.67 1.67 0 0 0 1.53-.8c.12-.17.22-.37.33-.54a.66.66 0 0 1 .8-.36 1.84 1.84 0 0 0 2.2-.76 1.3 1.3 0 0 1 .35-.31.35.35 0 0 1 .3 0c.07 0 .09.17.12.27a.21.21 0 0 1 0 .15 2.69 2.69 0 0 1-2 1.4zM86.42 30.38a2.64 2.64 0 0 1-2.48-1.15 1.21 1.21 0 0 1-.24-.48.38.38 0 0 1 .13-.33.36.36 0 0 1 .36 0 6 6 0 0 1 .71.61 2.51 2.51 0 0 0 2.85.52 12 12 0 0 0 1.12-.6c.13-.07.26-.18.4-.24a.33.33 0 0 1 .28 0 .26.26 0 0 1 0 .27 4.4 4.4 0 0 1-.71.72 3.37 3.37 0 0 1-2.42.68zM90.66 26.85c-.08 0-.34-.07-.6-.09a5.84 5.84 0 0 0-2 .07c-.7.18-.9.06-1.25-.6a6.72 6.72 0 0 1-.4-.86v-.35a.7.7 0 0 1 .43-.12.54.54 0 0 1 .27.14.51.51 0 0 1 .12.2c.29.77.86.92 1.63.85a17.5 17.5 0 0 1 2 .09h1a.23.23 0 0 1 .18.13.24.24 0 0 1-.07.2 1.64 1.64 0 0 1-1.31.34zM29.28 56.34c-.1-.21-.2-.42-.31-.62s-.3-.43-.41-.66a.39.39 0 0 1 .07-.35.45.45 0 0 1 .36-.08.84.84 0 0 1 .33.21c.19.17.36.37.55.56a1.17 1.17 0 0 1 .2 1.38 3.78 3.78 0 0 1-.31.64 1.65 1.65 0 0 0-.26 1.2c0 .19.06.38-.16.48a.61.61 0 0 1-.71-.17.82.82 0 0 1-.14-.75c.16-.42.35-.82.52-1.23.09-.19.17-.38.27-.61zM90.81 130a4.71 4.71 0 0 1-2.5-.85c-.06-.05-.13-.19-.1-.26a.33.33 0 0 1 .23-.17 3.18 3.18 0 0 1 .76.13c.27.08.52.25.79.35a1.64 1.64 0 0 0 2-.48c.31-.36.66-.67 1-1a1.54 1.54 0 0 1 1.11-.31.21.21 0 0 1 .16.14c0 .06 0 .18-.08.2a5.42 5.42 0 0 0-1.92 1.7 1.89 1.89 0 0 1-1.45.55zM51.71 107.31h-.63a.93.93 0 0 0-.73.24.69.69 0 0 1-.2.13 2.51 2.51 0 0 1-3-.12.14.14 0 0 1-.06-.13s.06-.11.09-.11a1.89 1.89 0 0 1 .53 0c.28 0 .56.14.84.18a1.55 1.55 0 0 0 1.25-.35 1.83 1.83 0 0 1 1.77-.41 1.89 1.89 0 0 0 1.65-.27 1 1 0 0 1 .81-.2.21.21 0 0 1 .16.14.23.23 0 0 1-.06.21 2.84 2.84 0 0 1-1.86.73h-.55zM23.63 115.86a1 1 0 0 1-.24 0 2.53 2.53 0 0 0-1.95.38 2.44 2.44 0 0 1-.43.21 1.08 1.08 0 0 1-1.25-.69.26.26 0 0 1 .07-.2h.13c.61.55 1.17.27 1.72-.08a2.07 2.07 0 0 1 1.59-.27 2.26 2.26 0 0 0 2-.49 2.61 2.61 0 0 1 .54-.31s.18.11.19.18a.48.48 0 0 1-.11.29 2.46 2.46 0 0 1-1.86 1h-.39zM77.53 102.57a6.57 6.57 0 0 1-3.27-1 1 1 0 0 1-.25-.29.2.2 0 0 1 .15-.3.81.81 0 0 1 .38 0 6.72 6.72 0 0 1 .88.35 6.15 6.15 0 0 0 2.84.5c.2 0 .43-.1.58.13s-.11.35-.46.44a4.34 4.34 0 0 1-.85.17zM49.43 45.16a2.3 2.3 0 0 1-1.38-.58.48.48 0 0 1-.1-.35c0-.16.21-.14.33-.1a4.6 4.6 0 0 1 .52.19 1.24 1.24 0 0 0 1.21 0 1.9 1.9 0 0 1 1.12-.32 1 1 0 0 0 .8-.44c.16-.18.33-.38.6-.24s.14.46-.11.76a1.18 1.18 0 0 1-1.06.56 2.14 2.14 0 0 0-1.13.29 5.31 5.31 0 0 1-.8.23zM92.79 47.62a2.06 2.06 0 0 1-1.69-1c0-.08-.06-.25 0-.29a.5.5 0 0 1 .35-.1 1.2 1.2 0 0 1 .41.2l.46.31a1 1 0 0 0 1.18 0c.38-.24.73-.52 1.1-.76a1.69 1.69 0 0 1 .5-.2.22.22 0 0 1 .22.31 3.2 3.2 0 0 1-2.53 1.53zM97.18 125.56a3 3 0 0 1-.35-.13.23.23 0 0 1 0-.39h.06a6 6 0 0 0 2.11-1.18 8.32 8.32 0 0 0 1.06-.92 5.76 5.76 0 0 1 .53-.47.28.28 0 0 1 .28 0c.06 0 .07.19 0 .27a3.1 3.1 0 0 1-1.23 1.49 17.1 17.1 0 0 1-1.47.91 8.14 8.14 0 0 1-.99.42zM94.94 121.9a1.81 1.81 0 0 1-.25 0c-.11 0-.3-.11-.31-.18s.17-.21.31-.26a8.36 8.36 0 0 0 1-.37 2.77 2.77 0 0 0 1.35-1.27 8.24 8.24 0 0 1 .77-1.18 1.13 1.13 0 0 1 .34-.31.35.35 0 0 1 .28 0 .3.3 0 0 1 .06.28c-.6 1-1 2.08-2.07 2.7a3 3 0 0 1-1.48.59zM107.59 137.31c0 .11 0 .21-.1.25a1.8 1.8 0 0 1-.48.4 28.34 28.34 0 0 1-3.33 1.24.65.65 0 0 1-.31 0 .32.32 0 0 1-.17-.14v-.13a4.44 4.44 0 0 1 .87-.66c.92-.4 1.86-.74 2.8-1.09a1.2 1.2 0 0 1 .46-.07c.12.03.19.14.26.2zM22.75 84.49c-.15 0-.48-.11-.8-.22-.08 0-.13-.14-.19-.22a.87.87 0 0 1 .24-.15 3.68 3.68 0 0 1 .47 0 14.84 14.84 0 0 0 3.92-.5c.43-.11.85-.28 1.28-.4h.27c.09 0-.07.22-.15.26a4.93 4.93 0 0 1-1.05.53c-1.13.36-2.33.38-3.48.64a4.6 4.6 0 0 1-.51.06zM77.23 111.93a10.83 10.83 0 0 1-1.46-.24 2 2 0 0 1-1.19-1.08.31.31 0 0 1 .23-.43.61.61 0 0 1 .64.22 2.87 2.87 0 0 0 1.73.86c.1 0 .21 0 .31.06s.36.07.32.27-.2.22-.33.3-.15.03-.25.04zM27.74 105.71a2.7 2.7 0 0 1-1.46-.31.31.31 0 0 1-.09-.2s0-.09.1-.1a1.85 1.85 0 0 1 .45-.11h.79a2.89 2.89 0 0 0 1.75-.37c.16-.11.37-.25.57 0s0 .4-.28.57a3.26 3.26 0 0 1-1.83.52zM28 94a1.78 1.78 0 0 1-.33-.06c-.07 0-.12-.1-.17-.15a.66.66 0 0 1 .14-.15.38.38 0 0 1 .15 0 1.84 1.84 0 0 0 1.49-1 1.47 1.47 0 0 1 1.1-.64.41.41 0 0 1 .34.11c.11.12 0 .23-.13.31a1.83 1.83 0 0 1-.26.16 1.3 1.3 0 0 0-.54.55A1.75 1.75 0 0 1 28 94zM116.78 79.63a.73.73 0 0 1-.3-.07.61.61 0 0 1-.21-.29c0-.06.11-.2.19-.21a2.14 2.14 0 0 0 1.38-.84 1.16 1.16 0 0 1 .39-.26c.22-.11.49-.08.49.05a.82.82 0 0 1-.17.41c-.19.24-.41.47-.63.7a1.93 1.93 0 0 1-1.14.51zM82.38 89.14c-.38-.06-.79-.12-1.2-.2-.07 0-.12-.09-.17-.14s.14-.15.22-.16a4.21 4.21 0 0 1 .71 0 10.75 10.75 0 0 0 2.59-.26 2.56 2.56 0 0 1 .39 0s.09 0 .14.06 0 .11-.07.13a2 2 0 0 1-1.08.44c-.49-.01-.99.07-1.53.13zM80.16 60.89c-.11-.09-.23-.14-.24-.22s0-.18.12-.23c.5-.34 1-.68 1.51-1a8.74 8.74 0 0 1 1-.48s.11 0 .13.07a.24.24 0 0 1 0 .15.32.32 0 0 1-.08.12c-.52.41-1 .84-1.55 1.22a5.29 5.29 0 0 1-.89.37zM25.09 109.23a1.61 1.61 0 0 1 1.29.09c.39.21.8.38 1.19.6.13.08.37.2.21.41s-.29.11-.42.08a9.89 9.89 0 0 1-1-.39 3.62 3.62 0 0 1-1.24-.8zM61.9 60.37c0-.11-.12-.18-.1-.24a.87.87 0 0 1 .17-.42c.47-.52 1-1 1.46-1.53a1.06 1.06 0 0 1 .35-.18h.13a.27.27 0 0 1 .05.21.52.52 0 0 1-.11.19c-.14.16-.27.33-.42.47-.42.43-.84.86-1.27 1.28-.07.1-.16.14-.26.22zM90.19 124.11h-.18c-.05 0-.13-.06-.13-.08a.35.35 0 0 1 .07-.2.25.25 0 0 1 .13-.09 11.09 11.09 0 0 1 2.36-.85h.22a.59.59 0 0 1-.06.2c-.22.34-.6.41-.93.56a8.68 8.68 0 0 1-1.12.38 2.7 2.7 0 0 1-.36.08zM45.49 126.81a4.54 4.54 0 0 1 .53.12.22.22 0 0 1 .14.16s-.08.11-.14.14a.21.21 0 0 1-.16 0 7.31 7.31 0 0 0-2.61.52 1.29 1.29 0 0 1-.38.08c-.07 0-.14 0-.21-.08s.05-.16.09-.18a12.83 12.83 0 0 1 2.74-.76zM89.88 91.88s-.08-.07-.08-.09v-.15a3.74 3.74 0 0 1 1.79-1.47.8.8 0 0 1 .31 0 .33.33 0 0 1 .17.13.19.19 0 0 1-.09.18 5.11 5.11 0 0 0-1.86 1.29c-.05.05-.12.07-.24.11zM55.58 98.64l-.17-.13a.07.07 0 0 1 0-.07 3.52 3.52 0 0 1 .35-.31l.92-.6a.67.67 0 0 1 .28-.1.25.25 0 0 1 .21.09.19.19 0 0 1 0 .19 2.61 2.61 0 0 1-.62.58 5.68 5.68 0 0 1-.97.35zM52.38 36.46a.68.68 0 0 1 0 .15A2 2 0 0 1 51 37.69h-.13c-.01 0 0-.18 0-.21.4-.37.8-.73 1.22-1.09h.21c.07 0 .06.03.08.07zM22.33 53.78a.66.66 0 0 1-.15 0 .32.32 0 0 1-.08-.12v-.07a4.41 4.41 0 0 0 1.39-1h.2c.06 0 .05.1 0 .14a1.75 1.75 0 0 1-1.36 1.05zM75 93.85a1.93 1.93 0 0 1 .53.23c.1.07-.25.25-.65.23a1.73 1.73 0 0 1-.45-.1.21.21 0 0 1-.13-.16s.08-.13.14-.15a5.5 5.5 0 0 1 .56-.05zM136.65 69.48l-1.09-.29a9.82 9.82 0 0 0-1.06-.3 1.85 1.85 0 0 0-1.61.46 4.77 4.77 0 0 1-1.82 1.06 2.49 2.49 0 0 1-1.55 0c-.31-.09-.61-.18-.9-.29a.29.29 0 0 1-.2-.38.43.43 0 0 1 .3-.21 1.63 1.63 0 0 1 .62.08 2.64 2.64 0 0 0 2.77-.64c.1-.09.22-.16.31-.25a2.32 2.32 0 0 1 1.67-.57 4.61 4.61 0 0 1 2 .34 1.39 1.39 0 0 0 1.55-.22c.15-.11.28-.24.42-.36a4.57 4.57 0 0 1 2.36-1c.32 0 .62-.11.94-.14a.42.42 0 0 1 .3.17.28.28 0 0 1-.19.38 2.36 2.36 0 0 1-.38.1 11.11 11.11 0 0 0-1.29.34 8 8 0 0 0-1.16.68c-.35.22-.67.5-1 .7a6.4 6.4 0 0 1-.99.34zM134.9 86.72h-1.26a.29.29 0 0 1-.23-.17.36.36 0 0 1 .13-.25 1.69 1.69 0 0 1 1-.32h1.42a2 2 0 0 0 1.94-1 1.62 1.62 0 0 1 2-.74l.39.07a1.6 1.6 0 0 0 1.57-.51 2.67 2.67 0 0 1 .45-.44 1.5 1.5 0 0 1 .5-.22.29.29 0 0 1 .26.11.29.29 0 0 1 0 .27c-.34.37-.68.73-1 1.08a1 1 0 0 1-.81.26h-1.66a1 1 0 0 0-.93.46 3.31 3.31 0 0 1-2.76 1.41h-.95zM133 96.52a7.34 7.34 0 0 1-2.46-.73 1.23 1.23 0 0 1-.31-.24.2.2 0 0 1 0-.33 1.13 1.13 0 0 1 .92 0l1 .35a3.23 3.23 0 0 0 2.88-.31 6.75 6.75 0 0 0 2.2-1.88.9.9 0 0 1 .15-.18.17.17 0 0 1 .15 0c.05 0 .14.12.13.16a2.29 2.29 0 0 1-.19.76 5.81 5.81 0 0 1-4.47 2.4zM137.74 90.55c-.33-.09-.6-.16-.88-.25a1 1 0 0 0-1.08.22 1.67 1.67 0 0 1-2.49-.25c-.14-.18-.07-.41.15-.41a1.07 1.07 0 0 1 .56.14 1 1 0 0 0 1.52-.2.93.93 0 0 1 1.15-.26 3.26 3.26 0 0 0 1.54.24 1.27 1.27 0 0 1 .39 0c.14 0 .37.07.4.17s-.19.26-.34.32zM129.4 62.81c.39 0 .66 0 .8.22s-.16.37-.54.47-.79.13-1.15.27c-.71.28-1.39.63-2.09.93-.46.2-.93.36-1.4.53a.66.66 0 0 1-.31 0 .22.22 0 0 1-.18-.12.48.48 0 0 1 0-.29.64.64 0 0 1 .25-.18 26.27 26.27 0 0 1 3.69-1.64 7 7 0 0 1 .93-.19zM128.24 76.93a1.61 1.61 0 0 0-.31 0 2.19 2.19 0 0 1-1.9-.79c-.33-.37-.63-.77-.94-1.17a.89.89 0 0 1-.15-.27.26.26 0 0 1 .06-.21.23.23 0 0 1 .21 0 1.83 1.83 0 0 1 .47.28 11 11 0 0 1 .82.85 2 2 0 0 0 2.18.74 6.59 6.59 0 0 1 1.17-.16 1.27 1.27 0 0 1 .46.1.18.18 0 0 1 0 .32 1.43 1.43 0 0 1-.43.17c-.55.09-1.09.15-1.64.22zM143.64 89.61h-.36a.63.63 0 0 1-.21-.19s.08-.13.14-.16c.26-.12.53-.22.8-.33a4.62 4.62 0 0 0 1.83-1.45c.23-.28.44-.59.69-.86a1.22 1.22 0 0 1 .45-.28.3.3 0 0 1 .27.08.31.31 0 0 1 0 .28c-.37.51-.74 1-1.15 1.49a4.32 4.32 0 0 1-1.77 1.27 5.62 5.62 0 0 1-.69.15zM132 83.88a3.09 3.09 0 0 1-2.12-.65 1.77 1.77 0 0 1-.41-.36c0-.05-.07-.18 0-.21a.31.31 0 0 1 .24-.15 1.21 1.21 0 0 1 .45.12 5.58 5.58 0 0 0 .79.35 12.25 12.25 0 0 0 1.47.27h.63c.21 0 .21.14.2.19a.45.45 0 0 1-.18.31.79.79 0 0 1-.38.09c-.29.05-.5.04-.69.04zM127 87.11s0-.19.13-.22a.45.45 0 0 1 .36 0 4.46 4.46 0 0 1 .43.33 1.47 1.47 0 0 0 1.5.16l.79-.35a1.25 1.25 0 0 1 .37-.09.25.25 0 0 1 .19.12.26.26 0 0 1 0 .21 1.5 1.5 0 0 1-.81.61 2.87 2.87 0 0 1-2.64-.2.65.65 0 0 1-.32-.57zM120.87 66.51a2.29 2.29 0 0 1-1.07-.3l-2-1.16s-.1-.07-.11-.11a.38.38 0 0 1 0-.21s.09-.07.13-.06a4.5 4.5 0 0 1 .81.26 9.4 9.4 0 0 1 1.14.7 2 2 0 0 0 2.16.13 5.16 5.16 0 0 1 .66-.23.19.19 0 0 1 .14 0 .18.18 0 0 1 0 .13 7.56 7.56 0 0 1-.93.58 4.55 4.55 0 0 1-.93.27zM132.34 66.24c0 .05 0 .12-.08.14a.78.78 0 0 1-.3.07 2.78 2.78 0 0 0-2.15 1c-.2.17-.37.37-.56.55a.23.23 0 0 1-.19 0 .33.33 0 0 1 0-.22.5.5 0 0 1 .09-.21 4 4 0 0 1 1.66-1.42 1.83 1.83 0 0 1 1.38 0c.04-.03.09.04.15.09zM102.55 84.83a1.92 1.92 0 0 1-1.19-.39.46.46 0 0 1-.19-.31c0-.19.14-.28.3-.31a1.48 1.48 0 0 1 .47 0 1.86 1.86 0 0 1 .38.12 1.15 1.15 0 0 0 1.46-.45 1.47 1.47 0 0 1 1.6-.73 1.94 1.94 0 0 0 1.53-.51 2.77 2.77 0 0 1 .45-.31h.28a.47.47 0 0 1 0 .36 2 2 0 0 1-1.22.93 5 5 0 0 1-.94.15 1.12 1.12 0 0 0-1 .51 2.2 2.2 0 0 1-1.93.94zM109.65 78.23a2.34 2.34 0 0 1-.15.27 3.79 3.79 0 0 1-1.56 1.15.54.54 0 0 1-.3.06.5.5 0 0 1-.33-.17c0-.06.06-.25.15-.31.6-.41 1.22-.81 1.84-1.2a.22.22 0 0 1 .22 0s.08.12.13.2z"/>
</svg>
